<svg width="162" height="56" viewBox="0 0 162 56" fill="none" xmlns="http://www.w3.org/2000/svg">
<g id="logo">
<g id="Vector">
<path d="M161.376 43.073L148.888 35.8182C148.7 35.7091 148.487 35.6517 148.27 35.6517C148.053 35.6517 147.84 35.7091 147.652 35.8182L135.155 43.073C134.968 43.1823 134.813 43.3391 134.705 43.5278C134.597 43.7165 134.54 43.9304 134.54 44.1481C134.54 44.3659 134.597 44.5798 134.705 44.7685C134.813 44.9572 134.968 45.114 135.155 45.2233L147.652 52.4656C147.84 52.5747 148.053 52.6322 148.27 52.6322C148.487 52.6322 148.7 52.5747 148.888 52.4656L161.384 45.2067C161.571 45.0975 161.727 44.9407 161.835 44.7519C161.944 44.5632 162 44.3493 162 44.1315C162 43.9138 161.944 43.6998 161.835 43.5112C161.727 43.3225 161.571 43.1656 161.384 43.0564L161.376 43.073ZM148.262 49.9797L138.238 44.1792L148.262 38.358L158.286 44.1792L148.262 49.9797Z" fill="#333131"/>
<path d="M128.365 31.7701C128.038 31.7701 127.723 31.901 127.491 32.1341C127.26 32.3673 127.129 32.6834 127.129 33.0131V54.1228C127.129 54.4524 127.26 54.7686 127.491 55.0016C127.723 55.2347 128.038 55.3657 128.365 55.3657C128.694 55.3657 129.008 55.2347 129.24 55.0016C129.472 54.7686 129.602 54.4524 129.602 54.1228V33.0131C129.602 32.6834 129.472 32.3673 129.24 32.1341C129.008 31.901 128.694 31.7701 128.365 31.7701Z" fill="#333131"/>
<path d="M119.095 38.623H115.713V33.0131C115.713 32.6834 115.583 32.3673 115.351 32.1341C115.119 31.901 114.805 31.7701 114.477 31.7701C114.149 31.7701 113.834 31.901 113.602 32.1341C113.371 32.3673 113.24 32.6834 113.24 33.0131V54.1228C113.24 54.4524 113.371 54.7686 113.602 55.0016C113.834 55.2347 114.149 55.3657 114.477 55.3657H119.095C120.649 55.3635 122.138 54.7421 123.236 53.6377C124.334 52.5332 124.952 51.0359 124.954 49.474V44.5146C124.952 42.9527 124.334 41.4554 123.236 40.351C122.138 39.2466 120.649 38.6252 119.095 38.623ZM122.482 49.4658C122.482 50.369 122.125 51.2353 121.491 51.874C120.855 52.5127 119.994 52.8715 119.095 52.8715H115.713V41.1089H119.095C119.994 41.1089 120.855 41.4677 121.491 42.1064C122.125 42.7451 122.482 43.6114 122.482 44.5146V49.4658Z" fill="#333131"/>
<path d="M105.285 32.8432C105.274 32.7671 105.256 32.6922 105.231 32.6195C105.149 32.3718 104.991 32.1564 104.78 32.0041C104.569 31.8516 104.316 31.7697 104.057 31.7701H97.6996C97.3722 31.7701 97.0575 31.901 96.8254 32.1341C96.5943 32.3673 96.4635 32.6834 96.4635 33.0131C96.4635 33.3427 96.5943 33.6589 96.8254 33.8919C97.0575 34.1251 97.3722 34.256 97.6996 34.256H99.1829L96.6289 52.8715H95.9615C95.6332 52.8715 95.3185 53.0024 95.0873 53.2355C94.8553 53.4687 94.7254 53.7848 94.7254 54.1145C94.7254 54.4441 94.8553 54.7602 95.0873 54.9934C95.3185 55.2265 95.6332 55.3574 95.9615 55.3574H97.9713C98.0312 55.346 98.0894 55.3279 98.1451 55.3035H98.194C98.2565 55.2745 98.3172 55.2413 98.3754 55.2041C98.5197 55.1069 98.642 54.9804 98.734 54.8326C98.826 54.6849 98.8867 54.5193 98.9112 54.3465L101.655 34.3182H102.961L105.705 54.3465C105.746 54.6459 105.894 54.92 106.122 55.1175C106.349 55.315 106.641 55.4224 106.941 55.4196C106.998 55.4237 107.053 55.4237 107.11 55.4196C107.271 55.3976 107.426 55.344 107.566 55.2618C107.707 55.1795 107.83 55.0702 107.928 54.9401C108.026 54.8101 108.099 54.6618 108.14 54.5038C108.181 54.3458 108.191 54.1811 108.169 54.0192L105.285 32.8432Z" fill="#333131"/>
<path d="M89.0553 32.8432C89.0443 32.7671 89.0266 32.6922 89.0022 32.6195C88.9203 32.3725 88.7634 32.1576 88.5533 32.0052C88.3432 31.8529 88.0909 31.7705 87.8319 31.7701H81.4789C81.151 31.7701 80.8366 31.901 80.6048 32.1341C80.373 32.3673 80.2428 32.6834 80.2428 33.0131C80.2428 33.3427 80.373 33.6589 80.6048 33.8919C80.8366 34.1251 81.151 34.256 81.4789 34.256H82.9661L80.2675 53.9446C80.2348 54.2651 80.3271 54.5857 80.525 54.8391C80.7229 55.0924 81.0107 55.2586 81.3281 55.3027C81.6453 55.3467 81.9673 55.2652 82.2261 55.0752C82.4848 54.8852 82.66 54.6017 82.7149 54.2843L83.506 48.5045H88.7178L89.5092 54.2843C89.5498 54.5838 89.6982 54.8578 89.9252 55.0553C90.153 55.2529 90.4441 55.3603 90.7445 55.3574C90.801 55.3617 90.8576 55.3617 90.9141 55.3574C91.0752 55.3355 91.2297 55.2819 91.3706 55.1996C91.5106 55.1174 91.6338 55.0081 91.7317 54.878C91.8304 54.7479 91.9021 54.5996 91.9435 54.4416C91.9848 54.2836 91.9949 54.1189 91.973 53.957L89.0553 32.8432ZM83.8355 46.0186L85.4466 34.256H86.7527L88.3634 46.0186H83.8355Z" fill="#333131"/>
<path d="M75.171 31.7701H65.9255C65.5976 31.7701 65.2833 31.901 65.0515 32.1341C64.8197 32.3673 64.6894 32.6834 64.6894 33.0131C64.6894 33.3427 64.8197 33.6589 65.0515 33.8919C65.2833 34.1251 65.5976 34.256 65.9255 34.256H69.3122V54.1228C69.3122 54.4524 69.4424 54.7686 69.6742 55.0016C69.906 55.2347 70.2204 55.3657 70.5483 55.3657C70.8761 55.3657 71.1904 55.2347 71.4222 55.0016C71.6541 54.7686 71.7843 54.4524 71.7843 54.1228V34.256H75.171C75.4988 34.256 75.8132 34.1251 76.0449 33.8919C76.2768 33.6589 76.407 33.3427 76.407 33.0131C76.407 32.6834 76.2768 32.3673 76.0449 32.1341C75.8132 31.901 75.4988 31.7701 75.171 31.7701Z" fill="#333131"/>
<path d="M56.0829 31.7701H51.4601C51.1324 31.7701 50.818 31.901 50.5862 32.1341C50.3543 32.3673 50.2241 32.6834 50.2241 33.0131V54.1228C50.2241 54.4524 50.3543 54.7686 50.5862 55.0016C50.818 55.2347 51.1324 55.3657 51.4601 55.3657C51.7879 55.3657 52.1024 55.2347 52.3342 55.0016C52.566 54.7686 52.6962 54.4524 52.6962 54.1228V48.5045H56.0829C56.8528 48.5056 57.6155 48.3542 58.3272 48.0589C59.0389 47.7636 59.6859 47.3303 60.231 46.7836C60.7762 46.2369 61.209 45.5875 61.5047 44.8726C61.8002 44.1577 61.9529 43.3913 61.954 42.6171V37.6452C61.9475 36.084 61.3259 34.5891 60.2254 33.4879C59.1249 32.3867 57.6354 31.769 56.0829 31.7701ZM59.4696 42.6171C59.4685 43.5196 59.1112 44.3848 58.4762 45.0226C57.8412 45.6603 56.9804 46.0186 56.0829 46.0186H52.6962V34.256H56.0829C56.9808 34.2571 57.8416 34.6163 58.4764 35.2548C59.1114 35.8933 59.4685 36.7588 59.4696 37.6618V42.6171Z" fill="#333131"/>
<path d="M42.2597 32.8432C42.2519 32.7669 42.2354 32.6918 42.2102 32.6195C42.128 32.3718 41.9703 32.1564 41.7596 32.0041C41.5488 31.8516 41.2956 31.7697 41.036 31.7701H34.6828C34.355 31.7701 34.0406 31.901 33.8088 32.1341C33.577 32.3673 33.4468 32.6834 33.4468 33.0131C33.4468 33.3427 33.577 33.6589 33.8088 33.8919C34.0406 34.1251 34.355 34.256 34.6828 34.256H36.1537L33.455 53.9446C33.4328 54.1078 33.4428 54.2738 33.4845 54.4332C33.5261 54.5925 33.5985 54.7421 33.6976 54.8733C33.7967 55.0044 33.9205 55.1147 34.062 55.1978C34.2034 55.2809 34.3598 55.3351 34.5221 55.3574C34.6845 55.3797 34.8495 55.3697 35.008 55.3278C35.1664 55.286 35.3151 55.2132 35.4455 55.1135C35.5761 55.0139 35.6857 54.8893 35.7683 54.7471C35.851 54.6048 35.9049 54.4476 35.9271 54.2843L36.7181 48.5045H41.93L42.7211 54.2843C42.7621 54.5838 42.9103 54.8578 43.1378 55.0554C43.3653 55.2529 43.6566 55.3603 43.9571 55.3574H44.126C44.4505 55.3122 44.7438 55.1393 44.9416 54.8767C45.1394 54.6141 45.2254 54.2833 45.1808 53.957L42.2597 32.8432ZM37.0436 46.0186L38.6546 34.256H39.9606L41.5716 46.0186H37.0436Z" fill="#333131"/>
<path d="M27.1514 31.7701H17.91C17.5822 31.7701 17.2678 31.901 17.036 32.1341C16.8041 32.3673 16.674 32.6834 16.674 33.0131V54.1228C16.674 54.4524 16.8041 54.7686 17.036 55.0016C17.2678 55.2347 17.5822 55.3657 17.91 55.3657H22.5327C24.0852 55.3624 25.5731 54.7405 26.6704 53.6362C27.7678 52.5319 28.3853 51.0352 28.3874 49.474V44.5146C28.3881 43.6176 28.1845 42.7323 27.7925 41.9266C27.4004 41.1208 26.8302 40.4159 26.1255 39.8659C26.8295 39.3154 27.3992 38.6104 27.7912 37.8047C28.1832 36.9991 28.3871 36.1141 28.3874 35.2173V33.0131C28.3874 32.6834 28.2572 32.3673 28.0254 32.1341C27.7936 31.901 27.4792 31.7701 27.1514 31.7701ZM25.9154 49.4658C25.9154 50.3683 25.5591 51.2339 24.9249 51.8725C24.2906 52.5111 23.4302 52.8704 22.5327 52.8715H19.1461V41.1089H22.5327C23.4302 41.11 24.2906 41.4693 24.9249 42.1079C25.5591 42.7465 25.9154 43.6121 25.9154 44.5146V49.4658ZM25.9154 35.2173C25.9154 36.1198 25.5591 36.9854 24.9249 37.624C24.2906 38.2626 23.4302 38.6219 22.5327 38.623H19.1461V34.256H25.9154V35.2173Z" fill="#333131"/>
<path d="M11.7175 35.2173V33.0131C11.7175 32.6834 11.5873 32.3673 11.3555 32.1341C11.1237 31.901 10.8093 31.7701 10.4815 31.7701C10.1537 31.7701 9.83931 31.901 9.60753 32.1341C9.37575 32.3673 9.24547 32.6834 9.24547 33.0131V35.2173C9.24438 36.1201 8.88722 36.9858 8.25236 37.6242C7.61747 38.2627 6.75664 38.6219 5.85876 38.623H2.47206V33.0131C2.47206 32.6834 2.34184 32.3673 2.11004 32.1341C1.87824 31.901 1.56384 31.7701 1.23603 31.7701C0.908213 31.7701 0.593818 31.901 0.362017 32.1341C0.130217 32.3673 0 32.6834 0 33.0131V54.1228C0 54.4524 0.130217 54.7686 0.362017 55.0016C0.593818 55.2347 0.908213 55.3657 1.23603 55.3657C1.56384 55.3657 1.87824 55.2347 2.11004 55.0016C2.34184 54.7686 2.47206 54.4524 2.47206 54.1228V41.1089H5.85876C6.75698 41.1089 7.61844 41.4677 8.25357 42.1064C8.88874 42.7451 9.24547 43.6114 9.24547 44.5146V54.1228C9.24547 54.4524 9.37575 54.7686 9.60753 55.0016C9.83931 55.2347 10.1537 55.3657 10.4815 55.3657C10.8093 55.3657 11.1237 55.2347 11.3555 55.0016C11.5873 54.7686 11.7175 54.4524 11.7175 54.1228V44.5146C11.7182 43.6176 11.5147 42.7323 11.1226 41.9266C10.7306 41.1208 10.1603 40.4159 9.45557 39.8659C10.1596 39.3154 10.7294 38.6104 11.1213 37.8047C11.5133 36.9991 11.7172 36.1141 11.7175 35.2173Z" fill="#333131"/>
<path d="M160.758 21.1179H152.748V9.3761H156.802C157.131 9.3761 157.445 9.24518 157.677 9.01201C157.909 8.77893 158.039 8.46279 158.039 8.13313C158.039 7.80347 157.909 7.48733 157.677 7.25422C157.445 7.02113 157.131 6.89016 156.802 6.89016H152.748V2.5025H160.758C161.086 2.5025 161.4 2.37154 161.632 2.13844C161.864 1.90534 161.994 1.5892 161.994 1.25953C161.994 0.92988 161.864 0.613722 161.632 0.380621C161.4 0.147519 161.086 0.016572 160.758 0.016572H151.512C151.185 0.0165719 150.87 0.147519 150.639 0.380621C150.407 0.613722 150.276 0.92988 150.276 1.25953V22.361C150.276 22.6906 150.407 23.0068 150.639 23.2398C150.87 23.4729 151.185 23.6039 151.512 23.6039H160.758C161.086 23.6039 161.4 23.4729 161.632 23.2398C161.864 23.0068 161.994 22.6906 161.994 22.361C161.994 22.0312 161.864 21.7151 161.632 21.482C161.4 21.2489 161.086 21.1179 160.758 21.1179Z" fill="#333131"/>
<path d="M144.562 23.6039C144.89 23.6039 145.204 23.4729 145.436 23.2398C145.668 23.0068 145.798 22.6906 145.798 22.361V1.25953C145.798 0.92988 145.668 0.613722 145.436 0.380621C145.204 0.147519 144.89 0.016572 144.562 0.016572C144.234 0.016572 143.919 0.147519 143.687 0.380621C143.456 0.613722 143.325 0.92988 143.325 1.25953V22.361C143.325 22.6906 143.456 23.0068 143.687 23.2398C143.919 23.4729 144.234 23.6039 144.562 23.6039Z" fill="#333131"/>
<path d="M141.151 17.7164V12.7445C141.139 11.1891 140.516 9.70141 139.419 8.60499C138.322 7.50862 136.838 6.8923 135.292 6.89016H131.905V1.25953C131.905 0.92988 131.775 0.613722 131.543 0.380621C131.311 0.147519 130.997 0.016572 130.669 0.016572C130.342 0.016572 130.027 0.147519 129.795 0.380621C129.564 0.613722 129.433 0.92988 129.433 1.25953V22.361C129.433 22.6906 129.564 23.0068 129.795 23.2398C130.027 23.4729 130.342 23.6039 130.669 23.6039H135.292C136.844 23.6028 138.334 22.9823 139.432 21.8785C140.531 20.7747 141.148 19.2779 141.151 17.7164ZM131.905 9.3761H135.292C136.19 9.3772 137.05 9.73636 137.686 10.3748C138.32 11.0132 138.678 11.8789 138.679 12.7818V17.7537C138.678 18.6562 138.32 19.5214 137.686 20.1592C137.05 20.797 136.19 21.1553 135.292 21.1553H131.905V9.3761Z" fill="#333131"/>
<path d="M123.718 0.016572C123.391 0.0165719 123.076 0.147519 122.844 0.380621C122.613 0.613722 122.482 0.92988 122.482 1.25953V6.89016H115.713V1.25953C115.713 0.92988 115.583 0.613722 115.351 0.380621C115.119 0.147519 114.805 0.016572 114.477 0.016572C114.149 0.016572 113.834 0.147519 113.602 0.380621C113.371 0.613722 113.24 0.92988 113.24 1.25953V22.361C113.24 22.6906 113.371 23.0068 113.602 23.2398C113.834 23.4729 114.149 23.6039 114.477 23.6039C114.805 23.6039 115.119 23.4729 115.351 23.2398C115.583 23.0068 115.713 22.6906 115.713 22.361V9.3761H122.482V22.3817C122.482 22.7113 122.613 23.0275 122.844 23.2605C123.076 23.4937 123.391 23.6246 123.718 23.6246C124.046 23.6246 124.36 23.4937 124.592 23.2605C124.824 23.0275 124.954 22.7113 124.954 22.3817V1.25953C124.954 0.92988 124.824 0.613722 124.592 0.380621C124.36 0.147519 124.046 0.016572 123.718 0.016572Z" fill="#333131"/>
<path d="M108.684 21.1179H108.021L105.277 1.08967C105.259 0.984115 105.229 0.881143 105.186 0.783069C105.093 0.557503 104.936 0.364514 104.735 0.228196C104.533 0.0918782 104.296 0.0182702 104.053 0.016572H97.6918C97.3635 0.016572 97.0497 0.147519 96.8176 0.380621C96.5856 0.613722 96.4557 0.92988 96.4557 1.25953C96.4557 1.5892 96.5856 1.90534 96.8176 2.13844C97.0497 2.37154 97.3635 2.5025 97.6918 2.5025H99.1751L96.6202 21.1179H95.9528C95.6254 21.1179 95.3107 21.2489 95.0787 21.482C94.8475 21.7151 94.7167 22.0312 94.7167 22.361V24.2917C94.7167 24.6213 94.8475 24.9375 95.0787 25.1706C95.3107 25.4036 95.6254 25.5346 95.9528 25.5346C96.281 25.5346 96.5949 25.4036 96.8269 25.1706C97.059 24.9375 97.1889 24.6213 97.1889 24.2917V23.6121H107.448V24.2917C107.448 24.6213 107.578 24.9375 107.81 25.1706C108.042 25.4036 108.356 25.5346 108.684 25.5346C109.012 25.5346 109.326 25.4036 109.558 25.1706C109.789 24.9375 109.92 24.6213 109.92 24.2917V22.3692C109.921 22.2053 109.89 22.0428 109.828 21.891C109.767 21.7393 109.676 21.6012 109.561 21.4849C109.446 21.3687 109.309 21.2764 109.159 21.2134C109.008 21.1504 108.847 21.1179 108.684 21.1179ZM101.68 2.5025H102.986L105.536 21.1179H99.1169L101.68 2.5025Z" fill="#333131"/>
<path d="M90.8558 2.5025C91.184 2.5025 91.4979 2.37154 91.7299 2.13844C91.962 1.90534 92.0919 1.5892 92.0919 1.25953C92.0919 0.92988 91.962 0.613722 91.7299 0.380621C91.4979 0.147519 91.184 0.016572 90.8558 0.016572H81.6147C81.2869 0.0165719 80.9726 0.147519 80.7407 0.380621C80.5089 0.613722 80.3787 0.92988 80.3787 1.25953V22.361C80.3787 22.6906 80.5089 23.0068 80.7407 23.2398C80.9726 23.4729 81.2869 23.6039 81.6147 23.6039H90.8558C91.184 23.6039 91.4979 23.4729 91.7299 23.2398C91.962 23.0068 92.0919 22.6906 92.0919 22.361C92.0919 22.0312 91.962 21.7151 91.7299 21.482C91.4979 21.2489 91.184 21.1179 90.8558 21.1179H82.8507V9.3761H86.9054C87.2328 9.3761 87.5475 9.24518 87.7787 9.01201C88.0107 8.77893 88.1406 8.46279 88.1406 8.13313C88.1406 7.80347 88.0107 7.48733 87.7787 7.25422C87.5475 7.02113 87.2328 6.89016 86.9054 6.89016H82.8507V2.5025H90.8558Z" fill="#333131"/>
<path d="M70.0872 23.6039C70.8574 23.6055 71.6205 23.4545 72.3327 23.1595C73.0449 22.8645 73.6923 22.4311 74.238 21.8844C74.7836 21.3376 75.2167 20.6881 75.5126 19.9729C75.8085 19.2578 75.9614 18.491 75.9624 17.7164V12.7445C75.963 11.8475 75.7595 10.9622 75.3675 10.1564C74.9754 9.35073 74.4052 8.64581 73.7005 8.09584C74.4052 7.54586 74.9754 6.84101 75.3675 6.03526C75.7595 5.22949 75.963 4.3442 75.9624 3.44716V1.24296C75.9624 0.913309 75.8323 0.597163 75.6004 0.364061C75.3686 0.13096 75.0542 0 74.7264 0H65.485C65.1572 0 64.8428 0.13096 64.6111 0.364061C64.3793 0.597163 64.249 0.913309 64.249 1.24296V22.3443C64.249 22.674 64.3793 22.9902 64.6111 23.2233C64.8428 23.4564 65.1572 23.5873 65.485 23.5873L70.0872 23.6039ZM73.4739 17.7164C73.4728 18.6189 73.1155 19.4841 72.4805 20.1219C71.8455 20.7597 70.9847 21.1179 70.0872 21.1179H66.7046V9.3761H70.0872C70.9851 9.3772 71.8458 9.73636 72.4807 10.3748C73.1156 11.0132 73.4728 11.8789 73.4739 12.7818V17.7164ZM73.4739 2.5025V3.46374C73.4728 4.36665 73.1156 5.23227 72.4807 5.87073C71.8458 6.50919 70.9851 6.86837 70.0872 6.86946H66.7046V2.5025H73.4739Z" fill="#333131"/>
<path d="M59.7536 17.7164V5.90823C59.7536 4.34566 59.1365 2.8471 58.0377 1.7422C56.939 0.6373 55.4488 0.016572 53.8949 0.016572C52.3411 0.016572 50.8508 0.6373 49.7521 1.7422C48.6534 2.8471 48.0361 4.34566 48.0361 5.90823V17.7164C48.0361 19.2789 48.6534 20.7775 49.7521 21.8824C50.8508 22.9873 52.3411 23.6081 53.8949 23.6081C55.4488 23.6081 56.939 22.9873 58.0377 21.8824C59.1365 20.7775 59.7536 19.2789 59.7536 17.7164ZM50.5082 17.7164V5.90823C50.5082 5.00497 50.865 4.13871 51.5001 3.50002C52.1353 2.86132 52.9966 2.5025 53.8949 2.5025C54.7931 2.5025 55.6545 2.86132 56.2896 3.50002C56.9248 4.13871 57.2816 5.00497 57.2816 5.90823V17.7164C57.2816 18.6197 56.9248 19.4859 56.2896 20.1246C55.6545 20.7633 54.7931 21.1221 53.8949 21.1221C52.9966 21.1221 52.1353 20.7633 51.5001 20.1246C50.865 19.4859 50.5082 18.6197 50.5082 17.7164Z" fill="#333131"/>
<path d="M34.3121 22.361V2.5025H41.0855V22.361C41.0855 22.6906 41.2158 23.0068 41.4476 23.2398C41.6793 23.4729 41.9937 23.6039 42.3215 23.6039C42.6494 23.6039 42.9638 23.4729 43.1955 23.2398C43.4273 23.0068 43.5576 22.6906 43.5576 22.361V1.25953C43.5576 0.92988 43.4273 0.613722 43.1955 0.380621C42.9638 0.147519 42.6494 0.016572 42.3215 0.016572H33.0761C32.7482 0.0165719 32.4339 0.147519 32.2021 0.380621C31.9703 0.613722 31.84 0.92988 31.84 1.25953V22.361C31.84 22.6906 31.9703 23.0068 32.2021 23.2398C32.4339 23.4729 32.7482 23.6039 33.0761 23.6039C33.4039 23.6039 33.7183 23.4729 33.9501 23.2398C34.1819 23.0068 34.3121 22.6906 34.3121 22.361Z" fill="#333131"/>
<path d="M18.1082 22.5308L18.8993 16.7552H24.1113L24.9023 22.5308C24.9424 22.8309 25.0902 23.1061 25.3177 23.3044C25.5454 23.5028 25.8372 23.6108 26.1383 23.6081H26.3072C26.6316 23.5628 26.925 23.3899 27.1228 23.1273C27.3206 22.8647 27.4066 22.534 27.362 22.2076L24.4614 1.08967C24.4472 0.983861 24.4181 0.880634 24.3749 0.783069C24.2815 0.556856 24.1238 0.363415 23.9215 0.227045C23.7192 0.0906768 23.4813 0.0174569 23.2377 0.016572H16.8763C16.5485 0.016572 16.2341 0.147519 16.0023 0.380621C15.7705 0.613722 15.6403 0.92988 15.6403 1.25953C15.6403 1.5892 15.7705 1.90534 16.0023 2.13844C16.2341 2.37154 16.5485 2.5025 16.8763 2.5025H18.3595L15.6609 22.1952C15.639 22.3571 15.649 22.5217 15.6903 22.6797C15.7317 22.8377 15.8036 22.9859 15.9019 23.116C16.0002 23.2459 16.1231 23.3553 16.2634 23.4376C16.4037 23.5199 16.5588 23.5735 16.7198 23.5956C16.8808 23.6177 17.0444 23.6076 17.2015 23.566C17.3587 23.5244 17.5061 23.4521 17.6353 23.3533C17.7647 23.2543 17.8733 23.1309 17.9552 22.9897C18.037 22.8486 18.0904 22.6926 18.1124 22.5308H18.1082ZM22.1583 2.5025L23.7692 14.2692H19.2371L20.8481 2.5025H22.1583Z" fill="#333131"/>
<path d="M10.4815 0.0157434H1.23603C0.908213 0.0157434 0.593818 0.146691 0.362017 0.379792C0.130217 0.612893 0 0.929057 0 1.25871C0 1.58836 0.130217 1.90451 0.362017 2.13761C0.593818 2.37071 0.908213 2.50167 1.23603 2.50167H9.24547V3.4629C9.24438 4.36582 8.88722 5.23144 8.25236 5.86989C7.61747 6.50835 6.75664 6.86753 5.85876 6.86863H3.54739C3.21958 6.86863 2.90518 6.99958 2.67339 7.23267C2.44158 7.46578 2.31137 7.78194 2.31137 8.11159C2.31137 8.44125 2.44158 8.75738 2.67339 8.99046C2.90518 9.22362 3.21958 9.35455 3.54739 9.35455H5.85876C6.75664 9.35565 7.61747 9.71481 8.25236 10.3533C8.88722 10.9917 9.24438 11.8573 9.24547 12.7603V17.7321C9.24547 18.6354 8.88874 19.5017 8.25357 20.1403C7.61844 20.7791 6.75698 21.1379 5.85876 21.1379C4.96055 21.1379 4.09914 20.7791 3.46401 20.1403C2.82887 19.5017 2.47206 18.6354 2.47206 17.7321V14.0985C2.47206 13.7689 2.34184 13.4527 2.11004 13.2196C1.87824 12.9865 1.56384 12.8556 1.23603 12.8556C0.908213 12.8556 0.593818 12.9865 0.362017 13.2196C0.130217 13.4527 0 13.7689 0 14.0985V17.7156C0 19.2781 0.617252 20.7767 1.71599 21.8816C2.81472 22.9865 4.30492 23.6072 5.85876 23.6072C7.41261 23.6072 8.90283 22.9865 10.0016 21.8816C11.1003 20.7767 11.7175 19.2781 11.7175 17.7156V12.7437C11.7182 11.8466 11.5147 10.9614 11.1226 10.1556C10.7306 9.34988 10.1603 8.64496 9.45557 8.09501C10.1603 7.54503 10.7306 6.84018 11.1226 6.03442C11.5147 5.22866 11.7182 4.34337 11.7175 3.44632V1.24213C11.7132 0.915354 11.5811 0.603454 11.3497 0.373926C11.1184 0.144397 10.8065 0.0157144 10.4815 0.0157434Z" fill="#333131"/>
</g>
</g>
</svg>
