<svg width="656" height="396" viewBox="0 0 656 396" fill="none" xmlns="http://www.w3.org/2000/svg">
<path d="M36.593 101.613H21.281V8.28928H36.593V49.0773H48.605L77.381 8.28928H94.937L61.673 53.5653L95.333 101.613H77.513L50.057 62.6733H36.593V101.613ZM141.741 93.0333C139.453 96.2893 136.417 98.7093 132.633 100.293C128.849 101.789 124.625 102.537 119.961 102.537C116.265 102.537 112.877 102.097 109.797 101.217C106.805 100.337 104.165 99.0173 101.877 97.2573C99.5893 95.4093 97.7853 93.1653 96.4653 90.5253C95.1453 87.7973 94.4853 84.7173 94.4853 81.2853C94.4853 77.5013 95.2333 74.2893 96.7293 71.6493C98.2253 68.9213 100.249 66.7213 102.801 65.0493C105.441 63.3773 108.521 62.1453 112.041 61.3533C115.561 60.4733 119.257 60.0333 123.129 60.0333H140.949C140.949 54.9293 139.805 50.9693 137.517 48.1533C135.229 45.3373 131.225 43.8853 125.505 43.7973C122.161 43.7973 119.257 44.3693 116.793 45.5133C114.417 46.6573 112.833 48.5493 112.041 51.1893H96.5973C97.1253 47.4933 98.3133 44.3693 100.161 41.8173C102.097 39.2653 104.385 37.1533 107.025 35.4813C109.753 33.8093 112.745 32.6213 116.001 31.9173C119.345 31.2133 122.689 30.8613 126.033 30.8613C130.345 30.8613 134.349 31.4333 138.045 32.5773C141.741 33.7213 144.953 35.6573 147.681 38.3853C150.761 41.5533 152.829 45.3373 153.885 49.7373C154.941 54.1373 155.469 58.9333 155.469 64.1253V101.613H142.401L141.741 93.0333ZM140.949 70.7253H126.429C123.877 70.7253 121.325 70.9453 118.773 71.3853C116.221 71.7373 114.021 72.6613 112.173 74.1573C110.413 75.5653 109.533 77.6333 109.533 80.3613C109.533 83.7053 110.721 86.2573 113.097 88.0173C115.561 89.6893 118.553 90.5253 122.073 90.5253C124.801 90.5253 127.309 90.1733 129.597 89.4693C131.973 88.7653 133.997 87.6213 135.669 86.0373C137.341 84.3653 138.617 82.2973 139.497 79.8333C140.465 77.2813 140.949 74.2453 140.949 70.7253ZM165.027 101.613V32.0493H179.943V60.4293H190.635L208.455 32.0493H225.615L203.571 65.1813L227.331 101.613H209.907L191.559 73.4973H179.943V101.613H165.027Z" fill="#B36037"/>
<path d="M296.366 198.299C300.062 199.531 302.79 201.555 304.55 204.371C306.31 207.099 307.19 210.179 307.19 213.611C307.19 213.787 307.19 213.963 307.19 214.139C307.19 218.539 306.31 222.191 304.55 225.095C302.79 227.999 300.414 230.331 297.422 232.091C294.518 233.763 291.35 234.907 287.918 235.523C284.574 236.139 281.142 236.447 277.622 236.447C274.19 236.447 270.67 236.139 267.062 235.523C263.542 234.819 260.286 233.631 257.294 231.959C254.39 230.287 251.97 228.087 250.034 225.359C248.098 222.631 246.998 219.199 246.734 215.063H261.254C261.606 216.823 262.354 218.275 263.498 219.419C264.73 220.563 266.138 221.487 267.722 222.191C269.306 222.895 270.978 223.379 272.738 223.643C274.498 223.907 276.126 224.039 277.622 224.039C279.206 224.039 280.922 223.951 282.77 223.775C284.618 223.511 286.246 223.071 287.654 222.455C289.15 221.751 290.382 220.827 291.35 219.683C292.318 218.451 292.802 216.867 292.802 214.931C292.802 211.587 291.526 209.343 288.974 208.199C286.51 207.055 283.386 206.483 279.602 206.483H267.986V194.603H278.414C281.67 194.603 284.442 193.943 286.73 192.623C289.018 191.303 290.162 189.015 290.162 185.759C290.162 184.087 289.722 182.723 288.842 181.667C288.05 180.523 287.038 179.643 285.806 179.027C284.574 178.411 283.21 178.015 281.714 177.839C280.218 177.575 278.898 177.443 277.754 177.443C276.258 177.443 274.718 177.575 273.134 177.839C271.55 178.015 270.054 178.411 268.646 179.027C267.238 179.643 266.05 180.479 265.082 181.535C264.114 182.591 263.542 183.955 263.366 185.627H248.978C249.33 181.491 250.43 178.103 252.278 175.463C254.126 172.735 256.414 170.579 259.142 168.995C261.87 167.411 264.862 166.311 268.118 165.695C271.462 165.079 274.762 164.771 278.018 164.771C281.274 164.771 284.442 165.079 287.522 165.695C290.69 166.311 293.594 167.455 296.234 169.127C298.874 170.799 300.898 172.823 302.306 175.199C303.802 177.487 304.55 180.479 304.55 184.175C304.55 187.519 303.758 190.379 302.174 192.755C300.678 195.131 298.742 196.979 296.366 198.299ZM313.961 165.959H343.661C346.741 165.959 349.865 166.135 353.033 166.487C356.201 166.751 359.061 167.499 361.613 168.731C364.253 169.963 366.365 171.767 367.949 174.143C369.621 176.431 370.501 179.555 370.589 183.515C370.589 186.595 369.885 189.455 368.477 192.095C367.069 194.735 364.825 196.891 361.745 198.563C365.969 199.707 369.049 201.731 370.985 204.635C373.009 207.451 374.021 210.839 374.021 214.799C374.021 218.495 373.273 221.707 371.777 224.435C370.281 227.075 368.301 229.231 365.837 230.903C363.373 232.487 360.513 233.675 357.257 234.467C354.001 235.171 350.569 235.523 346.961 235.523H313.961V165.959ZM329.141 178.499V194.471H338.249C340.273 194.471 342.341 194.471 344.453 194.471C346.653 194.383 348.589 194.075 350.261 193.547C352.021 193.019 353.429 192.183 354.485 191.039C355.629 189.895 356.201 188.267 356.201 186.155C356.201 184.307 355.761 182.899 354.881 181.931C354.089 180.875 353.077 180.083 351.845 179.555C350.613 179.027 349.205 178.719 347.621 178.631C346.125 178.543 344.717 178.499 343.397 178.499H329.141ZM344.453 222.851C346.213 222.851 347.929 222.763 349.601 222.587C351.361 222.411 352.901 222.015 354.221 221.399C355.629 220.695 356.773 219.815 357.653 218.759C358.533 217.615 358.973 216.119 358.973 214.271C358.973 210.927 357.917 208.683 355.805 207.539C353.781 206.395 351.273 205.823 348.281 205.823H329.141V222.851H344.453ZM431.25 165.959H447.75L427.686 224.435C425.134 231.651 422.802 238.031 420.69 243.575C418.666 249.119 416.246 253.739 413.43 257.435C410.614 261.131 407.138 263.903 403.002 265.751C398.954 267.687 393.63 268.655 387.03 268.655H384.786V255.191C385.138 255.191 385.49 255.191 385.842 255.191C388.482 255.191 390.814 254.883 392.838 254.267C394.95 253.651 396.842 252.727 398.514 251.495C400.186 250.263 401.638 248.635 402.87 246.611C404.102 244.675 405.246 242.431 406.302 239.879L374.754 165.959H392.442L414.09 221.003L431.25 165.959ZM447.257 165.959H462.305V179.687C462.305 183.207 462.437 186.155 462.701 188.531C463.053 190.907 463.757 192.887 464.813 194.471C465.869 195.967 467.409 197.067 469.433 197.771C471.457 198.387 474.185 198.695 477.617 198.695C479.817 198.695 482.193 198.607 484.745 198.431C487.297 198.167 489.409 197.903 491.081 197.639V165.959H505.997V235.523H491.081V210.707C489.057 211.059 486.681 211.323 483.953 211.499C481.225 211.675 478.717 211.763 476.429 211.763C475.461 211.763 474.493 211.763 473.525 211.763C469.301 211.675 465.561 211.147 462.305 210.179C459.049 209.123 456.277 207.539 453.989 205.427C451.789 203.227 450.117 200.323 448.973 196.715C447.829 193.107 447.257 188.663 447.257 183.383V165.959ZM529.872 235.523H515.88V165.959H530.928V213.743L566.304 165.959H579.9V235.523H564.852V188.663C564.764 188.839 553.104 204.459 529.872 235.523ZM643.97 165.959V179.027H620.474V235.523H605.558V179.027H582.062V165.959H643.97Z" fill="#B36037"/>
<g clip-path="url(#clip0_407_6217)">
<path d="M146.733 178.954C146.733 179.928 145.97 180.718 145.029 180.718C144.087 180.718 143.324 179.928 143.324 178.954C143.324 177.98 144.087 177.19 145.029 177.19C145.97 177.19 146.733 177.98 146.733 178.954Z" fill="#B36037"/>
<path d="M163.139 178.954C163.139 179.928 162.375 180.718 161.434 180.718C160.493 180.718 159.73 179.928 159.73 178.954C159.73 177.98 160.493 177.19 161.434 177.19C162.375 177.19 163.139 177.98 163.139 178.954Z" fill="#B36037"/>
<path d="M101.591 192.978C102.669 193.049 104.164 192.661 105.238 192.596C105.817 192.561 107.623 192.266 107.623 192.266C107.623 192.266 109.3 192.699 110.217 193.425C112.641 195.344 118.516 203.94 119.178 204.914L119.215 204.97C119.644 200.423 123.466 196.433 127.893 195.984C127.845 195.794 127.789 195.581 127.727 195.359C127.386 194.119 127.158 192.619 127.05 190.897C126.535 190.478 126.016 190.09 125.504 189.743C122.196 187.5 113.576 183.182 113.576 183.182L113.516 182.819C113.18 173.044 105.93 169.729 102.279 170.66C100.738 175.046 103.707 178.22 103.707 178.22C103.707 178.22 99.5796 173.537 94.764 176.823C93.6564 182.669 99.6858 184.364 99.6858 184.364C99.6858 184.364 95.2934 183.559 93.504 188.049C94.3938 190.185 95.7169 192.595 101.591 192.978Z" fill="#B36037"/>
<path d="M141.893 201.161C142.958 201.86 144.091 202.425 145.25 202.9C146.419 203.353 147.615 203.716 148.838 203.959C149.447 204.086 150.063 204.18 150.681 204.257L151.61 204.352C151.915 204.367 152.221 204.403 152.524 204.401C153.123 204.39 153.748 204.371 154.362 204.296C154.977 204.24 155.589 204.139 156.198 204.019C156.808 203.901 157.408 203.738 158.008 203.567C158.603 203.381 159.196 203.18 159.78 202.951C160.943 202.477 162.084 201.919 163.173 201.252C163.48 201.069 163.782 200.876 164.082 200.678C163.502 199.479 162.834 198.625 161.766 198.318C159.208 197.583 157.748 201.024 152.862 201.144C148.599 201.248 147.129 197.42 144.402 198.317C143.2 198.712 142.461 199.7 141.796 201.095C141.829 201.117 141.86 201.14 141.893 201.161Z" fill="#B36037"/>
<path d="M145.378 206.177C147.652 207.21 150.066 207.891 152.479 207.831C154.907 207.775 157.321 207.078 159.632 206.114C160.786 205.621 161.924 205.064 163.034 204.44C163.738 204.054 164.429 203.641 165.113 203.209C164.835 202.476 164.58 201.794 164.314 201.183C164.066 201.406 163.812 201.624 163.554 201.835C163.036 202.248 162.498 202.636 161.941 202.997C161.385 203.357 160.802 203.675 160.21 203.977C157.832 205.175 155.194 205.814 152.504 205.83C152.166 205.828 151.832 205.788 151.496 205.768C151.166 205.732 150.838 205.701 150.511 205.655C149.857 205.553 149.203 205.445 148.56 205.279C147.271 204.968 146.012 204.513 144.823 203.917C143.635 203.326 142.518 202.592 141.507 201.733C141.27 202.283 141.035 202.882 140.784 203.524C141.203 203.814 141.627 204.096 142.056 204.363C143.131 205.045 144.243 205.652 145.378 206.177Z" fill="#B36037"/>
<path d="M165.424 243.049C164.018 244.471 162.481 245.692 160.857 246.678C159.919 247.23 159.051 247.66 158.2 247.994C157.124 248.399 156.214 248.664 155.33 248.83C154.658 248.952 154.014 249.033 153.402 249.074C153.037 249.098 152.683 249.108 152.344 249.103C151.164 249.096 150.198 248.994 149.303 248.78C148.16 248.51 147.143 248.062 146.278 247.448C145.864 247.171 145.447 246.797 144.972 246.274C144.561 245.777 144.229 245.278 143.979 244.782C143.487 243.806 143.18 242.706 143.068 241.511C142.449 241.859 141.802 242.194 141.141 242.507C140.332 242.888 139.515 243.229 138.711 243.52C137.853 243.82 136.992 244.066 136.149 244.252C135.232 244.456 134.326 244.577 133.462 244.614C132.44 244.658 131.535 244.603 130.693 244.445C129.715 244.269 128.806 243.975 127.992 243.573C127.12 243.133 126.326 242.592 125.631 241.962C124.88 241.256 124.264 240.515 123.797 239.759C123.322 238.986 122.938 238.105 122.652 237.139C122.413 236.315 122.261 235.413 122.189 234.383C122.126 233.482 122.146 232.564 122.249 231.653C122.434 229.942 122.83 228.207 123.425 226.497C124.028 224.756 124.744 223.164 125.554 221.768L126.048 222.021C125.748 222.802 125.477 223.608 125.241 224.415C124.981 225.295 124.776 226.092 124.613 226.853C124.208 228.776 124.018 230.336 124.016 231.763C123.994 233.517 124.232 235.08 124.724 236.412C124.975 237.075 125.324 237.739 125.761 238.384C126.142 238.928 126.629 239.446 127.246 239.965C127.781 240.395 128.397 240.763 129.07 241.057C129.654 241.302 130.325 241.479 131.117 241.594C131.761 241.689 132.468 241.699 133.285 241.63C134.062 241.56 134.806 241.434 135.493 241.254C136.868 240.908 138.329 240.356 139.836 239.612C140.5 239.285 141.179 238.913 141.912 238.475C142.643 238.04 143.317 237.598 143.859 237.198L147.175 234.751L146.311 238.888C146.287 238.999 146.251 239.224 146.23 239.41C146.205 239.615 146.191 239.825 146.181 240.003C146.162 240.388 146.169 240.783 146.203 241.176C146.269 241.965 146.457 242.674 146.759 243.283C147.34 244.474 148.465 245.311 150.013 245.704C151.469 246.06 153.188 246.12 154.853 245.87C155.573 245.768 156.34 245.579 157.269 245.277C158.062 244.996 158.847 244.658 159.597 244.275C161.066 243.498 162.5 242.491 163.855 241.28C165.142 240.162 166.386 238.852 167.553 237.387C168.659 236.028 169.709 234.516 170.677 232.893C171.127 232.155 171.561 231.363 172.007 230.471C172.409 229.683 172.786 228.855 173.16 227.935L173.683 228.113C172.874 231.589 171.315 235.103 169.05 238.557L169.048 238.56C167.93 240.222 166.71 241.733 165.424 243.049ZM118.891 217.705C118.357 218.147 117.987 218.636 117.837 219.183C117.678 219.731 117.717 220.394 117.858 221.104C118.002 221.817 118.244 222.554 118.438 223.373C117.771 222.892 117.23 222.26 116.839 221.492C116.655 221.101 116.495 220.684 116.43 220.218C116.362 219.757 116.376 219.258 116.513 218.775C116.651 218.295 116.912 217.85 117.241 217.508C117.569 217.163 117.952 216.911 118.347 216.736C119.138 216.393 119.975 216.296 120.775 216.472C120.069 216.878 119.423 217.261 118.891 217.705ZM114.811 230.437C114.652 230.984 114.692 231.647 114.832 232.358C114.976 233.07 115.217 233.808 115.412 234.626C114.744 234.145 114.204 233.513 113.813 232.746C113.629 232.354 113.469 231.938 113.404 231.472C113.336 231.011 113.35 230.511 113.487 230.029C113.625 229.548 113.886 229.103 114.215 228.761C114.543 228.417 114.926 228.164 115.321 227.989C116.113 227.647 116.949 227.549 117.749 227.726C117.043 228.132 116.397 228.514 115.865 228.958C115.331 229.4 114.961 229.889 114.811 230.437ZM112.151 238.837C111.617 239.279 111.247 239.768 111.097 240.315C110.937 240.863 110.977 241.526 111.118 242.236C111.262 242.949 111.503 243.686 111.698 244.505C111.03 244.024 110.49 243.392 110.098 242.625C109.915 242.233 109.754 241.816 109.689 241.351C109.622 240.89 109.636 240.39 109.773 239.908C109.911 239.427 110.172 238.982 110.5 238.64C110.829 238.295 111.212 238.044 111.607 237.868C112.398 237.525 113.234 237.428 114.035 237.604C113.329 238.01 112.683 238.393 112.151 238.837ZM108.934 225.845C108.751 225.454 108.59 225.037 108.525 224.572C108.458 224.111 108.472 223.611 108.608 223.129C108.747 222.648 109.007 222.203 109.336 221.861C109.665 221.516 110.048 221.264 110.442 221.089C111.234 220.746 112.07 220.649 112.87 220.825C112.164 221.231 111.518 221.614 110.987 222.057C110.453 222.5 110.083 222.988 109.932 223.536C109.773 224.084 109.813 224.746 109.954 225.457C110.097 226.17 110.339 226.907 110.534 227.726C109.866 227.245 109.325 226.613 108.934 225.845ZM105.365 228.958C104.831 229.4 104.461 229.889 104.311 230.437C104.151 230.984 104.191 231.647 104.332 232.358C104.475 233.07 104.717 233.808 104.912 234.626C104.244 234.145 103.704 233.513 103.312 232.746C103.129 232.354 102.969 231.938 102.904 231.472C102.836 231.011 102.85 230.511 102.987 230.029C103.124 229.548 103.385 229.103 103.714 228.761C104.043 228.417 104.426 228.164 104.82 227.989C105.612 227.647 106.448 227.549 107.249 227.726C106.543 228.132 105.896 228.514 105.365 228.958ZM102.803 215.034C102.941 214.553 103.202 214.109 103.531 213.766C103.859 213.422 104.243 213.17 104.637 212.994C105.429 212.651 106.265 212.554 107.065 212.731C106.359 213.137 105.713 213.52 105.181 213.963C104.647 214.405 104.278 214.894 104.127 215.441C103.968 215.99 104.008 216.652 104.148 217.362C104.292 218.075 104.533 218.813 104.729 219.631C104.06 219.15 103.52 218.518 103.128 217.751C102.945 217.36 102.785 216.942 102.72 216.477C102.652 216.016 102.666 215.517 102.803 215.034ZM101.239 206.766C101.079 207.314 101.119 207.977 101.26 208.687C101.404 209.4 101.645 210.137 101.84 210.956C101.172 210.475 100.631 209.843 100.24 209.075C100.057 208.684 99.8965 208.267 99.8314 207.802C99.764 207.341 99.7777 206.841 99.9145 206.359C100.052 205.878 100.313 205.433 100.642 205.091C100.971 204.747 101.354 204.495 101.748 204.319C102.54 203.976 103.376 203.879 104.176 204.055C103.471 204.461 102.825 204.844 102.293 205.288C101.759 205.73 101.389 206.219 101.239 206.766ZM98.5788 225.507C98.0444 225.95 97.6746 226.438 97.5241 226.986C97.3651 227.534 97.405 228.197 97.5453 228.907C97.6891 229.62 97.9304 230.357 98.1255 231.176C97.4579 230.695 96.9172 230.063 96.5258 229.296C96.3428 228.904 96.1822 228.487 96.1172 228.022C96.0498 227.561 96.0635 227.061 96.2002 226.579C96.3385 226.097 96.5991 225.653 96.9282 225.311C97.2569 224.966 97.6397 224.714 98.0342 224.539C98.8261 224.196 99.6622 224.099 100.462 224.275C99.7566 224.681 99.1101 225.064 98.5788 225.507ZM94.6687 218.537C94.4853 218.146 94.3251 217.729 94.26 217.263C94.1923 216.802 94.2064 216.303 94.3431 215.82C94.4814 215.339 94.7424 214.894 95.0711 214.552C95.3994 214.208 95.783 213.956 96.1771 213.78C96.9686 213.437 97.805 213.34 98.6051 213.517C97.8995 213.923 97.253 214.306 96.7213 214.749C96.1877 215.191 95.8178 215.68 95.6674 216.228C95.5079 216.776 95.5475 217.438 95.6885 218.149C95.8323 218.861 96.0737 219.599 96.2684 220.417C95.6008 219.936 95.0601 219.304 94.6687 218.537ZM91.6205 207.063C91.0865 207.505 90.7162 207.994 90.5658 208.542C90.4067 209.089 90.4467 209.752 90.5869 210.462C90.7307 211.175 90.9725 211.913 91.1676 212.731C90.4996 212.25 89.9593 211.618 89.5675 210.851C89.3845 210.459 89.2243 210.043 89.1588 209.577C89.0914 209.116 89.1052 208.616 89.2423 208.134C89.3802 207.653 89.6407 207.208 89.9699 206.866C90.2982 206.521 90.6814 206.269 91.0759 206.094C91.8677 205.751 92.7038 205.654 93.5043 205.831C92.7982 206.236 92.1518 206.619 91.6205 207.063ZM91.6205 221.155C91.0865 221.597 90.7162 222.086 90.5658 222.633C90.4067 223.181 90.4467 223.844 90.5869 224.555C90.7307 225.267 90.9725 226.004 91.1676 226.823C90.4996 226.342 89.9593 225.71 89.5675 224.943C89.3845 224.551 89.2243 224.134 89.1588 223.669C89.0914 223.208 89.1052 222.708 89.2423 222.226C89.3802 221.745 89.6407 221.3 89.9699 220.958C90.2982 220.613 90.6814 220.362 91.0759 220.186C91.8677 219.843 92.7038 219.746 93.5043 219.923C92.7982 220.328 92.1518 220.711 91.6205 221.155ZM87.2249 201.838C86.6913 202.28 86.3214 202.768 86.171 203.316C86.0111 203.864 86.0511 204.527 86.1917 205.237C86.3355 205.95 86.5773 206.687 86.772 207.506C86.1044 207.025 85.5637 206.393 85.1723 205.625C84.9889 205.234 84.8287 204.817 84.7636 204.352C84.6959 203.89 84.71 203.391 84.8467 202.908C84.9846 202.427 85.2456 201.983 85.5743 201.64C85.903 201.296 86.2866 201.044 86.6803 200.869C87.4721 200.526 88.3086 200.429 89.1087 200.605C88.4027 201.011 87.7566 201.394 87.2249 201.838ZM86.544 214.749C86.01 215.191 85.6397 215.68 85.4893 216.228C85.3302 216.776 85.3701 217.438 85.5108 218.149C85.6542 218.861 85.8959 219.599 86.0911 220.417C85.4234 219.936 84.8828 219.304 84.4913 218.537C84.308 218.146 84.1477 217.729 84.0827 217.263C84.0149 216.802 84.029 216.303 84.1658 215.82C84.3037 215.339 84.5642 214.894 84.8933 214.552C85.2221 214.208 85.6048 213.956 85.9994 213.78C86.7912 213.437 87.6273 213.34 88.4274 213.517C87.7217 213.923 87.0753 214.306 86.544 214.749ZM110.596 212.37C110.734 211.889 110.995 211.444 111.324 211.102C111.653 210.758 112.036 210.506 112.43 210.33C113.222 209.987 114.058 209.89 114.858 210.066C114.153 210.472 113.506 210.855 112.975 211.299C112.441 211.741 112.071 212.23 111.92 212.777C111.761 213.325 111.801 213.988 111.942 214.698C112.085 215.411 112.327 216.148 112.522 216.967C111.854 216.486 111.313 215.854 110.922 215.087C110.739 214.696 110.578 214.278 110.513 213.813C110.446 213.352 110.46 212.852 110.596 212.37ZM141.111 206.764C141.31 207.574 141.502 208.319 141.78 208.964C142.056 209.612 142.418 210.107 142.891 210.398C143.362 210.697 143.991 210.827 144.691 210.868C145.393 210.907 146.144 210.855 146.958 210.869C146.338 211.414 145.609 211.793 144.792 211.988C144.38 212.071 143.949 212.124 143.498 212.071C143.05 212.02 142.587 211.878 142.171 211.617C141.757 211.356 141.409 210.982 141.173 210.565C140.936 210.148 140.798 209.7 140.736 209.26C140.618 208.381 140.741 207.519 141.111 206.764ZM151.325 212.203C151.939 212.515 152.523 212.655 153.066 212.564C153.614 212.481 154.176 212.162 154.739 211.729C155.301 211.292 155.844 210.753 156.478 210.223C156.34 211.053 156.016 211.827 155.511 212.52C155.246 212.858 154.949 213.185 154.57 213.443C154.195 213.702 153.751 213.901 153.271 213.978C152.792 214.052 152.292 213.996 151.853 213.833C151.412 213.671 151.03 213.419 150.709 213.124C150.073 212.528 149.633 211.785 149.448 210.96C150.103 211.449 150.712 211.893 151.325 212.203ZM160.992 210.185C161.673 210.252 162.267 210.167 162.743 209.882C163.226 209.603 163.643 209.099 164.02 208.488C164.396 207.872 164.718 207.169 165.128 206.44C165.285 207.266 165.248 208.11 165.013 208.943C164.882 209.356 164.716 209.771 164.45 210.152C164.189 210.532 163.843 210.88 163.42 211.128C162.997 211.374 162.511 211.506 162.045 211.515C161.578 211.526 161.133 211.43 160.732 211.273C159.932 210.949 159.266 210.417 158.81 209.714C159.59 209.93 160.312 210.121 160.992 210.185ZM81.1137 207.063C80.5796 207.505 80.2098 207.994 80.0593 208.542C79.8999 209.089 79.9398 209.752 80.0805 210.462C80.2243 211.175 80.4656 211.913 80.6603 212.731C79.9927 212.25 79.4524 211.618 79.0606 210.851C78.8773 210.459 78.717 210.043 78.652 209.577C78.5846 209.116 78.5987 208.616 78.735 208.134C78.8737 207.653 79.1343 207.208 79.463 206.866C79.7913 206.521 80.1749 206.269 80.5694 206.094C81.3609 205.751 82.197 205.654 82.9974 205.831C82.2914 206.236 81.6453 206.619 81.1137 207.063ZM79.7098 217.015C79.1754 217.458 78.8056 217.946 78.6551 218.494C78.496 219.042 78.5356 219.704 78.6767 220.415C78.8201 221.128 79.0618 221.865 79.2565 222.683C78.5889 222.203 78.0482 221.571 77.6568 220.803C77.4735 220.412 77.3132 219.995 77.2482 219.53C77.1804 219.068 77.1949 218.569 77.3312 218.087C77.4695 217.605 77.7301 217.16 78.0592 216.819C78.3875 216.474 78.7711 216.222 79.1652 216.047C79.9567 215.704 80.7932 215.606 81.5932 215.783C80.8872 216.189 80.2411 216.572 79.7098 217.015ZM75.0024 205.288C74.4684 205.73 74.0981 206.219 73.9477 206.766C73.7886 207.314 73.8286 207.977 73.9688 208.687C74.1126 209.4 74.3544 210.137 74.5495 210.956C73.8815 210.475 73.3412 209.843 72.9494 209.075C72.7664 208.684 72.6061 208.267 72.5407 207.802C72.4733 207.341 72.487 206.841 72.6242 206.359C72.7621 205.878 73.0226 205.433 73.3517 205.091C73.6801 204.747 74.0632 204.495 74.4578 204.319C75.2496 203.976 76.0857 203.879 76.8858 204.055C76.1801 204.461 75.5337 204.844 75.0024 205.288ZM212.987 198.403C210.838 197.061 208.227 197.301 206.863 197.562C206.555 197.621 206.331 197.268 206.506 197C207.411 195.614 208.913 192.6 207.395 189.561C207.34 189.451 207.231 189.376 207.112 189.365C201.606 188.822 199.336 193.719 198.864 194.923C199.26 193.768 200.564 189.073 196.843 186.069C196.752 185.996 196.627 185.971 196.517 186.007C192.309 187.382 191.006 193.257 191.003 193.283C190.476 197.086 191.352 197.914 191.005 198.94C190.881 199.31 186.106 202.029 186.106 202.029C186.116 202.044 186.124 202.058 186.132 202.072C186.716 203.014 187.377 204.081 187.352 206.395C187.297 211.557 182.745 216.027 177.813 216.26C173.295 216.472 168.11 209.288 168.106 209.281C166.713 207.273 165.896 205.26 165.228 203.51C164.643 204.048 164.028 204.554 163.397 205.037C162.873 205.426 162.334 205.796 161.784 206.152C161.233 206.505 160.661 206.824 160.083 207.132C158.925 207.75 157.702 208.25 156.436 208.627C155.802 208.815 155.153 208.955 154.5 209.074C153.842 209.172 153.179 209.245 152.51 209.26C149.808 209.318 147.188 208.464 144.906 207.171C143.754 206.532 142.68 205.766 141.67 204.932C141.307 204.623 140.954 204.302 140.608 203.975C139.95 205.651 139.161 207.582 137.934 209.626C135.789 213.197 132.639 216.26 128.715 216.26C123.935 216.26 119.563 211.945 119.2 207.043C119.188 206.884 119.082 206.749 118.932 206.712L118.452 206.593C111.205 204.797 94.2373 200.498 93.2112 199.382C93.1356 199.302 85.3016 191.149 73.7094 192.357C68.6063 192.886 66.1235 193.408 64.923 193.77C64.6519 193.852 64.5766 194.21 64.791 194.4C66.6058 196.004 70.1108 199.092 71.3634 200.133C71.4198 200.18 71.4868 200.206 71.5593 200.211C72.5031 200.275 78.1313 200.579 80.8919 200.728C81.3119 200.75 81.3499 201.377 80.9358 201.454C79.4799 201.728 76.5947 202.187 70.8752 203.425C69.4592 203.731 68.2368 203.996 67.8243 204.099C66.9972 204.305 66.1999 204.445 65.4413 204.516C65.4813 204.551 65.5209 204.585 65.5589 204.619C66.7805 205.718 67.9234 206.893 68.9601 208.115C69.9596 209.271 70.9347 210.516 71.9393 211.918C72.1039 212.161 72.2594 212.384 72.4142 212.607C72.7147 213.037 73.0207 213.476 73.311 213.948C73.6993 214.55 74.0809 215.217 74.5452 216.105C75.2543 217.515 75.8577 219.03 76.3933 220.743C76.6683 221.641 76.9061 222.584 77.1157 223.608C77.151 223.778 77.2944 223.902 77.4625 223.899C79.1872 223.868 81.6011 224.978 83.4186 226.232C85.9978 228.011 101.214 237.198 101.367 237.29L103.331 238.475C103.683 238.688 103.467 239.246 103.071 239.148C103.071 239.148 92.2619 235.818 91.894 235.736C91.8117 235.717 91.7259 235.727 91.6518 235.768C88.3008 237.619 83.5181 240.695 80.6259 243.143C79.0446 244.482 78.5834 245.667 78.449 246.263C78.4204 246.388 78.4541 246.519 78.5415 246.61C79.28 247.39 81.8095 249.489 88.2224 250.223C98.6051 251.412 111.822 247.275 111.842 247.25C112.015 247.043 121.788 253.384 138.91 255.537C151.825 257.162 163.103 254.905 171.672 244.505C176.833 238.241 180.422 228.071 187.132 220.329C188.826 218.374 197.528 210.407 200.601 208.155C200.63 208.134 200.661 208.118 200.696 208.106L200.989 208.009C201.021 207.998 201.053 207.992 201.086 207.991C201.608 207.977 206.217 207.779 209.047 205.333C211.73 203.015 212.78 200.126 213.139 198.813C213.183 198.657 213.12 198.487 212.987 198.403Z" fill="#B36037"/>
<path d="M166.036 179.475C165.789 180.085 165.404 180.601 164.957 181.004C164.057 181.819 162.925 182.187 161.848 182.242C160.764 182.286 159.699 182.012 158.824 181.463C157.951 180.919 157.268 180.043 157.113 179.02C156.948 177.999 157.328 176.944 157.99 176.142C158.652 175.334 159.578 174.724 160.621 174.41C161.661 174.109 162.849 174.088 163.952 174.568C164.5 174.806 165.022 175.171 165.442 175.671C165.864 176.166 166.165 176.807 166.273 177.483C166.376 178.161 166.284 178.867 166.036 179.475ZM156.975 190.108C156.545 190.516 156.018 190.853 155.441 191.116C154.855 191.371 154.207 191.514 153.554 191.553C152.895 191.564 152.205 191.498 151.591 191.24C150.979 190.998 150.423 190.65 150.003 190.216C149.155 189.357 148.664 188.301 148.599 187.217C149.368 188.017 150.134 188.705 150.948 189.183C151.764 189.662 152.591 189.865 153.459 189.825C153.68 189.802 153.904 189.804 154.119 189.747C154.342 189.725 154.553 189.652 154.773 189.597C155.204 189.458 155.636 189.279 156.061 189.045C156.911 188.572 157.733 187.946 158.583 187.217C158.412 188.293 157.829 189.292 156.975 190.108ZM149.414 179.02C149.259 180.043 148.575 180.919 147.703 181.463C146.828 182.012 145.764 182.286 144.679 182.242C143.602 182.187 142.47 181.819 141.57 181.004C141.122 180.601 140.738 180.085 140.491 179.475C140.242 178.867 140.151 178.161 140.253 177.483C140.362 176.807 140.663 176.166 141.085 175.671C141.504 175.171 142.027 174.806 142.575 174.568C143.678 174.088 144.866 174.109 145.906 174.41C146.948 174.724 147.875 175.334 148.537 176.142C149.198 176.944 149.579 177.999 149.414 179.02ZM146.162 168.797C147.065 168.797 148.007 169.025 148.888 169.492C149.328 169.72 149.745 170.025 150.11 170.392C150.206 170.478 150.287 170.58 150.371 170.679C150.455 170.778 150.54 170.876 150.611 170.985C150.684 171.09 150.763 171.198 150.829 171.304L151.005 171.617C151.25 172.033 151.428 172.47 151.606 172.905C151.691 173.125 151.751 173.349 151.823 173.57C151.896 173.792 151.961 174.013 152.005 174.239C152.227 175.135 152.33 176.038 152.374 176.936C152.446 178.729 152.267 180.513 151.745 182.208C151.494 180.457 151.266 178.764 150.924 177.126C150.747 176.311 150.568 175.504 150.311 174.742C150.062 173.979 149.783 173.233 149.4 172.585L149.267 172.334C149.221 172.258 149.173 172.193 149.127 172.122C149.033 171.983 148.926 171.855 148.813 171.732C148.594 171.479 148.326 171.271 148.035 171.084C147.453 170.706 146.745 170.458 145.993 170.293C144.475 169.972 141.713 169.962 140.011 170.03C140.762 169.59 143.025 168.795 146.162 168.797ZM150.152 161.478C152.263 160.235 153.003 157.268 153.263 155.409C153.523 157.268 154.264 160.235 156.374 161.478C156.429 161.51 156.49 161.545 156.548 161.579C154.386 161.11 151.879 161.102 150.094 161.511C150.114 161.5 150.134 161.489 150.152 161.478ZM154.895 183.2V183.475C154.895 183.751 154.706 183.976 154.474 183.976H152.251C152.019 183.976 151.831 183.751 151.831 183.475V183.2C151.831 182.923 152.019 182.699 152.251 182.699H154.474C154.706 182.699 154.895 182.923 154.895 183.2ZM160.364 168.797C162.747 168.795 166.041 169.59 166.792 170.03C165.09 169.962 162.051 169.972 160.534 170.293C159.782 170.458 159.074 170.706 158.491 171.084C158.2 171.271 157.933 171.479 157.714 171.732C157.601 171.855 157.494 171.983 157.4 172.122C157.354 172.193 157.306 172.258 157.26 172.334L157.127 172.585C156.744 173.233 156.464 173.979 156.216 174.742C155.959 175.504 155.78 176.311 155.602 177.126C155.261 178.764 155.032 180.457 154.782 182.208C154.26 180.513 154.08 178.729 154.153 176.936C154.197 176.038 154.3 175.135 154.521 174.239C154.566 174.013 154.63 173.792 154.704 173.57C154.776 173.349 154.836 173.125 154.92 172.905C155.099 172.47 155.277 172.033 155.521 171.617L155.697 171.304C155.764 171.198 155.842 171.09 155.915 170.985C155.987 170.876 156.072 170.778 156.156 170.679C156.239 170.58 156.321 170.478 156.417 170.392C156.782 170.025 157.198 169.72 157.638 169.492C158.519 169.025 159.461 168.797 160.364 168.797ZM178.509 171.596L178.461 171.6L178.377 171.608L178.318 171.62L178.201 171.641C178.119 171.668 178.039 171.678 177.956 171.715C177.623 171.838 177.287 172.047 176.972 172.297C176.66 172.554 176.369 172.853 176.106 173.178C175.582 173.833 175.172 174.598 174.938 175.414C174.712 176.229 174.644 177.104 174.847 177.96C174.946 178.388 175.101 178.81 175.308 179.217C175.511 179.627 175.778 180.007 176.056 180.395C175.666 180.136 175.295 179.83 174.972 179.462C174.657 179.091 174.378 178.671 174.17 178.206C173.759 177.271 173.647 176.177 173.833 175.15C174.013 174.119 174.443 173.148 175.056 172.318C175.361 171.901 175.713 171.517 176.117 171.182C176.128 171.174 176.14 171.165 176.151 171.156C174.441 167.114 171.889 162.487 167.883 159.669C159.604 153.845 154.183 153.763 153.263 153.796C152.343 153.763 146.923 153.845 138.644 159.669C134.678 162.458 132.138 167.02 130.428 171.033C130.493 171.082 130.559 171.131 130.622 171.182C131.026 171.517 131.378 171.901 131.683 172.318C132.297 173.148 132.726 174.119 132.906 175.15C133.092 176.177 132.981 177.271 132.569 178.206C132.362 178.671 132.083 179.091 131.767 179.462C131.444 179.83 131.073 180.136 130.684 180.395C130.962 180.007 131.229 179.627 131.432 179.217C131.638 178.81 131.793 178.388 131.892 177.96C132.096 177.104 132.027 176.229 131.801 175.414C131.567 174.598 131.157 173.833 130.633 173.178C130.37 172.853 130.079 172.554 129.767 172.297C129.453 172.047 129.117 171.838 128.784 171.715C128.7 171.678 128.62 171.668 128.538 171.641L128.421 171.62L128.362 171.608L128.109 171.584C124.858 171.999 122.344 174.749 122.344 178.083C122.344 181.704 125.308 184.639 128.964 184.639C130.896 184.639 132.628 183.814 133.838 182.507C136.22 180.714 136.181 176.719 137.318 172.389C137.406 172.057 137.521 171.73 137.661 171.409C137.514 171.909 137.396 172.43 137.32 172.976C135.896 183.19 138.175 190.654 145.292 194.68C147.259 195.794 148.747 196.599 149.872 197.181C152.816 198.707 153.724 198.707 156.788 197.112C157.896 196.536 159.344 195.75 161.235 194.68C168.353 190.654 170.63 183.19 169.207 172.976C169.13 172.432 169.015 171.914 168.869 171.416C169.007 171.735 169.122 172.059 169.208 172.389C170.346 176.719 170.306 180.714 172.689 182.507C173.899 183.814 175.631 184.639 177.563 184.639C181.219 184.639 184.182 181.704 184.182 178.083C184.182 174.781 181.716 172.05 178.509 171.596Z" fill="#B36037"/>
<path d="M137.527 189.824C137.245 189.367 136.894 188.797 136.588 188.076C136.142 187.027 135.818 185.529 135.613 184.364C134.914 185.226 133.885 186.227 132.611 186.695C131.702 187.029 130.02 187.318 129.14 187.455C129.08 188.861 129.011 192.576 129.771 195.326C130.082 196.453 130.337 197.52 130.528 198.498L130.581 198.767C131.23 199.028 131.842 199.407 132.363 199.906C133.237 200.733 133.842 201.849 134.095 203.043C134.342 204.237 134.247 205.52 133.749 206.654C133.501 207.218 133.152 207.74 132.719 208.169C132.281 208.606 131.8 208.929 131.276 209.191C130.752 209.453 130.161 209.62 129.561 209.628C128.961 209.636 128.358 209.475 127.852 209.164C127.352 208.843 126.944 208.391 126.703 207.86C126.584 207.595 126.502 207.312 126.481 207.025C126.464 206.738 126.502 206.447 126.621 206.201C126.538 206.747 126.738 207.259 127.032 207.657C127.331 208.057 127.724 208.366 128.159 208.538C129.031 208.906 129.982 208.696 130.769 208.197C131.167 207.946 131.55 207.632 131.843 207.293C132.14 206.943 132.384 206.549 132.547 206.115C132.879 205.252 132.939 204.271 132.745 203.347C132.553 202.421 132.103 201.555 131.459 200.884C130.816 200.207 129.973 199.742 129.042 199.506C128.581 199.382 128.127 199.346 127.643 199.344C124.351 199.879 121.826 202.833 121.826 206.387C121.826 210.318 124.916 213.516 128.715 213.516C131.25 213.516 133.002 211.947 134.153 210.756C138.909 205.83 137.397 197.322 137.707 194.591C137.886 193.016 138.004 191.975 138.113 191.484C138.224 190.984 138.014 190.614 137.527 189.824Z" fill="#B36037"/>
<path d="M178.914 199.35C178.523 199.363 178.148 199.404 177.768 199.506C176.838 199.742 175.994 200.208 175.351 200.884C174.707 201.555 174.257 202.421 174.065 203.347C173.87 204.271 173.931 205.252 174.263 206.115C174.425 206.549 174.67 206.944 174.967 207.293C175.261 207.632 175.643 207.946 176.04 208.197C176.828 208.697 177.779 208.906 178.651 208.538C179.085 208.366 179.479 208.057 179.778 207.657C180.072 207.259 180.272 206.747 180.189 206.201C180.308 206.447 180.346 206.739 180.329 207.025C180.308 207.313 180.225 207.595 180.107 207.86C179.866 208.391 179.458 208.843 178.958 209.164C178.453 209.475 177.85 209.636 177.249 209.628C176.649 209.62 176.058 209.453 175.534 209.191C175.01 208.929 174.529 208.606 174.091 208.169C173.658 207.74 173.308 207.218 173.061 206.654C172.563 205.52 172.468 204.237 172.715 203.043C172.969 201.849 173.573 200.733 174.447 199.906C174.885 199.487 175.387 199.15 175.921 198.899L176 198.498C176.191 197.522 176.445 196.455 176.757 195.326C177.518 192.572 177.449 188.861 177.388 187.456C176.508 187.318 174.826 187.029 173.916 186.695C172.643 186.227 171.614 185.226 170.914 184.364C170.71 185.529 170.386 187.027 169.94 188.076C169.634 188.797 169.283 189.367 169.001 189.824C168.514 190.615 168.304 190.985 168.415 191.484C168.508 191.905 168.572 192.7 168.666 193.904C168.884 196.664 167.381 201.624 169.168 205.83C170.967 210.067 174.705 213.516 177.813 213.516C181.612 213.516 184.702 210.319 184.702 206.387C184.702 202.844 182.191 199.897 178.914 199.35Z" fill="#B36037"/>
<path d="M49.0857 167.732C40.3827 158.881 32.5263 154.954 19.2879 155.544C19.2879 155.544 16.8681 163.646 22.1351 172.043L25.7608 177.823C25.9578 177.919 26.1549 178.014 26.3512 178.112C28.9159 179.406 31.3976 180.924 33.6939 182.683C34.2749 183.113 34.8289 183.579 35.3947 184.029C35.9416 184.501 36.5054 184.954 37.0371 185.444C38.124 186.396 39.1599 187.406 40.168 188.441C44.2113 192.571 47.7422 197.171 50.9091 201.997L51.7707 201.999C52.7141 202.002 53.658 202.011 54.6014 202.037C55.5453 202.063 56.4891 202.098 57.4329 202.153C58.1531 202.191 58.8728 202.248 59.5929 202.308V202.302C59.5965 201.387 59.6215 200.474 59.6431 199.56C59.1079 193.78 59.3994 178.22 49.0857 167.732Z" fill="#B36037"/>
<path d="M53.4249 212.162C53.1283 211.138 52.8325 210.113 52.5645 209.083C52.2926 208.053 52.0383 207.019 51.7934 205.984C51.5489 204.948 51.3197 203.908 51.0964 202.867L50.9099 201.997C50.8445 201.92 50.7786 201.843 50.7132 201.765C50.4311 201.712 50.149 201.664 49.8658 201.62C49.2279 201.516 48.5873 201.433 47.9459 201.372C46.6628 201.247 45.3769 201.186 44.0934 201.206C41.5271 201.226 38.973 201.536 36.4874 202.117C34.0058 202.716 31.5821 203.56 29.2991 204.715C27.6296 205.544 26.026 206.513 24.5066 207.609C22.1578 210.993 18.1497 218.026 18.8616 225.813C19.8579 236.715 24.6982 243.933 24.6982 243.933C24.6982 243.933 38.6482 233.326 39.3601 225.077C40.0716 216.827 43.5582 212.945 45.3385 212.26C47.1855 211.549 50.2466 211.2 53.5346 212.52C53.4981 212.4 53.4617 212.281 53.4249 212.162Z" fill="#B36037"/>
<path d="M25.7129 205.141C26.6955 204.539 27.706 203.985 28.7439 203.491C31.1487 202.363 33.6782 201.513 36.2691 201.026C38.8566 200.521 41.4965 200.36 44.109 200.506C45.4149 200.589 46.7152 200.736 47.998 200.981C48.8662 201.146 49.7278 201.348 50.5733 201.602C46.968 197.349 43.2964 193.177 39.2793 189.413C37.1953 187.495 35.0687 185.628 32.7802 184.004C31.6459 183.18 30.4846 182.398 29.2881 181.68C28.4269 181.154 27.5489 180.658 26.6567 180.186C23.8119 179.256 13.7693 176.35 13.3098 181.506C12.2876 192.981 23.4248 203.176 25.7129 205.141Z" fill="#B36037"/>
<path d="M73.4213 225.057C72.9437 224.928 72.5288 224.938 72.0908 225.054C71.6535 225.168 71.1885 225.388 70.7034 225.665C70.2145 225.94 69.7141 226.265 69.1143 226.556C69.2675 225.891 69.5837 225.306 70.0166 224.795C70.4507 224.291 71.0341 223.855 71.7577 223.667C72.1166 223.576 72.5065 223.549 72.8826 223.619C73.2583 223.686 73.6125 223.842 73.9071 224.056C74.4952 224.488 74.878 225.112 74.9697 225.794C74.4075 225.447 73.8997 225.184 73.4213 225.057ZM71.9043 236.938C71.7781 237.673 71.3953 238.297 70.8382 238.674C70.9017 237.999 70.9154 237.412 70.8217 236.91C70.7316 236.408 70.5451 236.024 70.2575 235.663C69.9711 235.303 69.5805 234.961 69.1319 234.625C68.6837 234.284 68.1857 233.955 67.6756 233.517C68.3228 233.377 68.9685 233.424 69.6001 233.611C70.225 233.803 70.855 234.163 71.3283 234.76C71.5611 235.057 71.7499 235.411 71.8498 235.793C71.9509 236.173 71.9662 236.571 71.9043 236.938ZM66.2181 229.558C65.6661 229.627 65.0854 229.74 64.4237 229.783C64.8025 229.221 65.3036 228.798 65.8874 228.486C66.47 228.183 67.1674 227.999 67.9075 228.098C68.2735 228.149 68.6457 228.273 68.9709 228.48C69.2965 228.686 69.5711 228.965 69.7694 229.276C70.1635 229.901 70.2979 230.627 70.1416 231.297C69.7412 230.76 69.3623 230.323 68.9623 230.023C68.5642 229.722 68.1736 229.574 67.7254 229.515C67.2783 229.456 66.7678 229.483 66.2181 229.558ZM66.2808 237.718C66.1813 238.098 65.9991 238.449 65.7656 238.733C65.2958 239.299 64.6599 239.635 63.995 239.667C64.381 239.12 64.6807 238.621 64.8468 238.14C65.0157 237.66 65.0439 237.231 64.9734 236.769C64.9036 236.308 64.7348 235.808 64.513 235.283C64.2944 234.753 64.0272 234.208 63.8027 233.563C64.4296 233.782 64.9624 234.162 65.4141 234.655C65.858 235.149 66.2244 235.791 66.3388 236.554C66.3936 236.932 66.3823 237.336 66.2808 237.718ZM63.4505 213.783C62.9662 214.061 62.5395 214.353 62.2143 214.676C61.8876 214.999 61.6584 215.358 61.5114 215.845C61.3618 216.332 61.3081 216.917 61.294 217.595C60.7839 217.152 60.4751 216.486 60.4336 215.74C60.414 215.369 60.4743 214.975 60.6181 214.61C60.7611 214.243 60.9892 213.915 61.2536 213.648C61.7916 213.113 62.4588 212.833 63.101 212.718C63.7494 212.609 64.3959 212.642 65.0227 212.86C64.4668 213.233 63.9343 213.499 63.4505 213.783ZM59.4 211.962C59.3397 211.28 59.4576 210.623 59.7099 209.995C59.9654 209.374 60.3834 208.767 61.0099 208.349C61.3218 208.143 61.683 207.99 62.0607 207.93C62.4376 207.87 62.8212 207.9 63.1668 208.005C63.8575 208.219 64.4135 208.683 64.7113 209.299C64.0711 209.157 63.5088 209.076 63.0163 209.115C62.5242 209.15 62.134 209.298 61.7551 209.553C61.3767 209.806 61.0037 210.168 60.6307 210.592C60.2518 211.014 59.8788 211.488 59.4 211.962ZM58.6956 206.39C58.2117 206.669 57.7847 206.961 57.4595 207.283C57.1323 207.606 56.9035 207.965 56.7566 208.453C56.6069 208.94 56.5532 209.524 56.5391 210.202C56.029 209.76 55.7203 209.093 55.6787 208.348C55.6591 207.976 55.7195 207.583 55.8637 207.217C56.0063 206.851 56.2343 206.522 56.4992 206.256C57.0371 205.721 57.7039 205.44 58.3461 205.326C58.9949 205.217 59.641 205.249 60.2683 205.468C59.7115 205.84 59.1795 206.107 58.6956 206.39ZM65.3036 221.87C65.4725 221.516 65.724 221.206 66.0073 220.96C66.5829 220.469 67.2681 220.241 67.9169 220.177C68.5716 220.119 69.2134 220.201 69.8227 220.468C69.2408 220.796 68.6911 221.02 68.1881 221.266C67.6846 221.505 67.2384 221.764 66.89 222.06C66.5406 222.357 66.2863 222.697 66.1045 223.171C65.9199 223.645 65.8236 224.224 65.7605 224.898C65.2837 224.418 65.0247 223.729 65.0372 222.983C65.0447 222.611 65.1336 222.223 65.3036 221.87ZM65.956 216.69C66.2118 216.07 66.6295 215.464 67.2564 215.045C67.5682 214.84 67.9295 214.686 68.3072 214.626C68.6841 214.566 69.0681 214.596 69.4132 214.701C70.104 214.915 70.6595 215.38 70.9577 215.995C70.3175 215.853 69.7556 215.773 69.2628 215.811C68.7707 215.846 68.3804 215.994 68.0012 216.249C67.6227 216.502 67.2501 216.864 66.8767 217.288C66.4979 217.71 66.1253 218.184 65.6465 218.659C65.5857 217.977 65.7045 217.319 65.956 216.69ZM59.5646 235.562C59.4294 235.931 59.2147 236.262 58.9557 236.52C58.4346 237.036 57.7702 237.306 57.1053 237.271C57.5413 236.765 57.8869 236.299 58.0977 235.837C58.3112 235.376 58.3794 234.952 58.3528 234.485C58.3269 234.02 58.2066 233.505 58.0354 232.96C57.8681 232.411 57.6534 231.841 57.4912 231.176C58.0942 231.458 58.5886 231.89 58.9918 232.427C59.3867 232.963 59.6904 233.639 59.7323 234.409C59.7507 234.792 59.7013 235.193 59.5646 235.562ZM59.554 240.419C59.375 241.067 59.0329 241.724 58.4613 242.219C58.1768 242.463 57.8368 242.662 57.4689 242.769C57.1021 242.877 56.7178 242.897 56.3624 242.837C55.6517 242.714 55.0444 242.324 54.6746 241.752C55.3269 241.81 55.8946 241.818 56.3785 241.717C56.8628 241.619 57.2326 241.421 57.5782 241.12C57.923 240.82 58.2493 240.413 58.5694 239.945C58.8946 239.477 59.2077 238.959 59.6257 238.427C59.7675 239.095 59.7291 239.764 59.554 240.419ZM52.904 221.043C52.7786 220.683 52.7128 220.285 52.7399 219.89C52.7653 219.496 52.8778 219.116 53.0529 218.79C53.4063 218.139 53.9662 217.681 54.6119 217.514C54.3372 218.13 54.1378 218.68 54.0661 219.185C53.9917 219.69 54.0453 220.116 54.202 220.555C54.358 220.993 54.6178 221.449 54.9347 221.919C55.2493 222.394 55.6149 222.874 55.9573 223.461C55.301 223.373 54.7067 223.109 54.1699 222.717C53.6414 222.323 53.1607 221.768 52.904 221.043ZM52.9221 228.419C52.4437 228.877 51.8223 229.253 51.0849 229.37C50.7194 229.425 50.3291 229.413 49.9608 229.307C49.5929 229.202 49.2544 229.013 48.9809 228.77C48.4356 228.283 48.1119 227.623 48.0833 226.936C48.6115 227.336 49.0922 227.648 49.5569 227.821C50.02 227.997 50.4345 228.028 50.8816 227.956C51.3266 227.885 51.8101 227.712 52.3183 227.484C52.8304 227.259 53.3585 226.984 53.9826 226.754C53.7687 227.402 53.4 227.952 52.9221 228.419ZM53.4698 234.614C53.2182 235.236 52.8033 235.845 52.1788 236.267C51.8681 236.474 51.5077 236.631 51.1304 236.692C50.7542 236.755 50.3699 236.727 50.0239 236.624C49.3324 236.414 48.7741 235.953 48.4724 235.339C49.1134 235.477 49.676 235.555 50.1681 235.513C50.6602 235.475 51.0496 235.325 51.4273 235.068C51.8042 234.812 52.1749 234.448 52.5463 234.022C52.9224 233.598 53.2927 233.122 53.7687 232.644C53.8334 233.326 53.7182 233.984 53.4698 234.614ZM46.7269 220.614C46.6027 220.241 46.5632 219.845 46.6023 219.474C46.6831 218.733 47.0267 218.085 47.5591 217.673C47.5376 218.35 47.5603 218.936 47.6841 219.431C47.8052 219.927 48.0144 220.298 48.3239 220.639C48.6323 220.979 49.0425 221.295 49.5118 221.6C49.9796 221.91 50.4968 222.207 51.0328 222.61C50.3953 222.793 49.7485 222.788 49.1063 222.643C48.4712 222.493 47.8201 222.175 47.3111 221.61C47.0607 221.329 46.8504 220.989 46.7269 220.614ZM75.9198 226.42C75.883 226.242 75.8493 226.063 75.8109 225.886C75.4747 224.355 75.0649 222.844 74.5379 221.383C74.0251 219.918 73.4135 218.494 72.6828 217.143C72.3188 216.467 71.9407 215.799 71.5191 215.163C71.116 214.522 70.6352 213.89 70.196 213.254C69.7353 212.629 69.2816 211.998 68.8118 211.381C68.3346 210.771 67.8625 210.155 67.3602 209.569C66.3619 208.391 65.3456 207.229 64.2391 206.17C63.6843 205.645 63.1213 205.127 62.5364 204.647C62.2441 204.406 61.9475 204.171 61.6431 203.954C61.4911 203.843 61.3296 203.732 61.1706 203.628C61.1451 203.631 61.1192 203.634 61.0934 203.637C60.1499 203.717 59.2061 203.797 58.2626 203.848C57.3184 203.903 56.375 203.937 55.4311 203.964C54.7713 203.982 54.1115 203.99 53.4514 203.995C53.6065 204.751 53.7581 205.507 53.9008 206.266C54.0963 207.312 54.2828 208.361 54.452 209.415C54.6248 210.467 54.7702 211.525 54.9143 212.584C54.9457 212.847 54.9778 213.109 55.0088 213.372C56.4588 214.047 57.9402 215.056 59.3707 216.515C59.7284 216.879 62.0043 219.187 62.965 222.334C63.3921 223.733 63.5586 225.168 63.4269 226.201C63.0716 229 61.8656 229.474 61.5698 229.841C61.0189 230.525 60.2377 230.952 59.3707 230.952C57.6996 230.952 56.3452 229.369 56.3452 227.416C56.3452 225.464 57.6996 223.881 59.3707 223.881C60.3282 223.881 61.1812 224.402 61.7348 225.215C61.6035 224.352 61.4448 223.513 61.2007 222.726C60.9261 221.837 59.3989 219.616 59.0717 219.267C58.7379 218.916 58.3947 218.576 58.0448 218.242C56.6426 216.913 55.0895 215.734 53.2849 215.079C51.4693 214.419 47.8769 214.985 46.6854 216.921C45.119 219.465 43.8511 222.734 44.1748 228.005C44.744 237.286 50.1528 241.706 55.705 243.621C61.2568 245.536 68.2316 243.474 72.2173 239.202C76.0468 235.097 75.9343 229.226 75.9198 226.42Z" fill="#B36037"/>
</g>
<path d="M233.449 71.1537C233.183 71.1537 232.967 71.5066 232.967 71.942V75.1734C232.967 75.6088 233.183 75.9617 233.449 75.9617C233.715 75.9617 233.93 75.6088 233.93 75.1734V71.942C233.93 71.5066 233.715 71.1537 233.449 71.1537Z" fill="black"/>
<path d="M237.117 71.6345C236.852 71.6345 236.636 72.0285 236.636 72.5147V74.6007C236.636 75.0862 236.852 75.4809 237.117 75.4809C237.383 75.4809 237.599 75.0862 237.599 74.6007V72.5147C237.599 72.0285 237.383 71.6345 237.117 71.6345Z" fill="black"/>
<path d="M240.786 66.3458C240.52 66.3458 240.305 66.6651 240.305 67.0591V80.0563C240.305 80.4503 240.52 80.7696 240.786 80.7696C241.052 80.7696 241.268 80.4503 241.268 80.0563V67.0591C241.268 66.6651 241.052 66.3458 240.786 66.3458Z" fill="black"/>
<path d="M244.455 57.6914C244.189 57.6914 243.974 58.0296 243.974 58.447V88.6684C243.974 89.0857 244.189 89.4239 244.455 89.4239C244.721 89.4239 244.936 89.0857 244.936 88.6684V58.447C244.936 58.0296 244.721 57.6914 244.455 57.6914Z" fill="black"/>
<path d="M248.124 52.8835C247.858 52.8835 247.642 53.2129 247.642 53.6194V93.496C247.642 93.9025 247.858 94.2319 248.124 94.2319C248.39 94.2319 248.605 93.9025 248.605 93.496V53.6194C248.605 53.2129 248.39 52.8835 248.124 52.8835Z" fill="black"/>
<path d="M251.793 62.4994C251.527 62.4994 251.311 62.8092 251.311 63.1915V83.9239C251.311 84.3062 251.527 84.616 251.793 84.616C252.058 84.616 252.274 84.3062 252.274 83.9239V63.1915C252.274 62.8092 252.058 62.4994 251.793 62.4994Z" fill="black"/>
<path d="M255.461 66.8266C255.196 66.8266 254.98 67.1505 254.98 67.5502V79.5652C254.98 79.9649 255.196 80.2888 255.461 80.2888C255.727 80.2888 255.943 79.9649 255.943 79.5652V67.5502C255.943 67.1505 255.727 66.8266 255.461 66.8266Z" fill="black"/>
<path d="M259.13 70.1921C258.864 70.1921 258.649 70.4736 258.649 70.8209V76.2945C258.649 76.6418 258.864 76.9233 259.13 76.9233C259.396 76.9233 259.612 76.6418 259.612 76.2945V70.8209C259.612 70.4736 259.396 70.1921 259.13 70.1921Z" fill="black"/>
<path d="M262.799 71.1537C262.533 71.1537 262.318 71.4981 262.318 71.923V75.1924C262.318 75.6173 262.533 75.9617 262.799 75.9617C263.065 75.9617 263.28 75.6173 263.28 75.1924V71.923C263.28 71.4981 263.065 71.1537 262.799 71.1537Z" fill="black"/>
<path d="M266.468 61.057C266.202 61.057 265.986 61.3899 265.986 61.8007V85.3147C265.986 85.7255 266.202 86.0584 266.468 86.0584C266.734 86.0584 266.949 85.7255 266.949 85.3147V61.8007C266.949 61.3899 266.734 61.057 266.468 61.057Z" fill="black"/>
<path d="M270.137 47.5947C269.871 47.5947 269.655 47.9275 269.655 48.3382V98.7772C269.655 99.1879 269.871 99.5206 270.137 99.5206C270.402 99.5206 270.618 99.1879 270.618 98.7772V48.3382C270.618 47.9275 270.402 47.5947 270.137 47.5947Z" fill="black"/>
<path d="M273.805 60.0954C273.54 60.0954 273.324 60.4223 273.324 60.8258V86.2896C273.324 86.693 273.54 87.02 273.805 87.02C274.071 87.02 274.287 86.693 274.287 86.2896V60.8258C274.287 60.4223 274.071 60.0954 273.805 60.0954Z" fill="black"/>
<path d="M277.474 63.461C277.208 63.461 276.993 63.7895 276.993 64.1949V82.9204C276.993 83.3259 277.208 83.6544 277.474 83.6544C277.74 83.6544 277.956 83.3259 277.956 82.9204V64.1949C277.956 63.7895 277.74 63.461 277.474 63.461Z" fill="black"/>
<path d="M281.143 67.3074C280.877 67.3074 280.661 67.6342 280.661 68.0375V79.0778C280.661 79.4812 280.877 79.808 281.143 79.808C281.409 79.808 281.624 79.4812 281.624 79.0778V68.0375C281.624 67.6342 281.409 67.3074 281.143 67.3074Z" fill="black"/>
<path d="M284.812 61.5378C284.546 61.5378 284.33 61.8627 284.33 62.2636V84.8517C284.33 85.2527 284.546 85.5776 284.812 85.5776C285.078 85.5776 285.293 85.2527 285.293 84.8517V62.2636C285.293 61.8627 285.078 61.5378 284.812 61.5378Z" fill="black"/>
<path d="M288.48 47.1139C288.215 47.1139 287.999 47.4484 287.999 47.8611V99.2543C287.999 99.667 288.215 100.001 288.48 100.001C288.746 100.001 288.962 99.667 288.962 99.2543V47.8611C288.962 47.4484 288.746 47.1139 288.48 47.1139Z" fill="black"/>
<path d="M292.149 43.2676C291.883 43.2676 291.668 43.5971 291.668 44.0026V103.113C291.668 103.518 291.883 103.848 292.149 103.848C292.415 103.848 292.631 103.518 292.631 103.113V44.0026C292.631 43.5971 292.415 43.2676 292.149 43.2676Z" fill="black"/>
<path d="M295.818 53.3643C295.552 53.3643 295.337 53.687 295.337 54.0839V93.0315C295.337 93.429 295.552 93.7511 295.818 93.7511C296.084 93.7511 296.299 93.429 296.299 93.0315V54.0839C296.299 53.687 296.084 53.3643 295.818 53.3643Z" fill="black"/>
<path d="M299.487 64.9034C299.221 64.9034 299.005 65.2459 299.005 65.6686V81.4468C299.005 81.8695 299.221 82.212 299.487 82.212C299.753 82.212 299.968 81.8695 299.968 81.4468V65.6686C299.968 65.2459 299.753 64.9034 299.487 64.9034Z" fill="black"/>
<path d="M303.156 59.1338C302.89 59.1338 302.674 59.4639 302.674 59.8712V87.2441C302.674 87.6515 302.89 87.9816 303.156 87.9816C303.422 87.9816 303.637 87.6515 303.637 87.2441V59.8712C303.637 59.4639 303.422 59.1338 303.156 59.1338Z" fill="black"/>
<path d="M306.824 69.2305C306.559 69.2305 306.343 69.5543 306.343 69.9538V77.1616C306.343 77.5611 306.559 77.8849 306.824 77.8849C307.09 77.8849 307.306 77.5611 307.306 77.1616V69.9538C307.306 69.5543 307.09 69.2305 306.824 69.2305Z" fill="black"/>
<path d="M310.493 71.1537C310.227 71.1537 310.012 71.5366 310.012 72.0092V75.1062C310.012 75.5787 310.227 75.9617 310.493 75.9617C310.759 75.9617 310.975 75.5787 310.975 75.1062V72.0092C310.975 71.5366 310.759 71.1537 310.493 71.1537Z" fill="black"/>
<path d="M314.162 71.6345C313.896 71.6345 313.681 72.005 313.681 72.4608V74.6552C313.681 75.111 313.896 75.4809 314.162 75.4809C314.428 75.4809 314.643 75.111 314.643 74.6552V72.4608C314.643 72.005 314.428 71.6345 314.162 71.6345Z" fill="black"/>
<path d="M317.831 66.8266C317.565 66.8266 317.349 67.1502 317.349 67.5496V79.5663C317.349 79.9652 317.565 80.2888 317.831 80.2888C318.097 80.2888 318.312 79.9652 318.312 79.5663V67.5496C318.312 67.1502 318.097 66.8266 317.831 66.8266Z" fill="black"/>
<path d="M321.5 69.7113C321.234 69.7113 321.018 70.017 321.018 70.393V76.7224C321.018 77.0984 321.234 77.4041 321.5 77.4041C321.765 77.4041 321.981 77.0984 321.981 76.7224V70.393C321.981 70.017 321.765 69.7113 321.5 69.7113Z" fill="black"/>
<path d="M325.168 62.4994C324.902 62.4994 324.687 62.8407 324.687 63.2618V83.8536C324.687 84.2747 324.902 84.616 325.168 84.616C325.434 84.616 325.65 84.2747 325.65 83.8536V63.2618C325.65 62.8407 325.434 62.4994 325.168 62.4994Z" fill="black"/>
<path d="M328.837 51.4411C328.571 51.4411 328.356 51.7677 328.356 52.1708V94.9446C328.356 95.3477 328.571 95.6743 328.837 95.6743C329.103 95.6743 329.319 95.3477 329.319 94.9446V52.1708C329.319 51.7677 329.103 51.4411 328.837 51.4411Z" fill="black"/>
<path d="M332.506 56.7299C332.24 56.7299 332.025 57.0707 332.025 57.49V89.6254C332.025 90.0453 332.24 90.3855 332.506 90.3855C332.772 90.3855 332.987 90.0453 332.987 89.6254V57.49C332.987 57.0707 332.772 56.7299 332.506 56.7299Z" fill="black"/>
<path d="M336.175 60.0954C335.909 60.0954 335.693 60.4223 335.693 60.8258V86.2896C335.693 86.693 335.909 87.02 336.175 87.02C336.44 87.02 336.656 86.693 336.656 86.2896V60.8258C336.656 60.4223 336.44 60.0954 336.175 60.0954Z" fill="black"/>
<path d="M339.844 56.7299C339.578 56.7299 339.362 57.0707 339.362 57.49V89.6254C339.362 90.0453 339.578 90.3855 339.844 90.3855C340.109 90.3855 340.325 90.0453 340.325 89.6254V57.49C340.325 57.0707 340.109 56.7299 339.844 56.7299Z" fill="black"/>
<path d="M343.512 70.6729C343.246 70.6729 343.031 71.0357 343.031 71.4833V75.6321C343.031 76.0797 343.246 76.4425 343.512 76.4425C343.778 76.4425 343.994 76.0797 343.994 75.6321V71.4833C343.994 71.0357 343.778 70.6729 343.512 70.6729Z" fill="black"/>
<path d="M347.181 67.3074C346.915 67.3074 346.7 67.6342 346.7 68.0375V79.0778C346.7 79.4812 346.915 79.808 347.181 79.808C347.447 79.808 347.663 79.4812 347.663 79.0778V68.0375C347.663 67.6342 347.447 67.3074 347.181 67.3074Z" fill="black"/>
<path d="M350.85 63.9418C350.584 63.9418 350.368 64.2786 350.368 64.693V82.4224C350.368 82.8373 350.584 83.1736 350.85 83.1736C351.116 83.1736 351.331 82.8373 351.331 82.4224V64.693C351.331 64.2786 351.116 63.9418 350.85 63.9418Z" fill="black"/>
<path d="M354.519 67.3074C354.253 67.3074 354.037 67.6361 354.037 68.0418V79.0736C354.037 79.4793 354.253 79.808 354.519 79.808C354.785 79.808 355 79.4793 355 79.0736V68.0418C355 67.6361 354.785 67.3074 354.519 67.3074Z" fill="black"/>
<path d="M358.187 71.6345C357.922 71.6345 357.706 72.0072 357.706 72.4672V74.6482C357.706 75.1082 357.922 75.4809 358.187 75.4809C358.453 75.4809 358.669 75.1082 358.669 74.6482V72.4672C358.669 72.0072 358.453 71.6345 358.187 71.6345Z" fill="black"/>
<path d="M361.856 72.1153C361.59 72.1153 361.375 72.472 361.375 72.9122V74.2032C361.375 74.6434 361.59 75.0001 361.856 75.0001C362.122 75.0001 362.338 74.6434 362.338 74.2032V72.9122C362.338 72.472 362.122 72.1153 361.856 72.1153Z" fill="black"/>
<path d="M365.525 69.2305C365.259 69.2305 365.044 69.5375 365.044 69.9163V77.1991C365.044 77.5779 365.259 77.8849 365.525 77.8849C365.791 77.8849 366.006 77.5779 366.006 77.1991V69.9163C366.006 69.5375 365.791 69.2305 365.525 69.2305Z" fill="black"/>
<path d="M369.194 56.2491C368.928 56.2491 368.712 56.5832 368.712 56.9954V90.1199C368.712 90.5322 368.928 90.8663 369.194 90.8663C369.46 90.8663 369.675 90.5322 369.675 90.1199V56.9954C369.675 56.5832 369.46 56.2491 369.194 56.2491Z" fill="black"/>
<path d="M372.863 61.057C372.597 61.057 372.381 61.3856 372.381 61.7897V85.3256C372.381 85.7304 372.597 86.0584 372.863 86.0584C373.129 86.0584 373.344 85.7304 373.344 85.3256V61.7897C373.344 61.3856 373.129 61.057 372.863 61.057Z" fill="black"/>
<path d="M376.531 46.1524C376.266 46.1524 376.05 46.48 376.05 46.8843V100.231C376.05 100.635 376.266 100.963 376.531 100.963C376.797 100.963 377.013 100.635 377.013 100.231V46.8843C377.013 46.48 376.797 46.1524 376.531 46.1524Z" fill="black"/>
<path d="M380.2 54.3259C379.935 54.3259 379.719 54.6445 379.719 55.0366V92.0788C379.719 92.4714 379.935 92.7895 380.2 92.7895C380.466 92.7895 380.682 92.4714 380.682 92.0788V55.0366C380.682 54.6445 380.466 54.3259 380.2 54.3259Z" fill="black"/>
<path d="M383.869 61.057C383.603 61.057 383.388 61.3772 383.388 61.7722V85.3431C383.388 85.7382 383.603 86.0584 383.869 86.0584C384.135 86.0584 384.35 85.7382 384.35 85.3431V61.7722C384.35 61.3772 384.135 61.057 383.869 61.057Z" fill="black"/>
<path d="M387.538 53.3643C387.272 53.3643 387.056 53.689 387.056 54.0898V93.0256C387.056 93.4264 387.272 93.7511 387.538 93.7511C387.804 93.7511 388.019 93.4264 388.019 93.0256V54.0898C388.019 53.689 387.804 53.3643 387.538 53.3643Z" fill="black"/>
<path d="M391.207 65.865C390.941 65.865 390.725 66.199 390.725 66.6111V80.5043C390.725 80.9164 390.941 81.2504 391.207 81.2504C391.473 81.2504 391.688 80.9164 391.688 80.5043V66.6111C391.688 66.199 391.473 65.865 391.207 65.865Z" fill="black"/>
<path d="M394.875 62.4994C394.609 62.4994 394.394 62.8201 394.394 63.216V83.8994C394.394 84.2952 394.609 84.616 394.875 84.616C395.141 84.616 395.357 84.2952 395.357 83.8994V63.216C395.357 62.8201 395.141 62.4994 394.875 62.4994Z" fill="black"/>
<path d="M398.544 71.1537C398.278 71.1537 398.063 71.5492 398.063 72.0371V75.0782C398.063 75.5662 398.278 75.9617 398.544 75.9617C398.81 75.9617 399.026 75.5662 399.026 75.0782V72.0371C399.026 71.5492 398.81 71.1537 398.544 71.1537Z" fill="black"/>
<path d="M402.213 69.7113C401.947 69.7113 401.732 70.0135 401.732 70.3865V76.7289C401.732 77.1018 401.947 77.4041 402.213 77.4041C402.479 77.4041 402.694 77.1018 402.694 76.7289V70.3865C402.694 70.0135 402.479 69.7113 402.213 69.7113Z" fill="black"/>
<path d="M405.882 65.3842C405.616 65.3842 405.4 65.7109 405.4 66.1128V81.0026C405.4 81.4051 405.616 81.7312 405.882 81.7312C406.148 81.7312 406.363 81.4051 406.363 81.0026V66.1128C406.363 65.7109 406.148 65.3842 405.882 65.3842Z" fill="black"/>
<path d="M409.551 68.2689C409.285 68.2689 409.069 68.586 409.069 68.9772V78.1382C409.069 78.5294 409.285 78.8464 409.551 78.8464C409.816 78.8464 410.032 78.5294 410.032 78.1382V68.9772C410.032 68.586 409.816 68.2689 409.551 68.2689Z" fill="black"/>
<path d="M413.219 70.1921C412.953 70.1921 412.738 70.482 412.738 70.8397V76.2757C412.738 76.6334 412.953 76.9233 413.219 76.9233C413.485 76.9233 413.701 76.6334 413.701 76.2757V70.8397C413.701 70.482 413.485 70.1921 413.219 70.1921Z" fill="black"/>
<path d="M416.888 72.1153C416.622 72.1153 416.407 72.472 416.407 72.9122V74.2032C416.407 74.6434 416.622 75.0001 416.888 75.0001C417.154 75.0001 417.37 74.6434 417.37 74.2032V72.9122C417.37 72.472 417.154 72.1153 416.888 72.1153Z" fill="black"/>
<path d="M420.557 69.7113C420.291 69.7113 420.075 70.0137 420.075 70.3867V76.7286C420.075 77.1017 420.291 77.4041 420.557 77.4041C420.822 77.4041 421.038 77.1017 421.038 76.7286V70.3867C421.038 70.0137 420.822 69.7113 420.557 69.7113Z" fill="black"/>
<path d="M424.226 70.1921C423.96 70.1921 423.744 70.5417 423.744 70.9731V76.1423C423.744 76.5737 423.96 76.9233 424.226 76.9233C424.492 76.9233 424.707 76.5737 424.707 76.1423V70.9731C424.707 70.5417 424.492 70.1921 424.226 70.1921Z" fill="black"/>
<path d="M427.894 65.865C427.629 65.865 427.413 66.199 427.413 66.6111V80.5043C427.413 80.9164 427.629 81.2504 427.894 81.2504C428.16 81.2504 428.376 80.9164 428.376 80.5043V66.6111C428.376 66.199 428.16 65.865 427.894 65.865Z" fill="black"/>
<path d="M431.563 61.057C431.297 61.057 431.082 61.3772 431.082 61.7722V85.3431C431.082 85.7382 431.297 86.0584 431.563 86.0584C431.829 86.0584 432.045 85.7382 432.045 85.3431V61.7722C432.045 61.3772 431.829 61.057 431.563 61.057Z" fill="black"/>
<path d="M435.232 63.461C434.966 63.461 434.751 63.7895 434.751 64.1949V82.9205C434.751 83.3259 434.966 83.6544 435.232 83.6544C435.498 83.6544 435.713 83.3259 435.713 82.9205V64.1949C435.713 63.7895 435.498 63.461 435.232 63.461Z" fill="black"/>
<path d="M438.901 70.1921C438.635 70.1921 438.419 70.5632 438.419 71.021V76.0944C438.419 76.5516 438.635 76.9233 438.901 76.9233C439.167 76.9233 439.382 76.5516 439.382 76.0944V71.021C439.382 70.5632 439.167 70.1921 438.901 70.1921Z" fill="black"/>
<path d="M442.57 69.2305C442.304 69.2305 442.088 69.517 442.088 69.8704V77.245C442.088 77.5984 442.304 77.8849 442.57 77.8849C442.835 77.8849 443.051 77.5984 443.051 77.245V69.8704C443.051 69.517 442.835 69.2305 442.57 69.2305Z" fill="black"/>
<path d="M446.238 71.6345C445.973 71.6345 445.757 72.0531 445.757 72.568V74.5474C445.757 75.0623 445.973 75.4809 446.238 75.4809C446.504 75.4809 446.72 75.0623 446.72 74.5474V72.568C446.72 72.0531 446.504 71.6345 446.238 71.6345Z" fill="black"/>
<path d="M524.085 23.0474C524.075 23.7382 524.616 24.3074 525.291 24.3179C525.968 24.3284 526.525 23.7762 526.535 23.0853C526.545 22.3941 526.005 21.8252 525.328 21.8148C524.652 21.8043 524.096 22.3561 524.085 23.0474Z" fill="#B36037"/>
<path d="M505.497 22.759C505.487 23.4499 504.931 24.0021 504.254 23.9916C503.578 23.9811 503.038 23.4119 503.048 22.7211C503.058 22.0298 503.614 21.478 504.291 21.4885C504.967 21.4989 505.507 22.0678 505.497 22.759Z" fill="#B36037"/>
<path d="M493.395 38.3811C494.361 39.6501 494.581 41.2617 494.126 42.6775C494.492 42.4788 494.922 42.1592 495.419 41.6431C497.219 39.7714 497.01 33.7516 498.201 32.239C498.255 32.1696 498.307 32.1049 498.36 32.0398C498.054 31.5911 497.776 31.1129 497.522 30.6119C496.827 31.6731 494.319 35.1168 490.202 36.5917C491.421 36.7148 492.588 37.3222 493.395 38.3811ZM510.367 34.8095C511.643 35.4201 513.638 36.0224 514.552 36.0365C515.467 36.0507 517.479 35.5106 518.772 34.9398C521.357 33.7977 522.894 29.8806 522.894 29.8806C522.894 29.8806 521.788 31.0065 519.508 32.5473C517.228 34.0882 511.935 34.0061 509.701 32.3953C507.467 30.7845 506.394 29.6248 506.394 29.6248C506.394 29.6248 507.816 33.5878 510.367 34.8095ZM525.173 25.7793C528.664 25.7644 530.355 22.4665 530.355 22.4665C530.355 22.4665 528.903 18.7734 525.338 19.2032C521.773 19.6326 520.495 22.8678 520.495 22.8678C520.495 22.8678 521.683 25.7947 525.173 25.7793ZM539.058 34.8466C539.723 35.104 540.245 35.2111 540.66 35.2363C539.659 34.1445 539.189 32.5885 539.539 31.0265C539.867 29.5632 540.843 28.4229 542.089 27.8346C541.964 27.8147 541.84 27.7956 541.711 27.7692C538.155 27.037 535.563 24.7491 534.109 23.1192C533.894 24.7212 533.569 26.3259 533.101 27.8366C534.751 29.3238 536.863 33.9969 539.058 34.8466ZM534.384 14.8228C534.424 15.4746 534.452 16.1765 534.462 16.914C536.22 17.8052 538.817 23.0408 541.24 23.811C541.919 24.0272 542.447 24.102 542.863 24.1013C541.798 23.0735 541.235 21.5488 541.489 19.9686C541.592 19.3314 541.818 18.7456 542.139 18.232C538.729 17.9276 536.001 16.1637 534.384 14.8228ZM527.535 3.11541C527.535 3.11541 525.592 7.86103 526.536 9.01231C526.828 9.36777 528.059 9.38686 528.361 9.0406C529.338 7.91911 527.535 3.11541 527.535 3.11541ZM520.688 16.8295C519.64 17.6676 518.669 19.4623 517.972 20.6089C518.999 19.7685 520.061 19.0292 521.151 18.3538C522.247 17.7064 523.393 17.0942 524.548 16.6753C525.106 16.4528 525.705 16.3703 526.305 16.3121C526.911 16.2732 527.524 16.3226 528.142 16.4052C529.372 16.6183 530.598 17.0294 531.795 17.5925C530.842 16.6543 529.648 15.1494 528.336 14.7554C527.677 14.5671 526.986 14.4578 526.284 14.4589C525.585 14.4812 524.871 14.5679 524.206 14.8243C522.903 15.3004 521.754 15.9988 520.688 16.8295ZM517.47 22.3582C517.557 21.7675 517.687 21.1842 517.898 20.6078C517.563 21.1184 516.25 22.0554 516.22 24.1438C516.189 26.219 517.316 26.6169 517.794 27.745C517.684 27.1432 517.603 26.5427 517.528 25.9443C517.46 25.3452 517.404 24.7466 517.391 24.1476C517.378 23.5489 517.402 22.952 517.47 22.3582ZM511.481 27.6472C511.481 27.6472 512.839 30.6533 514.631 30.6061C516.315 30.5615 517.868 27.7462 517.868 27.7462L514.658 28.8051L511.481 27.6472ZM511.658 20.511C511.852 21.0937 511.965 21.6808 512.035 22.2739C512.086 22.8696 512.093 23.467 512.061 24.065C512.031 24.6633 511.957 25.2599 511.873 25.8566C511.779 26.4524 511.681 27.0502 511.554 27.6483C512.064 26.5355 513.209 25.7576 513.233 24.0975C513.271 21.5086 511.978 21.0318 511.658 20.511ZM508.983 16.3725C507.944 15.5092 506.814 14.7755 505.525 14.2592C504.868 13.982 504.157 13.8735 503.46 13.8296C502.758 13.8067 502.064 13.8946 501.399 14.0619C500.077 14.4155 498.835 16.1581 497.856 17.0664C499.069 16.5406 500.306 16.1678 501.542 15.9929C502.162 15.9294 502.777 15.899 503.381 15.9567C503.978 16.0334 504.575 16.1345 505.125 16.3742C506.269 16.8287 507.396 17.4762 508.472 18.1572C509.542 18.8661 510.582 19.638 511.585 20.5099C510.921 19.3422 510.007 17.2428 508.983 16.3725ZM502.536 2.72789C502.536 2.72789 500.594 7.47352 501.538 8.6248C501.829 8.98025 503.061 8.99934 503.362 8.65308C504.34 7.53159 502.536 2.72789 502.536 2.72789ZM486.89 17.7237C487.095 18.156 487.24 18.627 487.306 19.1286C487.515 20.7161 486.907 22.2226 485.813 23.2169C486.228 23.2305 486.758 23.1721 487.444 22.9771C489.928 22.271 492.727 16.957 494.507 16.2523C494.766 16.1501 495.003 16.0612 495.224 15.9824C495.262 15.236 495.316 14.5302 495.381 13.8796C493.966 15.1361 490.875 17.4273 486.89 17.7237ZM504.235 25.4548C507.724 25.5783 508.996 22.6896 508.996 22.6896C508.996 22.6896 507.814 19.4162 504.262 18.8765C500.711 18.3363 499.153 21.9828 499.153 21.9828C499.153 21.9828 500.746 25.3316 504.235 25.4548ZM487.706 33.3299C488.121 33.3176 488.647 33.2267 489.319 32.99C491.731 32.1407 494.178 26.7697 495.908 25.8703C495.613 24.5067 495.42 23.0975 495.305 21.7052C494.127 23.119 491.476 25.7956 487.674 26.7431C488.307 27.3785 488.765 28.2053 488.949 29.1567C489.253 30.7289 488.738 32.27 487.706 33.3299ZM480.932 15.453C479.511 13.84 479.072 11.9711 479.072 11.9711L479.078 11.972C478.803 11.3625 478.65 10.6858 478.66 9.97133C478.698 7.3952 480.791 5.33921 483.335 5.37865C485.88 5.4181 487.912 7.53804 487.875 10.1142C487.851 11.716 487.032 13.1158 485.806 13.9364C486.215 14.0114 486.748 14.0324 487.454 13.9416C490.014 13.6116 493.552 8.7705 495.415 8.33745C496.023 8.19596 496.526 8.10355 496.93 8.04234C498.537 4.60621 501.638 -0.990614 503.167 0.150973C505.062 1.56613 508.493 8.2623 508.493 8.2623C508.493 8.2623 513.342 8.20732 514.958 8.23237C516.574 8.25743 521.419 8.46269 521.419 8.46269C521.419 8.46269 525.043 1.87586 526.979 0.520101C528.507 -0.549741 531.348 4.86891 532.882 8.36729C533.132 8.42347 533.404 8.48958 533.705 8.56929C535.554 9.05987 538.95 14.0084 541.499 14.4173C542.202 14.5304 542.735 14.5258 543.146 14.4635C541.943 13.6053 541.166 12.1803 541.19 10.5789C541.227 8.0028 543.321 5.94681 545.865 5.98625C548.409 6.02569 550.259 8.14959 550.404 10.7218C550.526 12.8644 549.85 15.1108 548.173 16.5928C549.885 17.5 550.913 19.4407 550.585 21.4762C550.472 22.1815 550.203 22.8201 549.826 23.3712L549.832 23.3705C549.832 23.3705 548.47 26.5405 545.346 27.5952C547.653 28.2901 549.066 30.6839 548.526 33.0942C548.371 33.7912 548.064 34.4121 547.655 34.9383L547.661 34.9388C547.661 34.9388 544.935 40.3574 539.289 38.8262C534.624 37.561 531.831 33.6542 531.001 32.3342C530.876 32.5147 530.747 32.692 530.614 32.8628C529.9 33.778 529.063 34.595 528.152 35.3243C529.288 37.1521 529.728 42.5088 531.569 44.088C532.113 44.5535 532.571 44.8305 532.954 44.9926C532.367 43.6272 532.432 42.0017 533.273 40.6454C534.626 38.4641 537.47 37.8071 539.626 39.1776C541.781 40.5485 542.392 43.4029 541.079 45.6096C539.994 47.4313 535.712 50.5544 530.486 47.9195C526.448 45.8846 524.617 41.2809 524.683 38.5088C524.69 38.2378 524.907 37.4467 524.907 37.4467C524.4 37.7195 523.888 37.9731 523.377 38.2079C518.87 40.2835 516.804 40.9634 514.481 40.9274C512.16 40.8914 509.983 40.1893 506.06 38.1498C506.907 39.6098 508.968 43.7799 508.03 48.4373C506.862 54.2334 500.853 54.2812 500.853 54.2812L500.856 54.276C500.207 54.4113 499.522 54.4114 498.836 54.2419C496.364 53.6291 494.849 51.104 495.453 48.6021C496.057 46.0994 498.55 44.5674 501.022 45.1799C502.56 45.561 503.726 46.6814 504.243 48.0756C504.406 47.6889 504.545 47.1676 504.615 46.4501C504.831 44.2101 501.987 40.5065 501.193 38.2864C500.596 40.3895 499.368 43.2374 496.862 45.3525C492.375 49.1409 487.641 45.7925 487.641 45.7925C486.797 45.0156 486.529 44.6414 486.098 44.0758C484.543 42.0351 484.917 39.106 486.932 37.5335C487.109 37.3949 487.294 37.2776 487.484 37.1692C482.834 37.3514 480.717 32.8155 480.717 32.8155L480.722 32.8156C480.33 32.2766 480.041 31.6461 479.906 30.9449C479.523 28.9647 480.442 27.0366 482.057 26.0548C479.813 24.6594 478.868 22.2704 478.868 22.2704L478.874 22.2713C478.514 21.7088 478.264 21.0621 478.171 20.3536C477.891 18.2289 479.074 16.2535 480.932 15.453Z" fill="#B36037"/>
<path d="M599.006 35.4463L588.534 28.2169C588.534 28.2169 574.494 45.8171 573.195 54.3859C572.615 58.2144 571.644 61.9842 571.808 67.0603C571.981 72.3757 573.476 76.0444 577.058 80.4181C582.921 87.576 584.135 88.0105 584.135 88.0105C584.135 88.0105 588.876 87.1154 590.397 86.1472C590.881 85.8397 591.711 85.4262 591.901 84.0087C592.091 82.5911 591.839 80.5087 591.177 79.3898C590.233 77.7945 587.519 74.7641 585.641 70.1373C584.884 68.2731 583.993 66.1716 583.946 63.7583C583.918 62.2882 584.468 58.8896 585.817 55.8611C589.89 46.7193 599.006 35.4463 599.006 35.4463Z" fill="#B36037"/>
<path d="M551.25 92.6276C553.299 88.5024 560.656 83.3361 564.233 81.1199C568.27 78.6189 571.181 74.3586 571.839 75.8564C572.198 76.6736 573.743 79.636 575.8 82.2342C578.44 85.5709 581.675 88.581 581.675 88.581C581.675 88.581 579.721 89.8818 577.657 90.6211C573.158 92.2338 571.124 91.4792 567.785 92.495C560.61 94.6787 561.863 97.2393 562.02 98.0602C562.188 98.9411 563.217 102.792 563.217 102.792L561.464 102.765L560.674 99.2925C560.595 98.9464 560.253 98.729 559.915 98.8092L559.735 98.8524C559.396 98.9326 559.184 99.2814 559.262 99.628L559.97 102.741L558.434 102.718L557.707 99.5232C557.629 99.1766 557.287 98.9593 556.948 99.0399L556.769 99.0823C556.43 99.1628 556.217 99.5121 556.295 99.8582L556.941 102.694L555.404 102.671L554.741 99.7535C554.662 99.4073 554.32 99.19 553.981 99.2702L553.802 99.3129C553.463 99.3931 553.251 99.7424 553.329 100.089L553.911 102.648L552.551 102.626L552.201 101.788C552.201 101.788 549.201 96.7531 551.25 92.6276Z" fill="#B36037"/>
<path d="M502.032 99.1325C502.078 98.7803 501.833 98.4535 501.488 98.4062L501.192 98.3657C500.847 98.3185 500.527 98.5686 500.481 98.9204L500.103 101.813L498.483 101.788L498.826 99.1595C498.872 98.8077 498.628 98.4805 498.283 98.4336L497.987 98.3931C497.642 98.3458 497.322 98.5956 497.276 98.9482L496.908 101.764L495.288 101.739L495.621 99.1872C495.667 98.8342 495.423 98.5075 495.078 98.4606L494.781 98.4197C494.437 98.3732 494.116 98.6225 494.07 98.9752L493.713 101.714L491.043 101.673C491.043 101.673 491.817 96.3795 496.509 91.2249C499.372 88.0782 500.493 86.0211 505.553 83.1898C510.611 80.3582 519.194 81.0453 522.728 78.7446C526.264 76.4435 530.851 68.7549 535.729 69.1076C540.605 69.4603 543.259 73.9254 543.187 76.4244C543.062 80.747 541.318 85.6838 535.57 89.1974C529.823 92.7115 523.504 92.3365 520.505 91.7354C517.506 91.1348 515.356 89.7616 513.849 90.7543C512.344 91.7475 506.443 96.506 505.334 98.1517C504.225 99.7969 503.947 101.873 503.947 101.873L501.678 101.838L502.032 99.1325Z" fill="#B36037"/>
<path d="M473.746 86.2993C478.794 80.5578 486.392 79.2898 486.392 79.2898L493.881 86.9044C493.881 86.9044 485.074 90.9184 482.883 94.0621C480.113 98.0379 480.741 101.513 480.741 101.513L478.492 101.479L478.86 98.8545C478.91 98.5023 478.669 98.1736 478.324 98.1227L478.035 98.0807C477.69 98.0299 477.368 98.276 477.319 98.6282L476.922 101.454L475.307 101.429L475.669 98.8517C475.718 98.5 475.477 98.1708 475.132 98.1204L474.843 98.0776C474.499 98.0271 474.176 98.274 474.127 98.6254L473.737 101.405L472.122 101.38L472.477 98.849C472.526 98.4972 472.285 98.1681 471.94 98.1176L471.651 98.0748C471.307 98.0243 470.985 98.2709 470.935 98.6226L470.552 101.356L468.944 101.331C468.944 101.331 468.501 92.2661 473.746 86.2993Z" fill="#B36037"/>
<path d="M573.59 94.7758C576.875 92.71 584.631 90.1477 589.494 88.6265C590.169 88.4154 592.965 87.6127 593.515 86.2159C594.45 83.8417 593.904 80.2684 593.612 79.566C593.149 78.4506 589.738 73.8751 588.36 70.847C586.662 67.1189 585.13 65.5109 586.638 59.4834C587.913 54.3865 593.421 46.168 593.421 46.168C593.421 46.168 607.269 45.6832 612.453 52.2832C615.185 55.7614 618.983 60.1441 618.492 65.9563C618 71.7684 612.887 78.3409 611.211 81.6406C609.536 84.9403 608.909 90.75 608.621 91.8546C608.334 92.9589 604.774 95.2592 600.555 96.3021C596.336 97.3454 588.448 98.886 586.111 101.067C584.025 103.013 581.43 103.075 579.161 103.039L579.06 100.551C579.046 100.196 578.75 99.9174 578.403 99.932L578.218 99.9395C577.871 99.9541 577.598 100.256 577.612 100.612L577.709 103.015L576.216 102.992L576.104 100.213C576.089 99.8582 575.793 99.5797 575.445 99.5943L575.261 99.6014C574.914 99.616 574.641 99.9188 574.655 100.274L574.764 102.97C574.261 102.962 573.757 102.955 573.27 102.947L573.147 99.8757C573.132 99.5205 572.836 99.2416 572.488 99.2562L572.304 99.2637C571.957 99.2787 571.684 99.5807 571.698 99.9363L571.818 102.924C570.646 102.907 569.811 102.894 569.811 102.894C569.811 102.894 569.074 97.6155 573.59 94.7758Z" fill="#B36037"/>
<path d="M562.936 8.32226C563.683 9.22933 564.293 10.2449 564.816 11.3006C565.333 12.3602 565.759 13.4671 566.091 14.601C566.43 15.7325 566.688 16.8899 566.842 18.0604L567.047 19.8474C567.13 20.4496 567.209 21.0513 567.323 21.6459C567.542 22.8367 567.788 24.0198 568.089 25.1871C568.671 27.5277 569.38 29.8307 570.206 32.0881C569.642 29.749 569.227 23.2768 569.048 22.0967C568.953 21.5075 568.61 18.5286 568.61 18.5286C568.264 16.107 567.534 13.741 566.371 11.6026C565.788 10.536 565.093 9.52826 564.259 8.64979C563.418 7.78916 561.372 6.4627 560.246 6.07993C561.307 6.61419 562.201 7.40658 562.936 8.32226ZM557.598 10.5316C557.084 8.37127 555.41 5.11425 554.678 3.75027C556.797 3.25572 563.636 2.12767 568.658 6.63033C573.936 11.3617 576.259 15.3946 576.282 15.4348L577.392 17.3864L577.288 15.1318C577.285 15.0719 576.533 9.71198 580.423 8.83487C584.851 7.83674 585.669 11.6546 585.686 11.686L586.201 12.659C586.201 12.659 586.277 7.43485 591.396 8.30589C594.407 8.81848 594.489 11.5462 595.291 14.2248C595.871 16.1593 596.418 17.9867 597.535 18.8373C597.867 19.0899 598.343 19.475 598.946 19.9619C600.602 21.2994 603.105 23.3209 605.633 25.0345C608.681 27.1007 612.423 27.7416 614.396 27.2959C616.257 26.8756 617.582 26.0114 618.335 24.7267C619.344 23.0045 619.091 20.9481 618.7 19.5263C618.401 18.4377 617.535 17.5819 616.26 17.1158C614.155 16.3461 611.362 16.754 609.467 18.1076C607.815 19.2869 606.241 21.1769 605.567 22.0352L598.82 16.5727C599.459 15.2268 601.897 10.6581 606.05 9.38863C614.452 6.81999 621.053 9.87033 622.877 10.8668C625.667 12.392 630.379 16.7058 630.337 23.1992C630.315 26.5609 629.083 31.6489 625.679 34.9259C622.976 37.5281 619.273 38.7216 614.672 38.4722C604.548 37.9244 593.509 28.9368 588.204 24.6174C585.949 22.7823 585.013 22.0339 584.462 21.9387C583.167 21.7143 581.391 22.197 580.14 23.1114C579.075 23.8906 578.413 24.9303 578.225 26.1188C577.988 27.615 578.276 29.1422 578.53 30.4896C578.764 31.7269 578.984 32.8953 578.691 33.6158C578.213 34.7897 577.07 35.489 576.59 35.7403C575.919 35.3878 574.422 34.6823 573.15 34.6625C572.534 34.653 571.971 34.804 571.58 35.2343C571.091 35.7728 571.051 36.4457 571.016 37.0397C570.952 38.1079 570.907 38.8801 568.356 39.051C566.48 39.1768 563.36 37.3897 560.593 34.6032C556.959 30.9445 554.893 26.6825 555.066 23.2022C555.239 19.7363 556.099 17.2531 556.791 15.2581C557.431 13.4131 557.936 11.9561 557.598 10.5316Z" fill="#B36037"/>
<path d="M611.498 86.2921C611.955 84.2048 612.941 82.1536 613.34 81.3753C615.217 81.2475 621.492 79.3449 623.742 73.8902C626.54 67.1033 623.062 64.3869 622.749 64.0566C621.998 63.2661 620.661 62.4968 620.075 62.1795C619.814 61.1078 618.855 57.6287 616.812 54.9461C615.379 53.065 613.98 51.4731 613.015 50.4257C616.906 50.8417 623.751 52.0378 628.642 56.653C633.396 61.1383 634.357 68.6139 634.31 71.837C634.279 73.951 632.488 83.1082 626.809 86.8517C621.711 90.2121 613.34 91.2402 610.707 91.4884C610.89 90.0963 611.264 87.3665 611.498 86.2921Z" fill="#B36037"/>
<path d="M498.221 73.6463C502.519 74.2655 506.474 73.5 509.525 69.507C512.577 65.5143 511.519 57.131 511.519 57.131C511.519 57.131 509.55 69.059 502.749 69.5991C496.769 70.0746 495.436 67.5451 494.806 66.5603C493.998 65.297 494.853 62.9016 494.853 62.9016C494.567 63.5328 495.938 65.995 497.423 66.2512C498.907 66.5077 500.746 66.1793 501.539 64.908C502.33 63.6375 502.23 60.8465 498.118 59.9874C494.005 59.1288 491.215 63.034 491.245 66.032C491.275 69.03 493.922 73.0267 498.221 73.6463ZM518.128 67.6437C522.458 70.1135 526.394 69.2506 530.12 66.9756C533.845 64.7006 534.765 59.967 533.653 57.1926C532.54 54.4182 528.484 51.9251 525.021 54.3476C521.558 56.7696 522.526 59.3813 523.739 60.2389C524.953 61.0957 526.637 61.2144 528.184 60.2231C529.928 59.1051 529.641 56.207 529.137 55.7381C529.137 55.7381 530.802 56.4653 530.54 59.323C530.359 61.3089 527.951 64.3824 524.408 65.0418C517.839 66.2642 511.584 57.029 511.584 57.029C511.584 57.029 513.798 65.1743 518.128 67.6437ZM480.181 44.1972C481.205 42.4093 482.833 39.5719 483.538 38.342L484.009 38.6324C483.578 39.219 483.128 40.2141 483.105 41.8251C483.063 44.6747 484.704 47.0971 487.492 48.3054C489.39 49.1281 491.551 49.4055 492.553 49.4949C492.836 51.1402 494.048 55.3143 497.833 56.316C501.073 57.1743 503.856 56.8593 506.752 55.0804C508.508 54.001 510.532 50.436 510.456 46.6923C510.439 45.8827 510.446 43.9122 510.084 42.7244C511.493 43.2864 512.906 43.605 515.448 43.2863C518.484 42.9061 521.497 41.5966 522.86 40.9406C523.202 42.0774 523.648 44.4718 525.06 46.4963C526.757 48.928 528.354 50.7286 531.944 51.5181C536.132 52.4389 539.04 50.061 539.498 49.7024C541.185 50.3119 548.11 52.7268 552.611 53.0138C559.62 53.4614 569.707 52.8676 571.334 52.7659C570.957 54.1382 570.309 56.7041 570.132 58.7027C569.888 61.4773 569.38 67.252 569.898 70.4077C570.194 72.2133 570.362 73.1713 570.451 73.6545C569.468 74.3863 566.563 76.5419 564.014 78.3516C560.693 80.7092 553.827 85.852 551.612 88.4423C549.888 90.4577 548.545 92.9589 548.08 93.8719C546.303 94.0229 538.519 94.6045 534.148 93.6268C533.44 93.4689 532.868 93.1247 532.46 92.8046C534.428 92.0446 538.679 90.2077 540.827 87.7952C544.383 83.8024 545.874 79.4842 545.259 74.9608C544.467 69.1279 537.562 66.9073 535.964 67.0395C535.804 67.0529 535.63 67.0534 535.429 67.0543C534.013 67.0595 531.872 67.0678 527.616 71.4119C526.459 72.5929 525.563 73.5572 524.842 74.3325C522.628 76.7152 522.033 77.3555 519.962 77.8983C519.092 78.1264 517.673 78.2793 516.031 78.4558C512.247 78.8635 507.064 79.4219 503.876 81.4777C500.491 83.6614 498.295 86.0009 497.392 87.0572C495.726 85.5103 490.46 80.5471 487.844 77.2108C484.921 73.4805 479.808 65.3621 479.187 58.5953C478.617 52.3734 479.044 46.1834 480.181 44.1972Z" fill="#B36037"/>
<path d="M9.1049 371.458V301.894H24.1529V330.538H55.0409V301.894H70.0889V371.458H55.0409V343.606H24.1529V371.458H9.1049ZM124.729 362.878C122.441 366.134 119.405 368.554 115.621 370.138C111.837 371.634 107.613 372.382 102.949 372.382C99.2527 372.382 95.8647 371.942 92.7847 371.062C89.7927 370.182 87.1527 368.862 84.8647 367.102C82.5767 365.254 80.7727 363.01 79.4527 360.37C78.1327 357.642 77.4727 354.562 77.4727 351.13C77.4727 347.346 78.2207 344.134 79.7167 341.494C81.2127 338.766 83.2367 336.566 85.7887 334.894C88.4287 333.222 91.5087 331.99 95.0287 331.198C98.5487 330.318 102.245 329.878 106.117 329.878H123.937C123.937 324.774 122.793 320.814 120.505 317.998C118.217 315.182 114.213 313.73 108.493 313.642C105.149 313.642 102.245 314.214 99.7807 315.358C97.4047 316.502 95.8207 318.394 95.0287 321.034H79.5847C80.1127 317.338 81.3007 314.214 83.1487 311.662C85.0847 309.11 87.3727 306.998 90.0127 305.326C92.7407 303.654 95.7327 302.466 98.9887 301.762C102.333 301.058 105.677 300.706 109.021 300.706C113.333 300.706 117.337 301.278 121.033 302.422C124.729 303.566 127.941 305.502 130.669 308.23C133.749 311.398 135.817 315.182 136.873 319.582C137.929 323.982 138.457 328.778 138.457 333.97V371.458H125.389L124.729 362.878ZM123.937 340.57H109.417C106.865 340.57 104.313 340.79 101.761 341.23C99.2087 341.582 97.0087 342.506 95.1607 344.002C93.4007 345.41 92.5207 347.478 92.5207 350.206C92.5207 353.55 93.7087 356.102 96.0847 357.862C98.5487 359.534 101.541 360.37 105.061 360.37C107.789 360.37 110.297 360.018 112.585 359.314C114.961 358.61 116.985 357.466 118.657 355.882C120.329 354.21 121.605 352.142 122.485 349.678C123.453 347.126 123.937 344.09 123.937 340.57ZM178.638 372.382C173.094 372.382 168.21 371.546 163.986 369.874C159.85 368.114 156.374 365.694 153.558 362.614C150.83 359.446 148.762 355.706 147.354 351.394C146.034 346.994 145.374 342.154 145.374 336.874C145.374 331.594 146.078 326.754 147.486 322.354C148.982 317.954 151.182 314.17 154.086 311.002C156.99 307.834 160.51 305.326 164.646 303.478C168.782 301.63 173.578 300.706 179.034 300.706C182.906 300.706 186.47 301.146 189.726 302.026C193.07 302.818 196.018 304.182 198.57 306.118C201.122 307.966 203.322 310.342 205.17 313.246C207.018 316.062 208.294 319.494 208.998 323.542H193.422C192.63 320.55 190.914 318.262 188.274 316.678C185.722 315.006 182.554 314.17 178.77 314.17C175.426 314.17 172.566 314.786 170.19 316.018C167.814 317.25 165.878 318.922 164.382 321.034C162.886 323.146 161.786 325.61 161.082 328.426C160.466 331.154 160.158 334.014 160.158 337.006C160.158 340.086 160.51 342.99 161.214 345.718C161.918 348.446 163.018 350.822 164.514 352.846C166.098 354.782 168.078 356.366 170.454 357.598C172.83 358.742 175.69 359.314 179.034 359.314C182.994 359.314 186.25 358.434 188.802 356.674C191.442 354.914 193.114 352.582 193.818 349.678H209.262C208.558 353.638 207.238 357.07 205.302 359.974C203.454 362.878 201.166 365.254 198.438 367.102C195.71 368.95 192.674 370.314 189.33 371.194C185.986 371.986 182.422 372.382 178.638 372.382ZM221.359 338.326C221.799 332.342 222.063 326.402 222.151 320.506C222.327 314.522 222.503 308.318 222.679 301.894H274.687V371.458H259.507V314.962H236.671C236.495 319.274 236.319 323.586 236.143 327.898C236.055 332.122 235.879 336.346 235.615 340.57C235.527 342.154 235.351 344.046 235.087 346.246C234.911 348.358 234.647 350.514 234.295 352.714C233.943 354.826 233.415 356.85 232.711 358.786C232.007 360.634 231.127 362.35 230.071 363.934C228.223 366.574 225.759 368.51 222.679 369.742C219.687 370.886 216.211 371.458 212.251 371.458H208.555V358.522C211.195 358.522 213.307 357.906 214.891 356.674C216.563 355.354 217.795 353.726 218.587 351.79C219.467 349.766 220.083 347.61 220.435 345.322C220.875 342.946 221.183 340.614 221.359 338.326ZM296.882 341.758C297.058 344.31 297.586 346.686 298.466 348.886C299.346 351.086 300.534 353.022 302.03 354.694C303.526 356.278 305.374 357.554 307.574 358.522C309.862 359.49 312.502 359.974 315.494 359.974C318.662 359.974 321.566 359.402 324.206 358.258C326.934 357.114 328.914 355.134 330.146 352.318H345.59C344.71 355.838 343.258 358.874 341.234 361.426C339.298 363.978 336.966 366.09 334.238 367.762C331.598 369.346 328.65 370.534 325.394 371.326C322.226 372.03 318.838 372.382 315.23 372.382C309.686 372.382 304.802 371.546 300.578 369.874C296.442 368.202 292.966 365.782 290.15 362.614C287.334 359.446 285.222 355.706 283.814 351.394C282.494 346.994 281.834 342.066 281.834 336.61C281.834 331.33 282.582 326.534 284.078 322.222C285.574 317.822 287.73 314.038 290.546 310.87C293.45 307.702 296.926 305.238 300.974 303.478C305.022 301.63 309.642 300.706 314.834 300.706C320.29 300.706 324.998 301.63 328.958 303.478C332.918 305.238 336.218 307.658 338.858 310.738C341.586 313.818 343.61 317.426 344.93 321.562C346.25 325.698 346.91 330.186 346.91 335.026C346.91 337.314 346.778 339.558 346.514 341.758H296.882ZM332.258 330.406C331.994 324.95 330.278 320.814 327.11 317.998C324.03 315.182 319.982 313.774 314.966 313.774C312.15 313.774 309.686 314.214 307.574 315.094C305.462 315.974 303.658 317.162 302.162 318.658C300.754 320.154 299.61 321.914 298.73 323.938C297.85 325.962 297.278 328.118 297.014 330.406H332.258ZM359.906 326.71C360.17 322.486 360.346 318.394 360.434 314.434C360.522 310.386 360.566 306.206 360.566 301.894H414.158V358.654H423.266V391.786H408.614V371.458H361.094V391.786H346.442V358.654C348.994 358.654 351.106 357.862 352.778 356.278C354.538 354.606 355.726 352.758 356.342 350.734C356.958 349.326 357.486 347.434 357.926 345.058C358.366 342.594 358.718 340.174 358.982 337.798C359.246 335.422 359.466 333.222 359.642 331.198C359.818 329.174 359.906 327.678 359.906 326.71ZM399.11 314.962H374.294C374.118 318.13 373.986 321.562 373.898 325.258C373.81 328.954 373.678 332.518 373.502 335.95C373.326 337.622 373.15 339.426 372.974 341.362C372.886 343.298 372.666 345.278 372.314 347.302C371.962 349.238 371.478 351.174 370.862 353.11C370.246 355.046 369.41 356.894 368.354 358.654H399.11V314.962ZM441.114 371.458H427.122V301.894H442.17V349.678L477.546 301.894H491.142V371.458H476.094V324.598C476.006 324.774 464.346 340.394 441.114 371.458ZM513.368 341.758C513.544 344.31 514.072 346.686 514.952 348.886C515.832 351.086 517.02 353.022 518.516 354.694C520.012 356.278 521.86 357.554 524.06 358.522C526.348 359.49 528.988 359.974 531.98 359.974C535.148 359.974 538.052 359.402 540.692 358.258C543.42 357.114 545.4 355.134 546.632 352.318H562.076C561.196 355.838 559.744 358.874 557.72 361.426C555.784 363.978 553.452 366.09 550.724 367.762C548.084 369.346 545.136 370.534 541.88 371.326C538.712 372.03 535.324 372.382 531.716 372.382C526.172 372.382 521.288 371.546 517.064 369.874C512.928 368.202 509.452 365.782 506.636 362.614C503.82 359.446 501.708 355.706 500.3 351.394C498.98 346.994 498.32 342.066 498.32 336.61C498.32 331.33 499.068 326.534 500.564 322.222C502.06 317.822 504.216 314.038 507.032 310.87C509.936 307.702 513.412 305.238 517.46 303.478C521.508 301.63 526.128 300.706 531.32 300.706C536.776 300.706 541.484 301.63 545.444 303.478C549.404 305.238 552.704 307.658 555.344 310.738C558.072 313.818 560.096 317.426 561.416 321.562C562.736 325.698 563.396 330.186 563.396 335.026C563.396 337.314 563.264 339.558 563 341.758H513.368ZM548.744 330.406C548.48 324.95 546.764 320.814 543.596 317.998C540.516 315.182 536.468 313.774 531.452 313.774C528.636 313.774 526.172 314.214 524.06 315.094C521.948 315.974 520.144 317.162 518.648 318.658C517.24 320.154 516.096 321.914 515.216 323.938C514.336 325.962 513.764 328.118 513.5 330.406H548.744ZM587.31 342.682C587.134 341.978 587.046 341.318 587.046 340.702C587.046 339.998 587.046 339.294 587.046 338.59C587.046 335.95 587.574 333.53 588.63 331.33C589.774 329.13 591.138 327.062 592.722 325.126C594.394 323.19 596.198 321.386 598.134 319.714C600.07 317.954 601.83 316.194 603.414 314.434C605.086 312.586 606.494 310.694 607.638 308.758C608.782 306.734 609.398 304.534 609.486 302.158C609.486 298.198 608.254 295.294 605.79 293.446C603.326 291.598 599.85 290.674 595.362 290.674C593.69 290.674 592.062 290.894 590.478 291.334C588.894 291.686 587.442 292.258 586.122 293.05C584.802 293.842 583.702 294.898 582.822 296.218C581.942 297.538 581.37 299.122 581.106 300.97H566.454C566.63 297.538 567.422 294.37 568.83 291.466C570.238 288.474 572.174 285.922 574.638 283.81C577.19 281.698 580.27 280.026 583.878 278.794C587.486 277.562 591.622 276.946 596.286 276.946C599.982 276.946 603.546 277.386 606.978 278.266C610.41 279.146 613.402 280.554 615.954 282.49C618.594 284.338 620.662 286.758 622.158 289.75C623.742 292.742 624.534 296.35 624.534 300.574C624.534 304.534 623.83 308.054 622.422 311.134C621.014 314.126 618.99 317.03 616.35 319.846C614.766 321.606 613.094 323.278 611.334 324.862C609.574 326.446 607.946 328.118 606.45 329.878C605.042 331.55 603.854 333.354 602.886 335.29C602.006 337.226 601.566 339.382 601.566 341.758V342.682H587.31ZM594.57 353.374C597.562 353.374 599.894 354.298 601.566 356.146C603.326 357.906 604.206 360.238 604.206 363.142C604.206 365.958 603.326 368.246 601.566 370.006C599.894 371.678 597.562 372.514 594.57 372.514C591.578 372.514 589.202 371.678 587.442 370.006C585.682 368.334 584.802 366.046 584.802 363.142C584.802 360.238 585.682 357.906 587.442 356.146C589.202 354.298 591.578 353.374 594.57 353.374Z" fill="#B36037"/>
<defs>
<clipPath id="clip0_407_6217">
<rect width="207.682" height="103.045" fill="white" transform="translate(9.39746 153)"/>
</clipPath>
</defs>
</svg>
