<?xml version="1.0"?>
<svg xmlns="http://www.w3.org/2000/svg" xmlns:xlink="http://www.w3.org/1999/xlink" version="1.1" width="220px" height="220px" viewBox="0 0 220 220"><defs><rect id="block" width="4.4444444444" height="4.4444444444" fill="#000000" fill-opacity="1"/></defs><rect x="0" y="0" width="220" height="220" fill="#ffffff" fill-opacity="1"/><use x="10.0000000000" y="10.0000000000" xlink:href="#block"/><use x="14.4444444444" y="10.0000000000" xlink:href="#block"/><use x="18.8888888889" y="10.0000000000" xlink:href="#block"/><use x="23.3333333333" y="10.0000000000" xlink:href="#block"/><use x="27.7777777778" y="10.0000000000" xlink:href="#block"/><use x="32.2222222222" y="10.0000000000" xlink:href="#block"/><use x="36.6666666667" y="10.0000000000" xlink:href="#block"/><use x="45.5555555556" y="10.0000000000" xlink:href="#block"/><use x="54.4444444444" y="10.0000000000" xlink:href="#block"/><use x="67.7777777778" y="10.0000000000" xlink:href="#block"/><use x="81.1111111111" y="10.0000000000" xlink:href="#block"/><use x="85.5555555556" y="10.0000000000" xlink:href="#block"/><use x="107.7777777778" y="10.0000000000" xlink:href="#block"/><use x="112.2222222222" y="10.0000000000" xlink:href="#block"/><use x="121.1111111111" y="10.0000000000" xlink:href="#block"/><use x="130.0000000000" y="10.0000000000" xlink:href="#block"/><use x="152.2222222222" y="10.0000000000" xlink:href="#block"/><use x="170.0000000000" y="10.0000000000" xlink:href="#block"/><use x="178.8888888889" y="10.0000000000" xlink:href="#block"/><use x="183.3333333333" y="10.0000000000" xlink:href="#block"/><use x="187.7777777778" y="10.0000000000" xlink:href="#block"/><use x="192.2222222222" y="10.0000000000" xlink:href="#block"/><use x="196.6666666667" y="10.0000000000" xlink:href="#block"/><use x="201.1111111111" y="10.0000000000" xlink:href="#block"/><use x="205.5555555556" y="10.0000000000" xlink:href="#block"/><use x="10.0000000000" y="14.4444444444" xlink:href="#block"/><use x="36.6666666667" y="14.4444444444" xlink:href="#block"/><use x="45.5555555556" y="14.4444444444" xlink:href="#block"/><use x="50.0000000000" y="14.4444444444" xlink:href="#block"/><use x="54.4444444444" y="14.4444444444" xlink:href="#block"/><use x="63.3333333333" y="14.4444444444" xlink:href="#block"/><use x="72.2222222222" y="14.4444444444" xlink:href="#block"/><use x="107.7777777778" y="14.4444444444" xlink:href="#block"/><use x="116.6666666667" y="14.4444444444" xlink:href="#block"/><use x="121.1111111111" y="14.4444444444" xlink:href="#block"/><use x="130.0000000000" y="14.4444444444" xlink:href="#block"/><use x="134.4444444444" y="14.4444444444" xlink:href="#block"/><use x="138.8888888889" y="14.4444444444" xlink:href="#block"/><use x="147.7777777778" y="14.4444444444" xlink:href="#block"/><use x="165.5555555556" y="14.4444444444" xlink:href="#block"/><use x="178.8888888889" y="14.4444444444" xlink:href="#block"/><use x="205.5555555556" y="14.4444444444" xlink:href="#block"/><use x="10.0000000000" y="18.8888888889" xlink:href="#block"/><use x="18.8888888889" y="18.8888888889" xlink:href="#block"/><use x="23.3333333333" y="18.8888888889" xlink:href="#block"/><use x="27.7777777778" y="18.8888888889" xlink:href="#block"/><use x="36.6666666667" y="18.8888888889" xlink:href="#block"/><use x="45.5555555556" y="18.8888888889" xlink:href="#block"/><use x="50.0000000000" y="18.8888888889" xlink:href="#block"/><use x="54.4444444444" y="18.8888888889" xlink:href="#block"/><use x="58.8888888889" y="18.8888888889" xlink:href="#block"/><use x="63.3333333333" y="18.8888888889" xlink:href="#block"/><use x="76.6666666667" y="18.8888888889" xlink:href="#block"/><use x="103.3333333333" y="18.8888888889" xlink:href="#block"/><use x="116.6666666667" y="18.8888888889" xlink:href="#block"/><use x="121.1111111111" y="18.8888888889" xlink:href="#block"/><use x="125.5555555556" y="18.8888888889" xlink:href="#block"/><use x="130.0000000000" y="18.8888888889" xlink:href="#block"/><use x="143.3333333333" y="18.8888888889" xlink:href="#block"/><use x="156.6666666667" y="18.8888888889" xlink:href="#block"/><use x="165.5555555556" y="18.8888888889" xlink:href="#block"/><use x="178.8888888889" y="18.8888888889" xlink:href="#block"/><use x="187.7777777778" y="18.8888888889" xlink:href="#block"/><use x="192.2222222222" y="18.8888888889" xlink:href="#block"/><use x="196.6666666667" y="18.8888888889" xlink:href="#block"/><use x="205.5555555556" y="18.8888888889" xlink:href="#block"/><use x="10.0000000000" y="23.3333333333" xlink:href="#block"/><use x="18.8888888889" y="23.3333333333" xlink:href="#block"/><use x="23.3333333333" y="23.3333333333" xlink:href="#block"/><use x="27.7777777778" y="23.3333333333" xlink:href="#block"/><use x="36.6666666667" y="23.3333333333" xlink:href="#block"/><use x="58.8888888889" y="23.3333333333" xlink:href="#block"/><use x="63.3333333333" y="23.3333333333" xlink:href="#block"/><use x="76.6666666667" y="23.3333333333" xlink:href="#block"/><use x="85.5555555556" y="23.3333333333" xlink:href="#block"/><use x="90.0000000000" y="23.3333333333" xlink:href="#block"/><use x="94.4444444444" y="23.3333333333" xlink:href="#block"/><use x="98.8888888889" y="23.3333333333" xlink:href="#block"/><use x="103.3333333333" y="23.3333333333" xlink:href="#block"/><use x="107.7777777778" y="23.3333333333" xlink:href="#block"/><use x="116.6666666667" y="23.3333333333" xlink:href="#block"/><use x="125.5555555556" y="23.3333333333" xlink:href="#block"/><use x="130.0000000000" y="23.3333333333" xlink:href="#block"/><use x="134.4444444444" y="23.3333333333" xlink:href="#block"/><use x="138.8888888889" y="23.3333333333" xlink:href="#block"/><use x="147.7777777778" y="23.3333333333" xlink:href="#block"/><use x="152.2222222222" y="23.3333333333" xlink:href="#block"/><use x="165.5555555556" y="23.3333333333" xlink:href="#block"/><use x="170.0000000000" y="23.3333333333" xlink:href="#block"/><use x="178.8888888889" y="23.3333333333" xlink:href="#block"/><use x="187.7777777778" y="23.3333333333" xlink:href="#block"/><use x="192.2222222222" y="23.3333333333" xlink:href="#block"/><use x="196.6666666667" y="23.3333333333" xlink:href="#block"/><use x="205.5555555556" y="23.3333333333" xlink:href="#block"/><use x="10.0000000000" y="27.7777777778" xlink:href="#block"/><use x="18.8888888889" y="27.7777777778" xlink:href="#block"/><use x="23.3333333333" y="27.7777777778" xlink:href="#block"/><use x="27.7777777778" y="27.7777777778" xlink:href="#block"/><use x="36.6666666667" y="27.7777777778" xlink:href="#block"/><use x="50.0000000000" y="27.7777777778" xlink:href="#block"/><use x="54.4444444444" y="27.7777777778" xlink:href="#block"/><use x="63.3333333333" y="27.7777777778" xlink:href="#block"/><use x="90.0000000000" y="27.7777777778" xlink:href="#block"/><use x="98.8888888889" y="27.7777777778" xlink:href="#block"/><use x="103.3333333333" y="27.7777777778" xlink:href="#block"/><use x="107.7777777778" y="27.7777777778" xlink:href="#block"/><use x="112.2222222222" y="27.7777777778" xlink:href="#block"/><use x="116.6666666667" y="27.7777777778" xlink:href="#block"/><use x="121.1111111111" y="27.7777777778" xlink:href="#block"/><use x="125.5555555556" y="27.7777777778" xlink:href="#block"/><use x="130.0000000000" y="27.7777777778" xlink:href="#block"/><use x="143.3333333333" y="27.7777777778" xlink:href="#block"/><use x="152.2222222222" y="27.7777777778" xlink:href="#block"/><use x="161.1111111111" y="27.7777777778" xlink:href="#block"/><use x="165.5555555556" y="27.7777777778" xlink:href="#block"/><use x="170.0000000000" y="27.7777777778" xlink:href="#block"/><use x="178.8888888889" y="27.7777777778" xlink:href="#block"/><use x="187.7777777778" y="27.7777777778" xlink:href="#block"/><use x="192.2222222222" y="27.7777777778" xlink:href="#block"/><use x="196.6666666667" y="27.7777777778" xlink:href="#block"/><use x="205.5555555556" y="27.7777777778" xlink:href="#block"/><use x="10.0000000000" y="32.2222222222" xlink:href="#block"/><use x="36.6666666667" y="32.2222222222" xlink:href="#block"/><use x="45.5555555556" y="32.2222222222" xlink:href="#block"/><use x="50.0000000000" y="32.2222222222" xlink:href="#block"/><use x="54.4444444444" y="32.2222222222" xlink:href="#block"/><use x="63.3333333333" y="32.2222222222" xlink:href="#block"/><use x="67.7777777778" y="32.2222222222" xlink:href="#block"/><use x="81.1111111111" y="32.2222222222" xlink:href="#block"/><use x="98.8888888889" y="32.2222222222" xlink:href="#block"/><use x="116.6666666667" y="32.2222222222" xlink:href="#block"/><use x="121.1111111111" y="32.2222222222" xlink:href="#block"/><use x="125.5555555556" y="32.2222222222" xlink:href="#block"/><use x="130.0000000000" y="32.2222222222" xlink:href="#block"/><use x="143.3333333333" y="32.2222222222" xlink:href="#block"/><use x="147.7777777778" y="32.2222222222" xlink:href="#block"/><use x="152.2222222222" y="32.2222222222" xlink:href="#block"/><use x="156.6666666667" y="32.2222222222" xlink:href="#block"/><use x="178.8888888889" y="32.2222222222" xlink:href="#block"/><use x="205.5555555556" y="32.2222222222" xlink:href="#block"/><use x="10.0000000000" y="36.6666666667" xlink:href="#block"/><use x="14.4444444444" y="36.6666666667" xlink:href="#block"/><use x="18.8888888889" y="36.6666666667" xlink:href="#block"/><use x="23.3333333333" y="36.6666666667" xlink:href="#block"/><use x="27.7777777778" y="36.6666666667" xlink:href="#block"/><use x="32.2222222222" y="36.6666666667" xlink:href="#block"/><use x="36.6666666667" y="36.6666666667" xlink:href="#block"/><use x="45.5555555556" y="36.6666666667" xlink:href="#block"/><use x="54.4444444444" y="36.6666666667" xlink:href="#block"/><use x="63.3333333333" y="36.6666666667" xlink:href="#block"/><use x="72.2222222222" y="36.6666666667" xlink:href="#block"/><use x="81.1111111111" y="36.6666666667" xlink:href="#block"/><use x="90.0000000000" y="36.6666666667" xlink:href="#block"/><use x="98.8888888889" y="36.6666666667" xlink:href="#block"/><use x="107.7777777778" y="36.6666666667" xlink:href="#block"/><use x="116.6666666667" y="36.6666666667" xlink:href="#block"/><use x="125.5555555556" y="36.6666666667" xlink:href="#block"/><use x="134.4444444444" y="36.6666666667" xlink:href="#block"/><use x="143.3333333333" y="36.6666666667" xlink:href="#block"/><use x="152.2222222222" y="36.6666666667" xlink:href="#block"/><use x="161.1111111111" y="36.6666666667" xlink:href="#block"/><use x="170.0000000000" y="36.6666666667" xlink:href="#block"/><use x="178.8888888889" y="36.6666666667" xlink:href="#block"/><use x="183.3333333333" y="36.6666666667" xlink:href="#block"/><use x="187.7777777778" y="36.6666666667" xlink:href="#block"/><use x="192.2222222222" y="36.6666666667" xlink:href="#block"/><use x="196.6666666667" y="36.6666666667" xlink:href="#block"/><use x="201.1111111111" y="36.6666666667" xlink:href="#block"/><use x="205.5555555556" y="36.6666666667" xlink:href="#block"/><use x="45.5555555556" y="41.1111111111" xlink:href="#block"/><use x="54.4444444444" y="41.1111111111" xlink:href="#block"/><use x="67.7777777778" y="41.1111111111" xlink:href="#block"/><use x="76.6666666667" y="41.1111111111" xlink:href="#block"/><use x="85.5555555556" y="41.1111111111" xlink:href="#block"/><use x="90.0000000000" y="41.1111111111" xlink:href="#block"/><use x="94.4444444444" y="41.1111111111" xlink:href="#block"/><use x="98.8888888889" y="41.1111111111" xlink:href="#block"/><use x="116.6666666667" y="41.1111111111" xlink:href="#block"/><use x="130.0000000000" y="41.1111111111" xlink:href="#block"/><use x="134.4444444444" y="41.1111111111" xlink:href="#block"/><use x="143.3333333333" y="41.1111111111" xlink:href="#block"/><use x="147.7777777778" y="41.1111111111" xlink:href="#block"/><use x="156.6666666667" y="41.1111111111" xlink:href="#block"/><use x="170.0000000000" y="41.1111111111" xlink:href="#block"/><use x="18.8888888889" y="45.5555555556" xlink:href="#block"/><use x="23.3333333333" y="45.5555555556" xlink:href="#block"/><use x="27.7777777778" y="45.5555555556" xlink:href="#block"/><use x="36.6666666667" y="45.5555555556" xlink:href="#block"/><use x="45.5555555556" y="45.5555555556" xlink:href="#block"/><use x="72.2222222222" y="45.5555555556" xlink:href="#block"/><use x="85.5555555556" y="45.5555555556" xlink:href="#block"/><use x="90.0000000000" y="45.5555555556" xlink:href="#block"/><use x="98.8888888889" y="45.5555555556" xlink:href="#block"/><use x="103.3333333333" y="45.5555555556" xlink:href="#block"/><use x="107.7777777778" y="45.5555555556" xlink:href="#block"/><use x="112.2222222222" y="45.5555555556" xlink:href="#block"/><use x="116.6666666667" y="45.5555555556" xlink:href="#block"/><use x="121.1111111111" y="45.5555555556" xlink:href="#block"/><use x="125.5555555556" y="45.5555555556" xlink:href="#block"/><use x="130.0000000000" y="45.5555555556" xlink:href="#block"/><use x="134.4444444444" y="45.5555555556" xlink:href="#block"/><use x="138.8888888889" y="45.5555555556" xlink:href="#block"/><use x="152.2222222222" y="45.5555555556" xlink:href="#block"/><use x="161.1111111111" y="45.5555555556" xlink:href="#block"/><use x="165.5555555556" y="45.5555555556" xlink:href="#block"/><use x="174.4444444444" y="45.5555555556" xlink:href="#block"/><use x="178.8888888889" y="45.5555555556" xlink:href="#block"/><use x="183.3333333333" y="45.5555555556" xlink:href="#block"/><use x="196.6666666667" y="45.5555555556" xlink:href="#block"/><use x="201.1111111111" y="45.5555555556" xlink:href="#block"/><use x="205.5555555556" y="45.5555555556" xlink:href="#block"/><use x="10.0000000000" y="50.0000000000" xlink:href="#block"/><use x="14.4444444444" y="50.0000000000" xlink:href="#block"/><use x="18.8888888889" y="50.0000000000" xlink:href="#block"/><use x="27.7777777778" y="50.0000000000" xlink:href="#block"/><use x="32.2222222222" y="50.0000000000" xlink:href="#block"/><use x="41.1111111111" y="50.0000000000" xlink:href="#block"/><use x="50.0000000000" y="50.0000000000" xlink:href="#block"/><use x="63.3333333333" y="50.0000000000" xlink:href="#block"/><use x="81.1111111111" y="50.0000000000" xlink:href="#block"/><use x="107.7777777778" y="50.0000000000" xlink:href="#block"/><use x="112.2222222222" y="50.0000000000" xlink:href="#block"/><use x="121.1111111111" y="50.0000000000" xlink:href="#block"/><use x="134.4444444444" y="50.0000000000" xlink:href="#block"/><use x="143.3333333333" y="50.0000000000" xlink:href="#block"/><use x="147.7777777778" y="50.0000000000" xlink:href="#block"/><use x="152.2222222222" y="50.0000000000" xlink:href="#block"/><use x="156.6666666667" y="50.0000000000" xlink:href="#block"/><use x="161.1111111111" y="50.0000000000" xlink:href="#block"/><use x="165.5555555556" y="50.0000000000" xlink:href="#block"/><use x="170.0000000000" y="50.0000000000" xlink:href="#block"/><use x="187.7777777778" y="50.0000000000" xlink:href="#block"/><use x="196.6666666667" y="50.0000000000" xlink:href="#block"/><use x="10.0000000000" y="54.4444444444" xlink:href="#block"/><use x="14.4444444444" y="54.4444444444" xlink:href="#block"/><use x="18.8888888889" y="54.4444444444" xlink:href="#block"/><use x="23.3333333333" y="54.4444444444" xlink:href="#block"/><use x="27.7777777778" y="54.4444444444" xlink:href="#block"/><use x="32.2222222222" y="54.4444444444" xlink:href="#block"/><use x="36.6666666667" y="54.4444444444" xlink:href="#block"/><use x="54.4444444444" y="54.4444444444" xlink:href="#block"/><use x="63.3333333333" y="54.4444444444" xlink:href="#block"/><use x="72.2222222222" y="54.4444444444" xlink:href="#block"/><use x="76.6666666667" y="54.4444444444" xlink:href="#block"/><use x="81.1111111111" y="54.4444444444" xlink:href="#block"/><use x="90.0000000000" y="54.4444444444" xlink:href="#block"/><use x="94.4444444444" y="54.4444444444" xlink:href="#block"/><use x="98.8888888889" y="54.4444444444" xlink:href="#block"/><use x="107.7777777778" y="54.4444444444" xlink:href="#block"/><use x="125.5555555556" y="54.4444444444" xlink:href="#block"/><use x="134.4444444444" y="54.4444444444" xlink:href="#block"/><use x="138.8888888889" y="54.4444444444" xlink:href="#block"/><use x="156.6666666667" y="54.4444444444" xlink:href="#block"/><use x="161.1111111111" y="54.4444444444" xlink:href="#block"/><use x="165.5555555556" y="54.4444444444" xlink:href="#block"/><use x="183.3333333333" y="54.4444444444" xlink:href="#block"/><use x="192.2222222222" y="54.4444444444" xlink:href="#block"/><use x="27.7777777778" y="58.8888888889" xlink:href="#block"/><use x="41.1111111111" y="58.8888888889" xlink:href="#block"/><use x="45.5555555556" y="58.8888888889" xlink:href="#block"/><use x="50.0000000000" y="58.8888888889" xlink:href="#block"/><use x="58.8888888889" y="58.8888888889" xlink:href="#block"/><use x="76.6666666667" y="58.8888888889" xlink:href="#block"/><use x="85.5555555556" y="58.8888888889" xlink:href="#block"/><use x="103.3333333333" y="58.8888888889" xlink:href="#block"/><use x="107.7777777778" y="58.8888888889" xlink:href="#block"/><use x="112.2222222222" y="58.8888888889" xlink:href="#block"/><use x="121.1111111111" y="58.8888888889" xlink:href="#block"/><use x="125.5555555556" y="58.8888888889" xlink:href="#block"/><use x="130.0000000000" y="58.8888888889" xlink:href="#block"/><use x="134.4444444444" y="58.8888888889" xlink:href="#block"/><use x="143.3333333333" y="58.8888888889" xlink:href="#block"/><use x="152.2222222222" y="58.8888888889" xlink:href="#block"/><use x="170.0000000000" y="58.8888888889" xlink:href="#block"/><use x="174.4444444444" y="58.8888888889" xlink:href="#block"/><use x="187.7777777778" y="58.8888888889" xlink:href="#block"/><use x="196.6666666667" y="58.8888888889" xlink:href="#block"/><use x="201.1111111111" y="58.8888888889" xlink:href="#block"/><use x="205.5555555556" y="58.8888888889" xlink:href="#block"/><use x="14.4444444444" y="63.3333333333" xlink:href="#block"/><use x="18.8888888889" y="63.3333333333" xlink:href="#block"/><use x="27.7777777778" y="63.3333333333" xlink:href="#block"/><use x="32.2222222222" y="63.3333333333" xlink:href="#block"/><use x="36.6666666667" y="63.3333333333" xlink:href="#block"/><use x="41.1111111111" y="63.3333333333" xlink:href="#block"/><use x="54.4444444444" y="63.3333333333" xlink:href="#block"/><use x="63.3333333333" y="63.3333333333" xlink:href="#block"/><use x="67.7777777778" y="63.3333333333" xlink:href="#block"/><use x="72.2222222222" y="63.3333333333" xlink:href="#block"/><use x="76.6666666667" y="63.3333333333" xlink:href="#block"/><use x="85.5555555556" y="63.3333333333" xlink:href="#block"/><use x="94.4444444444" y="63.3333333333" xlink:href="#block"/><use x="103.3333333333" y="63.3333333333" xlink:href="#block"/><use x="125.5555555556" y="63.3333333333" xlink:href="#block"/><use x="130.0000000000" y="63.3333333333" xlink:href="#block"/><use x="134.4444444444" y="63.3333333333" xlink:href="#block"/><use x="138.8888888889" y="63.3333333333" xlink:href="#block"/><use x="156.6666666667" y="63.3333333333" xlink:href="#block"/><use x="161.1111111111" y="63.3333333333" xlink:href="#block"/><use x="165.5555555556" y="63.3333333333" xlink:href="#block"/><use x="174.4444444444" y="63.3333333333" xlink:href="#block"/><use x="178.8888888889" y="63.3333333333" xlink:href="#block"/><use x="187.7777777778" y="63.3333333333" xlink:href="#block"/><use x="192.2222222222" y="63.3333333333" xlink:href="#block"/><use x="196.6666666667" y="63.3333333333" xlink:href="#block"/><use x="10.0000000000" y="67.7777777778" xlink:href="#block"/><use x="18.8888888889" y="67.7777777778" xlink:href="#block"/><use x="23.3333333333" y="67.7777777778" xlink:href="#block"/><use x="32.2222222222" y="67.7777777778" xlink:href="#block"/><use x="45.5555555556" y="67.7777777778" xlink:href="#block"/><use x="50.0000000000" y="67.7777777778" xlink:href="#block"/><use x="54.4444444444" y="67.7777777778" xlink:href="#block"/><use x="63.3333333333" y="67.7777777778" xlink:href="#block"/><use x="85.5555555556" y="67.7777777778" xlink:href="#block"/><use x="103.3333333333" y="67.7777777778" xlink:href="#block"/><use x="121.1111111111" y="67.7777777778" xlink:href="#block"/><use x="138.8888888889" y="67.7777777778" xlink:href="#block"/><use x="143.3333333333" y="67.7777777778" xlink:href="#block"/><use x="147.7777777778" y="67.7777777778" xlink:href="#block"/><use x="152.2222222222" y="67.7777777778" xlink:href="#block"/><use x="156.6666666667" y="67.7777777778" xlink:href="#block"/><use x="161.1111111111" y="67.7777777778" xlink:href="#block"/><use x="165.5555555556" y="67.7777777778" xlink:href="#block"/><use x="174.4444444444" y="67.7777777778" xlink:href="#block"/><use x="196.6666666667" y="67.7777777778" xlink:href="#block"/><use x="10.0000000000" y="72.2222222222" xlink:href="#block"/><use x="14.4444444444" y="72.2222222222" xlink:href="#block"/><use x="18.8888888889" y="72.2222222222" xlink:href="#block"/><use x="36.6666666667" y="72.2222222222" xlink:href="#block"/><use x="41.1111111111" y="72.2222222222" xlink:href="#block"/><use x="45.5555555556" y="72.2222222222" xlink:href="#block"/><use x="63.3333333333" y="72.2222222222" xlink:href="#block"/><use x="72.2222222222" y="72.2222222222" xlink:href="#block"/><use x="81.1111111111" y="72.2222222222" xlink:href="#block"/><use x="85.5555555556" y="72.2222222222" xlink:href="#block"/><use x="90.0000000000" y="72.2222222222" xlink:href="#block"/><use x="98.8888888889" y="72.2222222222" xlink:href="#block"/><use x="121.1111111111" y="72.2222222222" xlink:href="#block"/><use x="125.5555555556" y="72.2222222222" xlink:href="#block"/><use x="138.8888888889" y="72.2222222222" xlink:href="#block"/><use x="165.5555555556" y="72.2222222222" xlink:href="#block"/><use x="170.0000000000" y="72.2222222222" xlink:href="#block"/><use x="192.2222222222" y="72.2222222222" xlink:href="#block"/><use x="201.1111111111" y="72.2222222222" xlink:href="#block"/><use x="27.7777777778" y="76.6666666667" xlink:href="#block"/><use x="45.5555555556" y="76.6666666667" xlink:href="#block"/><use x="58.8888888889" y="76.6666666667" xlink:href="#block"/><use x="121.1111111111" y="76.6666666667" xlink:href="#block"/><use x="125.5555555556" y="76.6666666667" xlink:href="#block"/><use x="130.0000000000" y="76.6666666667" xlink:href="#block"/><use x="134.4444444444" y="76.6666666667" xlink:href="#block"/><use x="143.3333333333" y="76.6666666667" xlink:href="#block"/><use x="152.2222222222" y="76.6666666667" xlink:href="#block"/><use x="156.6666666667" y="76.6666666667" xlink:href="#block"/><use x="165.5555555556" y="76.6666666667" xlink:href="#block"/><use x="170.0000000000" y="76.6666666667" xlink:href="#block"/><use x="174.4444444444" y="76.6666666667" xlink:href="#block"/><use x="201.1111111111" y="76.6666666667" xlink:href="#block"/><use x="205.5555555556" y="76.6666666667" xlink:href="#block"/><use x="14.4444444444" y="81.1111111111" xlink:href="#block"/><use x="27.7777777778" y="81.1111111111" xlink:href="#block"/><use x="36.6666666667" y="81.1111111111" xlink:href="#block"/><use x="41.1111111111" y="81.1111111111" xlink:href="#block"/><use x="45.5555555556" y="81.1111111111" xlink:href="#block"/><use x="50.0000000000" y="81.1111111111" xlink:href="#block"/><use x="54.4444444444" y="81.1111111111" xlink:href="#block"/><use x="63.3333333333" y="81.1111111111" xlink:href="#block"/><use x="67.7777777778" y="81.1111111111" xlink:href="#block"/><use x="72.2222222222" y="81.1111111111" xlink:href="#block"/><use x="76.6666666667" y="81.1111111111" xlink:href="#block"/><use x="85.5555555556" y="81.1111111111" xlink:href="#block"/><use x="98.8888888889" y="81.1111111111" xlink:href="#block"/><use x="112.2222222222" y="81.1111111111" xlink:href="#block"/><use x="121.1111111111" y="81.1111111111" xlink:href="#block"/><use x="138.8888888889" y="81.1111111111" xlink:href="#block"/><use x="143.3333333333" y="81.1111111111" xlink:href="#block"/><use x="161.1111111111" y="81.1111111111" xlink:href="#block"/><use x="170.0000000000" y="81.1111111111" xlink:href="#block"/><use x="178.8888888889" y="81.1111111111" xlink:href="#block"/><use x="183.3333333333" y="81.1111111111" xlink:href="#block"/><use x="187.7777777778" y="81.1111111111" xlink:href="#block"/><use x="192.2222222222" y="81.1111111111" xlink:href="#block"/><use x="10.0000000000" y="85.5555555556" xlink:href="#block"/><use x="18.8888888889" y="85.5555555556" xlink:href="#block"/><use x="23.3333333333" y="85.5555555556" xlink:href="#block"/><use x="27.7777777778" y="85.5555555556" xlink:href="#block"/><use x="45.5555555556" y="85.5555555556" xlink:href="#block"/><use x="58.8888888889" y="85.5555555556" xlink:href="#block"/><use x="63.3333333333" y="85.5555555556" xlink:href="#block"/><use x="72.2222222222" y="85.5555555556" xlink:href="#block"/><use x="85.5555555556" y="85.5555555556" xlink:href="#block"/><use x="103.3333333333" y="85.5555555556" xlink:href="#block"/><use x="143.3333333333" y="85.5555555556" xlink:href="#block"/><use x="147.7777777778" y="85.5555555556" xlink:href="#block"/><use x="152.2222222222" y="85.5555555556" xlink:href="#block"/><use x="165.5555555556" y="85.5555555556" xlink:href="#block"/><use x="170.0000000000" y="85.5555555556" xlink:href="#block"/><use x="187.7777777778" y="85.5555555556" xlink:href="#block"/><use x="192.2222222222" y="85.5555555556" xlink:href="#block"/><use x="196.6666666667" y="85.5555555556" xlink:href="#block"/><use x="201.1111111111" y="85.5555555556" xlink:href="#block"/><use x="205.5555555556" y="85.5555555556" xlink:href="#block"/><use x="27.7777777778" y="90.0000000000" xlink:href="#block"/><use x="32.2222222222" y="90.0000000000" xlink:href="#block"/><use x="36.6666666667" y="90.0000000000" xlink:href="#block"/><use x="41.1111111111" y="90.0000000000" xlink:href="#block"/><use x="50.0000000000" y="90.0000000000" xlink:href="#block"/><use x="54.4444444444" y="90.0000000000" xlink:href="#block"/><use x="63.3333333333" y="90.0000000000" xlink:href="#block"/><use x="85.5555555556" y="90.0000000000" xlink:href="#block"/><use x="90.0000000000" y="90.0000000000" xlink:href="#block"/><use x="94.4444444444" y="90.0000000000" xlink:href="#block"/><use x="98.8888888889" y="90.0000000000" xlink:href="#block"/><use x="112.2222222222" y="90.0000000000" xlink:href="#block"/><use x="116.6666666667" y="90.0000000000" xlink:href="#block"/><use x="121.1111111111" y="90.0000000000" xlink:href="#block"/><use x="125.5555555556" y="90.0000000000" xlink:href="#block"/><use x="138.8888888889" y="90.0000000000" xlink:href="#block"/><use x="143.3333333333" y="90.0000000000" xlink:href="#block"/><use x="156.6666666667" y="90.0000000000" xlink:href="#block"/><use x="174.4444444444" y="90.0000000000" xlink:href="#block"/><use x="183.3333333333" y="90.0000000000" xlink:href="#block"/><use x="10.0000000000" y="94.4444444444" xlink:href="#block"/><use x="23.3333333333" y="94.4444444444" xlink:href="#block"/><use x="32.2222222222" y="94.4444444444" xlink:href="#block"/><use x="45.5555555556" y="94.4444444444" xlink:href="#block"/><use x="72.2222222222" y="94.4444444444" xlink:href="#block"/><use x="85.5555555556" y="94.4444444444" xlink:href="#block"/><use x="103.3333333333" y="94.4444444444" xlink:href="#block"/><use x="107.7777777778" y="94.4444444444" xlink:href="#block"/><use x="121.1111111111" y="94.4444444444" xlink:href="#block"/><use x="125.5555555556" y="94.4444444444" xlink:href="#block"/><use x="130.0000000000" y="94.4444444444" xlink:href="#block"/><use x="138.8888888889" y="94.4444444444" xlink:href="#block"/><use x="152.2222222222" y="94.4444444444" xlink:href="#block"/><use x="156.6666666667" y="94.4444444444" xlink:href="#block"/><use x="165.5555555556" y="94.4444444444" xlink:href="#block"/><use x="170.0000000000" y="94.4444444444" xlink:href="#block"/><use x="187.7777777778" y="94.4444444444" xlink:href="#block"/><use x="192.2222222222" y="94.4444444444" xlink:href="#block"/><use x="205.5555555556" y="94.4444444444" xlink:href="#block"/><use x="10.0000000000" y="98.8888888889" xlink:href="#block"/><use x="18.8888888889" y="98.8888888889" xlink:href="#block"/><use x="23.3333333333" y="98.8888888889" xlink:href="#block"/><use x="27.7777777778" y="98.8888888889" xlink:href="#block"/><use x="32.2222222222" y="98.8888888889" xlink:href="#block"/><use x="36.6666666667" y="98.8888888889" xlink:href="#block"/><use x="41.1111111111" y="98.8888888889" xlink:href="#block"/><use x="45.5555555556" y="98.8888888889" xlink:href="#block"/><use x="58.8888888889" y="98.8888888889" xlink:href="#block"/><use x="63.3333333333" y="98.8888888889" xlink:href="#block"/><use x="81.1111111111" y="98.8888888889" xlink:href="#block"/><use x="90.0000000000" y="98.8888888889" xlink:href="#block"/><use x="94.4444444444" y="98.8888888889" xlink:href="#block"/><use x="98.8888888889" y="98.8888888889" xlink:href="#block"/><use x="103.3333333333" y="98.8888888889" xlink:href="#block"/><use x="107.7777777778" y="98.8888888889" xlink:href="#block"/><use x="112.2222222222" y="98.8888888889" xlink:href="#block"/><use x="116.6666666667" y="98.8888888889" xlink:href="#block"/><use x="130.0000000000" y="98.8888888889" xlink:href="#block"/><use x="147.7777777778" y="98.8888888889" xlink:href="#block"/><use x="161.1111111111" y="98.8888888889" xlink:href="#block"/><use x="165.5555555556" y="98.8888888889" xlink:href="#block"/><use x="170.0000000000" y="98.8888888889" xlink:href="#block"/><use x="174.4444444444" y="98.8888888889" xlink:href="#block"/><use x="178.8888888889" y="98.8888888889" xlink:href="#block"/><use x="183.3333333333" y="98.8888888889" xlink:href="#block"/><use x="187.7777777778" y="98.8888888889" xlink:href="#block"/><use x="192.2222222222" y="98.8888888889" xlink:href="#block"/><use x="201.1111111111" y="98.8888888889" xlink:href="#block"/><use x="18.8888888889" y="103.3333333333" xlink:href="#block"/><use x="27.7777777778" y="103.3333333333" xlink:href="#block"/><use x="45.5555555556" y="103.3333333333" xlink:href="#block"/><use x="50.0000000000" y="103.3333333333" xlink:href="#block"/><use x="63.3333333333" y="103.3333333333" xlink:href="#block"/><use x="67.7777777778" y="103.3333333333" xlink:href="#block"/><use x="94.4444444444" y="103.3333333333" xlink:href="#block"/><use x="98.8888888889" y="103.3333333333" xlink:href="#block"/><use x="116.6666666667" y="103.3333333333" xlink:href="#block"/><use x="121.1111111111" y="103.3333333333" xlink:href="#block"/><use x="138.8888888889" y="103.3333333333" xlink:href="#block"/><use x="147.7777777778" y="103.3333333333" xlink:href="#block"/><use x="152.2222222222" y="103.3333333333" xlink:href="#block"/><use x="165.5555555556" y="103.3333333333" xlink:href="#block"/><use x="170.0000000000" y="103.3333333333" xlink:href="#block"/><use x="187.7777777778" y="103.3333333333" xlink:href="#block"/><use x="196.6666666667" y="103.3333333333" xlink:href="#block"/><use x="10.0000000000" y="107.7777777778" xlink:href="#block"/><use x="18.8888888889" y="107.7777777778" xlink:href="#block"/><use x="23.3333333333" y="107.7777777778" xlink:href="#block"/><use x="27.7777777778" y="107.7777777778" xlink:href="#block"/><use x="36.6666666667" y="107.7777777778" xlink:href="#block"/><use x="45.5555555556" y="107.7777777778" xlink:href="#block"/><use x="50.0000000000" y="107.7777777778" xlink:href="#block"/><use x="58.8888888889" y="107.7777777778" xlink:href="#block"/><use x="63.3333333333" y="107.7777777778" xlink:href="#block"/><use x="67.7777777778" y="107.7777777778" xlink:href="#block"/><use x="72.2222222222" y="107.7777777778" xlink:href="#block"/><use x="90.0000000000" y="107.7777777778" xlink:href="#block"/><use x="98.8888888889" y="107.7777777778" xlink:href="#block"/><use x="107.7777777778" y="107.7777777778" xlink:href="#block"/><use x="116.6666666667" y="107.7777777778" xlink:href="#block"/><use x="143.3333333333" y="107.7777777778" xlink:href="#block"/><use x="147.7777777778" y="107.7777777778" xlink:href="#block"/><use x="161.1111111111" y="107.7777777778" xlink:href="#block"/><use x="170.0000000000" y="107.7777777778" xlink:href="#block"/><use x="178.8888888889" y="107.7777777778" xlink:href="#block"/><use x="187.7777777778" y="107.7777777778" xlink:href="#block"/><use x="192.2222222222" y="107.7777777778" xlink:href="#block"/><use x="201.1111111111" y="107.7777777778" xlink:href="#block"/><use x="23.3333333333" y="112.2222222222" xlink:href="#block"/><use x="27.7777777778" y="112.2222222222" xlink:href="#block"/><use x="45.5555555556" y="112.2222222222" xlink:href="#block"/><use x="58.8888888889" y="112.2222222222" xlink:href="#block"/><use x="63.3333333333" y="112.2222222222" xlink:href="#block"/><use x="67.7777777778" y="112.2222222222" xlink:href="#block"/><use x="81.1111111111" y="112.2222222222" xlink:href="#block"/><use x="85.5555555556" y="112.2222222222" xlink:href="#block"/><use x="90.0000000000" y="112.2222222222" xlink:href="#block"/><use x="98.8888888889" y="112.2222222222" xlink:href="#block"/><use x="116.6666666667" y="112.2222222222" xlink:href="#block"/><use x="125.5555555556" y="112.2222222222" xlink:href="#block"/><use x="130.0000000000" y="112.2222222222" xlink:href="#block"/><use x="134.4444444444" y="112.2222222222" xlink:href="#block"/><use x="138.8888888889" y="112.2222222222" xlink:href="#block"/><use x="156.6666666667" y="112.2222222222" xlink:href="#block"/><use x="170.0000000000" y="112.2222222222" xlink:href="#block"/><use x="187.7777777778" y="112.2222222222" xlink:href="#block"/><use x="205.5555555556" y="112.2222222222" xlink:href="#block"/><use x="10.0000000000" y="116.6666666667" xlink:href="#block"/><use x="14.4444444444" y="116.6666666667" xlink:href="#block"/><use x="23.3333333333" y="116.6666666667" xlink:href="#block"/><use x="27.7777777778" y="116.6666666667" xlink:href="#block"/><use x="32.2222222222" y="116.6666666667" xlink:href="#block"/><use x="36.6666666667" y="116.6666666667" xlink:href="#block"/><use x="41.1111111111" y="116.6666666667" xlink:href="#block"/><use x="45.5555555556" y="116.6666666667" xlink:href="#block"/><use x="50.0000000000" y="116.6666666667" xlink:href="#block"/><use x="58.8888888889" y="116.6666666667" xlink:href="#block"/><use x="76.6666666667" y="116.6666666667" xlink:href="#block"/><use x="85.5555555556" y="116.6666666667" xlink:href="#block"/><use x="98.8888888889" y="116.6666666667" xlink:href="#block"/><use x="103.3333333333" y="116.6666666667" xlink:href="#block"/><use x="107.7777777778" y="116.6666666667" xlink:href="#block"/><use x="112.2222222222" y="116.6666666667" xlink:href="#block"/><use x="116.6666666667" y="116.6666666667" xlink:href="#block"/><use x="130.0000000000" y="116.6666666667" xlink:href="#block"/><use x="134.4444444444" y="116.6666666667" xlink:href="#block"/><use x="138.8888888889" y="116.6666666667" xlink:href="#block"/><use x="161.1111111111" y="116.6666666667" xlink:href="#block"/><use x="165.5555555556" y="116.6666666667" xlink:href="#block"/><use x="170.0000000000" y="116.6666666667" xlink:href="#block"/><use x="174.4444444444" y="116.6666666667" xlink:href="#block"/><use x="178.8888888889" y="116.6666666667" xlink:href="#block"/><use x="183.3333333333" y="116.6666666667" xlink:href="#block"/><use x="187.7777777778" y="116.6666666667" xlink:href="#block"/><use x="192.2222222222" y="116.6666666667" xlink:href="#block"/><use x="196.6666666667" y="116.6666666667" xlink:href="#block"/><use x="205.5555555556" y="116.6666666667" xlink:href="#block"/><use x="14.4444444444" y="121.1111111111" xlink:href="#block"/><use x="18.8888888889" y="121.1111111111" xlink:href="#block"/><use x="23.3333333333" y="121.1111111111" xlink:href="#block"/><use x="27.7777777778" y="121.1111111111" xlink:href="#block"/><use x="32.2222222222" y="121.1111111111" xlink:href="#block"/><use x="45.5555555556" y="121.1111111111" xlink:href="#block"/><use x="54.4444444444" y="121.1111111111" xlink:href="#block"/><use x="58.8888888889" y="121.1111111111" xlink:href="#block"/><use x="63.3333333333" y="121.1111111111" xlink:href="#block"/><use x="67.7777777778" y="121.1111111111" xlink:href="#block"/><use x="72.2222222222" y="121.1111111111" xlink:href="#block"/><use x="81.1111111111" y="121.1111111111" xlink:href="#block"/><use x="85.5555555556" y="121.1111111111" xlink:href="#block"/><use x="90.0000000000" y="121.1111111111" xlink:href="#block"/><use x="107.7777777778" y="121.1111111111" xlink:href="#block"/><use x="134.4444444444" y="121.1111111111" xlink:href="#block"/><use x="143.3333333333" y="121.1111111111" xlink:href="#block"/><use x="156.6666666667" y="121.1111111111" xlink:href="#block"/><use x="165.5555555556" y="121.1111111111" xlink:href="#block"/><use x="174.4444444444" y="121.1111111111" xlink:href="#block"/><use x="178.8888888889" y="121.1111111111" xlink:href="#block"/><use x="187.7777777778" y="121.1111111111" xlink:href="#block"/><use x="196.6666666667" y="121.1111111111" xlink:href="#block"/><use x="201.1111111111" y="121.1111111111" xlink:href="#block"/><use x="10.0000000000" y="125.5555555556" xlink:href="#block"/><use x="18.8888888889" y="125.5555555556" xlink:href="#block"/><use x="23.3333333333" y="125.5555555556" xlink:href="#block"/><use x="27.7777777778" y="125.5555555556" xlink:href="#block"/><use x="36.6666666667" y="125.5555555556" xlink:href="#block"/><use x="41.1111111111" y="125.5555555556" xlink:href="#block"/><use x="50.0000000000" y="125.5555555556" xlink:href="#block"/><use x="54.4444444444" y="125.5555555556" xlink:href="#block"/><use x="98.8888888889" y="125.5555555556" xlink:href="#block"/><use x="112.2222222222" y="125.5555555556" xlink:href="#block"/><use x="116.6666666667" y="125.5555555556" xlink:href="#block"/><use x="125.5555555556" y="125.5555555556" xlink:href="#block"/><use x="134.4444444444" y="125.5555555556" xlink:href="#block"/><use x="138.8888888889" y="125.5555555556" xlink:href="#block"/><use x="143.3333333333" y="125.5555555556" xlink:href="#block"/><use x="161.1111111111" y="125.5555555556" xlink:href="#block"/><use x="183.3333333333" y="125.5555555556" xlink:href="#block"/><use x="187.7777777778" y="125.5555555556" xlink:href="#block"/><use x="192.2222222222" y="125.5555555556" xlink:href="#block"/><use x="201.1111111111" y="125.5555555556" xlink:href="#block"/><use x="14.4444444444" y="130.0000000000" xlink:href="#block"/><use x="45.5555555556" y="130.0000000000" xlink:href="#block"/><use x="50.0000000000" y="130.0000000000" xlink:href="#block"/><use x="63.3333333333" y="130.0000000000" xlink:href="#block"/><use x="67.7777777778" y="130.0000000000" xlink:href="#block"/><use x="76.6666666667" y="130.0000000000" xlink:href="#block"/><use x="103.3333333333" y="130.0000000000" xlink:href="#block"/><use x="107.7777777778" y="130.0000000000" xlink:href="#block"/><use x="112.2222222222" y="130.0000000000" xlink:href="#block"/><use x="121.1111111111" y="130.0000000000" xlink:href="#block"/><use x="130.0000000000" y="130.0000000000" xlink:href="#block"/><use x="134.4444444444" y="130.0000000000" xlink:href="#block"/><use x="143.3333333333" y="130.0000000000" xlink:href="#block"/><use x="147.7777777778" y="130.0000000000" xlink:href="#block"/><use x="152.2222222222" y="130.0000000000" xlink:href="#block"/><use x="156.6666666667" y="130.0000000000" xlink:href="#block"/><use x="174.4444444444" y="130.0000000000" xlink:href="#block"/><use x="183.3333333333" y="130.0000000000" xlink:href="#block"/><use x="192.2222222222" y="130.0000000000" xlink:href="#block"/><use x="196.6666666667" y="130.0000000000" xlink:href="#block"/><use x="205.5555555556" y="130.0000000000" xlink:href="#block"/><use x="14.4444444444" y="134.4444444444" xlink:href="#block"/><use x="18.8888888889" y="134.4444444444" xlink:href="#block"/><use x="23.3333333333" y="134.4444444444" xlink:href="#block"/><use x="36.6666666667" y="134.4444444444" xlink:href="#block"/><use x="41.1111111111" y="134.4444444444" xlink:href="#block"/><use x="50.0000000000" y="134.4444444444" xlink:href="#block"/><use x="54.4444444444" y="134.4444444444" xlink:href="#block"/><use x="58.8888888889" y="134.4444444444" xlink:href="#block"/><use x="72.2222222222" y="134.4444444444" xlink:href="#block"/><use x="76.6666666667" y="134.4444444444" xlink:href="#block"/><use x="81.1111111111" y="134.4444444444" xlink:href="#block"/><use x="85.5555555556" y="134.4444444444" xlink:href="#block"/><use x="98.8888888889" y="134.4444444444" xlink:href="#block"/><use x="103.3333333333" y="134.4444444444" xlink:href="#block"/><use x="134.4444444444" y="134.4444444444" xlink:href="#block"/><use x="143.3333333333" y="134.4444444444" xlink:href="#block"/><use x="156.6666666667" y="134.4444444444" xlink:href="#block"/><use x="161.1111111111" y="134.4444444444" xlink:href="#block"/><use x="174.4444444444" y="134.4444444444" xlink:href="#block"/><use x="183.3333333333" y="134.4444444444" xlink:href="#block"/><use x="201.1111111111" y="134.4444444444" xlink:href="#block"/><use x="10.0000000000" y="138.8888888889" xlink:href="#block"/><use x="23.3333333333" y="138.8888888889" xlink:href="#block"/><use x="32.2222222222" y="138.8888888889" xlink:href="#block"/><use x="50.0000000000" y="138.8888888889" xlink:href="#block"/><use x="58.8888888889" y="138.8888888889" xlink:href="#block"/><use x="81.1111111111" y="138.8888888889" xlink:href="#block"/><use x="90.0000000000" y="138.8888888889" xlink:href="#block"/><use x="94.4444444444" y="138.8888888889" xlink:href="#block"/><use x="116.6666666667" y="138.8888888889" xlink:href="#block"/><use x="130.0000000000" y="138.8888888889" xlink:href="#block"/><use x="138.8888888889" y="138.8888888889" xlink:href="#block"/><use x="143.3333333333" y="138.8888888889" xlink:href="#block"/><use x="147.7777777778" y="138.8888888889" xlink:href="#block"/><use x="152.2222222222" y="138.8888888889" xlink:href="#block"/><use x="161.1111111111" y="138.8888888889" xlink:href="#block"/><use x="165.5555555556" y="138.8888888889" xlink:href="#block"/><use x="170.0000000000" y="138.8888888889" xlink:href="#block"/><use x="178.8888888889" y="138.8888888889" xlink:href="#block"/><use x="196.6666666667" y="138.8888888889" xlink:href="#block"/><use x="201.1111111111" y="138.8888888889" xlink:href="#block"/><use x="18.8888888889" y="143.3333333333" xlink:href="#block"/><use x="27.7777777778" y="143.3333333333" xlink:href="#block"/><use x="32.2222222222" y="143.3333333333" xlink:href="#block"/><use x="36.6666666667" y="143.3333333333" xlink:href="#block"/><use x="50.0000000000" y="143.3333333333" xlink:href="#block"/><use x="54.4444444444" y="143.3333333333" xlink:href="#block"/><use x="63.3333333333" y="143.3333333333" xlink:href="#block"/><use x="76.6666666667" y="143.3333333333" xlink:href="#block"/><use x="85.5555555556" y="143.3333333333" xlink:href="#block"/><use x="98.8888888889" y="143.3333333333" xlink:href="#block"/><use x="103.3333333333" y="143.3333333333" xlink:href="#block"/><use x="112.2222222222" y="143.3333333333" xlink:href="#block"/><use x="138.8888888889" y="143.3333333333" xlink:href="#block"/><use x="161.1111111111" y="143.3333333333" xlink:href="#block"/><use x="170.0000000000" y="143.3333333333" xlink:href="#block"/><use x="174.4444444444" y="143.3333333333" xlink:href="#block"/><use x="187.7777777778" y="143.3333333333" xlink:href="#block"/><use x="192.2222222222" y="143.3333333333" xlink:href="#block"/><use x="205.5555555556" y="143.3333333333" xlink:href="#block"/><use x="18.8888888889" y="147.7777777778" xlink:href="#block"/><use x="27.7777777778" y="147.7777777778" xlink:href="#block"/><use x="50.0000000000" y="147.7777777778" xlink:href="#block"/><use x="63.3333333333" y="147.7777777778" xlink:href="#block"/><use x="72.2222222222" y="147.7777777778" xlink:href="#block"/><use x="76.6666666667" y="147.7777777778" xlink:href="#block"/><use x="103.3333333333" y="147.7777777778" xlink:href="#block"/><use x="107.7777777778" y="147.7777777778" xlink:href="#block"/><use x="112.2222222222" y="147.7777777778" xlink:href="#block"/><use x="116.6666666667" y="147.7777777778" xlink:href="#block"/><use x="121.1111111111" y="147.7777777778" xlink:href="#block"/><use x="130.0000000000" y="147.7777777778" xlink:href="#block"/><use x="134.4444444444" y="147.7777777778" xlink:href="#block"/><use x="152.2222222222" y="147.7777777778" xlink:href="#block"/><use x="165.5555555556" y="147.7777777778" xlink:href="#block"/><use x="170.0000000000" y="147.7777777778" xlink:href="#block"/><use x="196.6666666667" y="147.7777777778" xlink:href="#block"/><use x="201.1111111111" y="147.7777777778" xlink:href="#block"/><use x="205.5555555556" y="147.7777777778" xlink:href="#block"/><use x="10.0000000000" y="152.2222222222" xlink:href="#block"/><use x="14.4444444444" y="152.2222222222" xlink:href="#block"/><use x="18.8888888889" y="152.2222222222" xlink:href="#block"/><use x="27.7777777778" y="152.2222222222" xlink:href="#block"/><use x="36.6666666667" y="152.2222222222" xlink:href="#block"/><use x="45.5555555556" y="152.2222222222" xlink:href="#block"/><use x="50.0000000000" y="152.2222222222" xlink:href="#block"/><use x="58.8888888889" y="152.2222222222" xlink:href="#block"/><use x="72.2222222222" y="152.2222222222" xlink:href="#block"/><use x="81.1111111111" y="152.2222222222" xlink:href="#block"/><use x="85.5555555556" y="152.2222222222" xlink:href="#block"/><use x="90.0000000000" y="152.2222222222" xlink:href="#block"/><use x="98.8888888889" y="152.2222222222" xlink:href="#block"/><use x="116.6666666667" y="152.2222222222" xlink:href="#block"/><use x="125.5555555556" y="152.2222222222" xlink:href="#block"/><use x="134.4444444444" y="152.2222222222" xlink:href="#block"/><use x="138.8888888889" y="152.2222222222" xlink:href="#block"/><use x="143.3333333333" y="152.2222222222" xlink:href="#block"/><use x="147.7777777778" y="152.2222222222" xlink:href="#block"/><use x="156.6666666667" y="152.2222222222" xlink:href="#block"/><use x="161.1111111111" y="152.2222222222" xlink:href="#block"/><use x="170.0000000000" y="152.2222222222" xlink:href="#block"/><use x="196.6666666667" y="152.2222222222" xlink:href="#block"/><use x="14.4444444444" y="156.6666666667" xlink:href="#block"/><use x="27.7777777778" y="156.6666666667" xlink:href="#block"/><use x="41.1111111111" y="156.6666666667" xlink:href="#block"/><use x="63.3333333333" y="156.6666666667" xlink:href="#block"/><use x="67.7777777778" y="156.6666666667" xlink:href="#block"/><use x="72.2222222222" y="156.6666666667" xlink:href="#block"/><use x="94.4444444444" y="156.6666666667" xlink:href="#block"/><use x="103.3333333333" y="156.6666666667" xlink:href="#block"/><use x="112.2222222222" y="156.6666666667" xlink:href="#block"/><use x="116.6666666667" y="156.6666666667" xlink:href="#block"/><use x="134.4444444444" y="156.6666666667" xlink:href="#block"/><use x="143.3333333333" y="156.6666666667" xlink:href="#block"/><use x="147.7777777778" y="156.6666666667" xlink:href="#block"/><use x="152.2222222222" y="156.6666666667" xlink:href="#block"/><use x="161.1111111111" y="156.6666666667" xlink:href="#block"/><use x="165.5555555556" y="156.6666666667" xlink:href="#block"/><use x="174.4444444444" y="156.6666666667" xlink:href="#block"/><use x="178.8888888889" y="156.6666666667" xlink:href="#block"/><use x="183.3333333333" y="156.6666666667" xlink:href="#block"/><use x="187.7777777778" y="156.6666666667" xlink:href="#block"/><use x="192.2222222222" y="156.6666666667" xlink:href="#block"/><use x="196.6666666667" y="156.6666666667" xlink:href="#block"/><use x="27.7777777778" y="161.1111111111" xlink:href="#block"/><use x="36.6666666667" y="161.1111111111" xlink:href="#block"/><use x="58.8888888889" y="161.1111111111" xlink:href="#block"/><use x="63.3333333333" y="161.1111111111" xlink:href="#block"/><use x="67.7777777778" y="161.1111111111" xlink:href="#block"/><use x="81.1111111111" y="161.1111111111" xlink:href="#block"/><use x="85.5555555556" y="161.1111111111" xlink:href="#block"/><use x="90.0000000000" y="161.1111111111" xlink:href="#block"/><use x="138.8888888889" y="161.1111111111" xlink:href="#block"/><use x="143.3333333333" y="161.1111111111" xlink:href="#block"/><use x="161.1111111111" y="161.1111111111" xlink:href="#block"/><use x="174.4444444444" y="161.1111111111" xlink:href="#block"/><use x="187.7777777778" y="161.1111111111" xlink:href="#block"/><use x="201.1111111111" y="161.1111111111" xlink:href="#block"/><use x="14.4444444444" y="165.5555555556" xlink:href="#block"/><use x="18.8888888889" y="165.5555555556" xlink:href="#block"/><use x="23.3333333333" y="165.5555555556" xlink:href="#block"/><use x="27.7777777778" y="165.5555555556" xlink:href="#block"/><use x="41.1111111111" y="165.5555555556" xlink:href="#block"/><use x="45.5555555556" y="165.5555555556" xlink:href="#block"/><use x="50.0000000000" y="165.5555555556" xlink:href="#block"/><use x="54.4444444444" y="165.5555555556" xlink:href="#block"/><use x="58.8888888889" y="165.5555555556" xlink:href="#block"/><use x="72.2222222222" y="165.5555555556" xlink:href="#block"/><use x="81.1111111111" y="165.5555555556" xlink:href="#block"/><use x="85.5555555556" y="165.5555555556" xlink:href="#block"/><use x="90.0000000000" y="165.5555555556" xlink:href="#block"/><use x="103.3333333333" y="165.5555555556" xlink:href="#block"/><use x="107.7777777778" y="165.5555555556" xlink:href="#block"/><use x="112.2222222222" y="165.5555555556" xlink:href="#block"/><use x="116.6666666667" y="165.5555555556" xlink:href="#block"/><use x="125.5555555556" y="165.5555555556" xlink:href="#block"/><use x="130.0000000000" y="165.5555555556" xlink:href="#block"/><use x="147.7777777778" y="165.5555555556" xlink:href="#block"/><use x="156.6666666667" y="165.5555555556" xlink:href="#block"/><use x="170.0000000000" y="165.5555555556" xlink:href="#block"/><use x="174.4444444444" y="165.5555555556" xlink:href="#block"/><use x="178.8888888889" y="165.5555555556" xlink:href="#block"/><use x="183.3333333333" y="165.5555555556" xlink:href="#block"/><use x="201.1111111111" y="165.5555555556" xlink:href="#block"/><use x="205.5555555556" y="165.5555555556" xlink:href="#block"/><use x="10.0000000000" y="170.0000000000" xlink:href="#block"/><use x="23.3333333333" y="170.0000000000" xlink:href="#block"/><use x="27.7777777778" y="170.0000000000" xlink:href="#block"/><use x="36.6666666667" y="170.0000000000" xlink:href="#block"/><use x="41.1111111111" y="170.0000000000" xlink:href="#block"/><use x="50.0000000000" y="170.0000000000" xlink:href="#block"/><use x="63.3333333333" y="170.0000000000" xlink:href="#block"/><use x="72.2222222222" y="170.0000000000" xlink:href="#block"/><use x="81.1111111111" y="170.0000000000" xlink:href="#block"/><use x="85.5555555556" y="170.0000000000" xlink:href="#block"/><use x="90.0000000000" y="170.0000000000" xlink:href="#block"/><use x="98.8888888889" y="170.0000000000" xlink:href="#block"/><use x="103.3333333333" y="170.0000000000" xlink:href="#block"/><use x="107.7777777778" y="170.0000000000" xlink:href="#block"/><use x="112.2222222222" y="170.0000000000" xlink:href="#block"/><use x="116.6666666667" y="170.0000000000" xlink:href="#block"/><use x="130.0000000000" y="170.0000000000" xlink:href="#block"/><use x="134.4444444444" y="170.0000000000" xlink:href="#block"/><use x="138.8888888889" y="170.0000000000" xlink:href="#block"/><use x="147.7777777778" y="170.0000000000" xlink:href="#block"/><use x="152.2222222222" y="170.0000000000" xlink:href="#block"/><use x="161.1111111111" y="170.0000000000" xlink:href="#block"/><use x="165.5555555556" y="170.0000000000" xlink:href="#block"/><use x="170.0000000000" y="170.0000000000" xlink:href="#block"/><use x="174.4444444444" y="170.0000000000" xlink:href="#block"/><use x="178.8888888889" y="170.0000000000" xlink:href="#block"/><use x="183.3333333333" y="170.0000000000" xlink:href="#block"/><use x="187.7777777778" y="170.0000000000" xlink:href="#block"/><use x="196.6666666667" y="170.0000000000" xlink:href="#block"/><use x="45.5555555556" y="174.4444444444" xlink:href="#block"/><use x="54.4444444444" y="174.4444444444" xlink:href="#block"/><use x="58.8888888889" y="174.4444444444" xlink:href="#block"/><use x="63.3333333333" y="174.4444444444" xlink:href="#block"/><use x="72.2222222222" y="174.4444444444" xlink:href="#block"/><use x="81.1111111111" y="174.4444444444" xlink:href="#block"/><use x="85.5555555556" y="174.4444444444" xlink:href="#block"/><use x="90.0000000000" y="174.4444444444" xlink:href="#block"/><use x="98.8888888889" y="174.4444444444" xlink:href="#block"/><use x="116.6666666667" y="174.4444444444" xlink:href="#block"/><use x="121.1111111111" y="174.4444444444" xlink:href="#block"/><use x="125.5555555556" y="174.4444444444" xlink:href="#block"/><use x="138.8888888889" y="174.4444444444" xlink:href="#block"/><use x="152.2222222222" y="174.4444444444" xlink:href="#block"/><use x="165.5555555556" y="174.4444444444" xlink:href="#block"/><use x="170.0000000000" y="174.4444444444" xlink:href="#block"/><use x="187.7777777778" y="174.4444444444" xlink:href="#block"/><use x="192.2222222222" y="174.4444444444" xlink:href="#block"/><use x="196.6666666667" y="174.4444444444" xlink:href="#block"/><use x="205.5555555556" y="174.4444444444" xlink:href="#block"/><use x="10.0000000000" y="178.8888888889" xlink:href="#block"/><use x="14.4444444444" y="178.8888888889" xlink:href="#block"/><use x="18.8888888889" y="178.8888888889" xlink:href="#block"/><use x="23.3333333333" y="178.8888888889" xlink:href="#block"/><use x="27.7777777778" y="178.8888888889" xlink:href="#block"/><use x="32.2222222222" y="178.8888888889" xlink:href="#block"/><use x="36.6666666667" y="178.8888888889" xlink:href="#block"/><use x="54.4444444444" y="178.8888888889" xlink:href="#block"/><use x="58.8888888889" y="178.8888888889" xlink:href="#block"/><use x="76.6666666667" y="178.8888888889" xlink:href="#block"/><use x="81.1111111111" y="178.8888888889" xlink:href="#block"/><use x="85.5555555556" y="178.8888888889" xlink:href="#block"/><use x="98.8888888889" y="178.8888888889" xlink:href="#block"/><use x="107.7777777778" y="178.8888888889" xlink:href="#block"/><use x="116.6666666667" y="178.8888888889" xlink:href="#block"/><use x="130.0000000000" y="178.8888888889" xlink:href="#block"/><use x="138.8888888889" y="178.8888888889" xlink:href="#block"/><use x="165.5555555556" y="178.8888888889" xlink:href="#block"/><use x="170.0000000000" y="178.8888888889" xlink:href="#block"/><use x="178.8888888889" y="178.8888888889" xlink:href="#block"/><use x="187.7777777778" y="178.8888888889" xlink:href="#block"/><use x="201.1111111111" y="178.8888888889" xlink:href="#block"/><use x="205.5555555556" y="178.8888888889" xlink:href="#block"/><use x="10.0000000000" y="183.3333333333" xlink:href="#block"/><use x="36.6666666667" y="183.3333333333" xlink:href="#block"/><use x="50.0000000000" y="183.3333333333" xlink:href="#block"/><use x="54.4444444444" y="183.3333333333" xlink:href="#block"/><use x="67.7777777778" y="183.3333333333" xlink:href="#block"/><use x="72.2222222222" y="183.3333333333" xlink:href="#block"/><use x="94.4444444444" y="183.3333333333" xlink:href="#block"/><use x="98.8888888889" y="183.3333333333" xlink:href="#block"/><use x="116.6666666667" y="183.3333333333" xlink:href="#block"/><use x="121.1111111111" y="183.3333333333" xlink:href="#block"/><use x="134.4444444444" y="183.3333333333" xlink:href="#block"/><use x="138.8888888889" y="183.3333333333" xlink:href="#block"/><use x="147.7777777778" y="183.3333333333" xlink:href="#block"/><use x="152.2222222222" y="183.3333333333" xlink:href="#block"/><use x="156.6666666667" y="183.3333333333" xlink:href="#block"/><use x="170.0000000000" y="183.3333333333" xlink:href="#block"/><use x="187.7777777778" y="183.3333333333" xlink:href="#block"/><use x="192.2222222222" y="183.3333333333" xlink:href="#block"/><use x="205.5555555556" y="183.3333333333" xlink:href="#block"/><use x="10.0000000000" y="187.7777777778" xlink:href="#block"/><use x="18.8888888889" y="187.7777777778" xlink:href="#block"/><use x="23.3333333333" y="187.7777777778" xlink:href="#block"/><use x="27.7777777778" y="187.7777777778" xlink:href="#block"/><use x="36.6666666667" y="187.7777777778" xlink:href="#block"/><use x="45.5555555556" y="187.7777777778" xlink:href="#block"/><use x="50.0000000000" y="187.7777777778" xlink:href="#block"/><use x="63.3333333333" y="187.7777777778" xlink:href="#block"/><use x="90.0000000000" y="187.7777777778" xlink:href="#block"/><use x="98.8888888889" y="187.7777777778" xlink:href="#block"/><use x="103.3333333333" y="187.7777777778" xlink:href="#block"/><use x="107.7777777778" y="187.7777777778" xlink:href="#block"/><use x="112.2222222222" y="187.7777777778" xlink:href="#block"/><use x="116.6666666667" y="187.7777777778" xlink:href="#block"/><use x="130.0000000000" y="187.7777777778" xlink:href="#block"/><use x="147.7777777778" y="187.7777777778" xlink:href="#block"/><use x="152.2222222222" y="187.7777777778" xlink:href="#block"/><use x="161.1111111111" y="187.7777777778" xlink:href="#block"/><use x="170.0000000000" y="187.7777777778" xlink:href="#block"/><use x="174.4444444444" y="187.7777777778" xlink:href="#block"/><use x="178.8888888889" y="187.7777777778" xlink:href="#block"/><use x="183.3333333333" y="187.7777777778" xlink:href="#block"/><use x="187.7777777778" y="187.7777777778" xlink:href="#block"/><use x="192.2222222222" y="187.7777777778" xlink:href="#block"/><use x="196.6666666667" y="187.7777777778" xlink:href="#block"/><use x="10.0000000000" y="192.2222222222" xlink:href="#block"/><use x="18.8888888889" y="192.2222222222" xlink:href="#block"/><use x="23.3333333333" y="192.2222222222" xlink:href="#block"/><use x="27.7777777778" y="192.2222222222" xlink:href="#block"/><use x="36.6666666667" y="192.2222222222" xlink:href="#block"/><use x="45.5555555556" y="192.2222222222" xlink:href="#block"/><use x="50.0000000000" y="192.2222222222" xlink:href="#block"/><use x="54.4444444444" y="192.2222222222" xlink:href="#block"/><use x="58.8888888889" y="192.2222222222" xlink:href="#block"/><use x="63.3333333333" y="192.2222222222" xlink:href="#block"/><use x="72.2222222222" y="192.2222222222" xlink:href="#block"/><use x="76.6666666667" y="192.2222222222" xlink:href="#block"/><use x="81.1111111111" y="192.2222222222" xlink:href="#block"/><use x="85.5555555556" y="192.2222222222" xlink:href="#block"/><use x="98.8888888889" y="192.2222222222" xlink:href="#block"/><use x="112.2222222222" y="192.2222222222" xlink:href="#block"/><use x="116.6666666667" y="192.2222222222" xlink:href="#block"/><use x="121.1111111111" y="192.2222222222" xlink:href="#block"/><use x="125.5555555556" y="192.2222222222" xlink:href="#block"/><use x="143.3333333333" y="192.2222222222" xlink:href="#block"/><use x="152.2222222222" y="192.2222222222" xlink:href="#block"/><use x="156.6666666667" y="192.2222222222" xlink:href="#block"/><use x="165.5555555556" y="192.2222222222" xlink:href="#block"/><use x="170.0000000000" y="192.2222222222" xlink:href="#block"/><use x="174.4444444444" y="192.2222222222" xlink:href="#block"/><use x="196.6666666667" y="192.2222222222" xlink:href="#block"/><use x="201.1111111111" y="192.2222222222" xlink:href="#block"/><use x="10.0000000000" y="196.6666666667" xlink:href="#block"/><use x="18.8888888889" y="196.6666666667" xlink:href="#block"/><use x="23.3333333333" y="196.6666666667" xlink:href="#block"/><use x="27.7777777778" y="196.6666666667" xlink:href="#block"/><use x="36.6666666667" y="196.6666666667" xlink:href="#block"/><use x="45.5555555556" y="196.6666666667" xlink:href="#block"/><use x="58.8888888889" y="196.6666666667" xlink:href="#block"/><use x="67.7777777778" y="196.6666666667" xlink:href="#block"/><use x="76.6666666667" y="196.6666666667" xlink:href="#block"/><use x="85.5555555556" y="196.6666666667" xlink:href="#block"/><use x="98.8888888889" y="196.6666666667" xlink:href="#block"/><use x="112.2222222222" y="196.6666666667" xlink:href="#block"/><use x="130.0000000000" y="196.6666666667" xlink:href="#block"/><use x="138.8888888889" y="196.6666666667" xlink:href="#block"/><use x="143.3333333333" y="196.6666666667" xlink:href="#block"/><use x="165.5555555556" y="196.6666666667" xlink:href="#block"/><use x="170.0000000000" y="196.6666666667" xlink:href="#block"/><use x="174.4444444444" y="196.6666666667" xlink:href="#block"/><use x="178.8888888889" y="196.6666666667" xlink:href="#block"/><use x="192.2222222222" y="196.6666666667" xlink:href="#block"/><use x="10.0000000000" y="201.1111111111" xlink:href="#block"/><use x="36.6666666667" y="201.1111111111" xlink:href="#block"/><use x="50.0000000000" y="201.1111111111" xlink:href="#block"/><use x="54.4444444444" y="201.1111111111" xlink:href="#block"/><use x="58.8888888889" y="201.1111111111" xlink:href="#block"/><use x="63.3333333333" y="201.1111111111" xlink:href="#block"/><use x="76.6666666667" y="201.1111111111" xlink:href="#block"/><use x="107.7777777778" y="201.1111111111" xlink:href="#block"/><use x="121.1111111111" y="201.1111111111" xlink:href="#block"/><use x="134.4444444444" y="201.1111111111" xlink:href="#block"/><use x="165.5555555556" y="201.1111111111" xlink:href="#block"/><use x="187.7777777778" y="201.1111111111" xlink:href="#block"/><use x="192.2222222222" y="201.1111111111" xlink:href="#block"/><use x="196.6666666667" y="201.1111111111" xlink:href="#block"/><use x="201.1111111111" y="201.1111111111" xlink:href="#block"/><use x="205.5555555556" y="201.1111111111" xlink:href="#block"/><use x="10.0000000000" y="205.5555555556" xlink:href="#block"/><use x="14.4444444444" y="205.5555555556" xlink:href="#block"/><use x="18.8888888889" y="205.5555555556" xlink:href="#block"/><use x="23.3333333333" y="205.5555555556" xlink:href="#block"/><use x="27.7777777778" y="205.5555555556" xlink:href="#block"/><use x="32.2222222222" y="205.5555555556" xlink:href="#block"/><use x="36.6666666667" y="205.5555555556" xlink:href="#block"/><use x="58.8888888889" y="205.5555555556" xlink:href="#block"/><use x="72.2222222222" y="205.5555555556" xlink:href="#block"/><use x="76.6666666667" y="205.5555555556" xlink:href="#block"/><use x="85.5555555556" y="205.5555555556" xlink:href="#block"/><use x="98.8888888889" y="205.5555555556" xlink:href="#block"/><use x="125.5555555556" y="205.5555555556" xlink:href="#block"/><use x="134.4444444444" y="205.5555555556" xlink:href="#block"/><use x="138.8888888889" y="205.5555555556" xlink:href="#block"/><use x="147.7777777778" y="205.5555555556" xlink:href="#block"/><use x="156.6666666667" y="205.5555555556" xlink:href="#block"/><use x="161.1111111111" y="205.5555555556" xlink:href="#block"/><use x="165.5555555556" y="205.5555555556" xlink:href="#block"/><use x="170.0000000000" y="205.5555555556" xlink:href="#block"/><use x="183.3333333333" y="205.5555555556" xlink:href="#block"/><use x="192.2222222222" y="205.5555555556" xlink:href="#block"/><use x="196.6666666667" y="205.5555555556" xlink:href="#block"/><use x="201.1111111111" y="205.5555555556" xlink:href="#block"/></svg>
