<?xml version="1.0"?>
<svg xmlns="http://www.w3.org/2000/svg" xmlns:xlink="http://www.w3.org/1999/xlink" version="1.1" width="220px" height="220px" viewBox="0 0 220 220"><defs><rect id="block" width="6.0606060606" height="6.0606060606" fill="#000000" fill-opacity="1"/></defs><rect x="0" y="0" width="220" height="220" fill="#ffffff" fill-opacity="1"/><use x="10.0000000000" y="10.0000000000" xlink:href="#block"/><use x="16.0606060606" y="10.0000000000" xlink:href="#block"/><use x="22.1212121212" y="10.0000000000" xlink:href="#block"/><use x="28.1818181818" y="10.0000000000" xlink:href="#block"/><use x="34.2424242424" y="10.0000000000" xlink:href="#block"/><use x="40.3030303030" y="10.0000000000" xlink:href="#block"/><use x="46.3636363636" y="10.0000000000" xlink:href="#block"/><use x="70.6060606061" y="10.0000000000" xlink:href="#block"/><use x="82.7272727273" y="10.0000000000" xlink:href="#block"/><use x="88.7878787879" y="10.0000000000" xlink:href="#block"/><use x="94.8484848485" y="10.0000000000" xlink:href="#block"/><use x="106.9696969697" y="10.0000000000" xlink:href="#block"/><use x="113.0303030303" y="10.0000000000" xlink:href="#block"/><use x="125.1515151515" y="10.0000000000" xlink:href="#block"/><use x="131.2121212121" y="10.0000000000" xlink:href="#block"/><use x="137.2727272727" y="10.0000000000" xlink:href="#block"/><use x="155.4545454545" y="10.0000000000" xlink:href="#block"/><use x="167.5757575758" y="10.0000000000" xlink:href="#block"/><use x="173.6363636364" y="10.0000000000" xlink:href="#block"/><use x="179.6969696970" y="10.0000000000" xlink:href="#block"/><use x="185.7575757576" y="10.0000000000" xlink:href="#block"/><use x="191.8181818182" y="10.0000000000" xlink:href="#block"/><use x="197.8787878788" y="10.0000000000" xlink:href="#block"/><use x="203.9393939394" y="10.0000000000" xlink:href="#block"/><use x="10.0000000000" y="16.0606060606" xlink:href="#block"/><use x="46.3636363636" y="16.0606060606" xlink:href="#block"/><use x="58.4848484848" y="16.0606060606" xlink:href="#block"/><use x="64.5454545455" y="16.0606060606" xlink:href="#block"/><use x="76.6666666667" y="16.0606060606" xlink:href="#block"/><use x="106.9696969697" y="16.0606060606" xlink:href="#block"/><use x="113.0303030303" y="16.0606060606" xlink:href="#block"/><use x="119.0909090909" y="16.0606060606" xlink:href="#block"/><use x="125.1515151515" y="16.0606060606" xlink:href="#block"/><use x="137.2727272727" y="16.0606060606" xlink:href="#block"/><use x="143.3333333333" y="16.0606060606" xlink:href="#block"/><use x="155.4545454545" y="16.0606060606" xlink:href="#block"/><use x="167.5757575758" y="16.0606060606" xlink:href="#block"/><use x="203.9393939394" y="16.0606060606" xlink:href="#block"/><use x="10.0000000000" y="22.1212121212" xlink:href="#block"/><use x="22.1212121212" y="22.1212121212" xlink:href="#block"/><use x="28.1818181818" y="22.1212121212" xlink:href="#block"/><use x="34.2424242424" y="22.1212121212" xlink:href="#block"/><use x="46.3636363636" y="22.1212121212" xlink:href="#block"/><use x="58.4848484848" y="22.1212121212" xlink:href="#block"/><use x="76.6666666667" y="22.1212121212" xlink:href="#block"/><use x="82.7272727273" y="22.1212121212" xlink:href="#block"/><use x="88.7878787879" y="22.1212121212" xlink:href="#block"/><use x="100.9090909091" y="22.1212121212" xlink:href="#block"/><use x="106.9696969697" y="22.1212121212" xlink:href="#block"/><use x="119.0909090909" y="22.1212121212" xlink:href="#block"/><use x="125.1515151515" y="22.1212121212" xlink:href="#block"/><use x="131.2121212121" y="22.1212121212" xlink:href="#block"/><use x="167.5757575758" y="22.1212121212" xlink:href="#block"/><use x="179.6969696970" y="22.1212121212" xlink:href="#block"/><use x="185.7575757576" y="22.1212121212" xlink:href="#block"/><use x="191.8181818182" y="22.1212121212" xlink:href="#block"/><use x="203.9393939394" y="22.1212121212" xlink:href="#block"/><use x="10.0000000000" y="28.1818181818" xlink:href="#block"/><use x="22.1212121212" y="28.1818181818" xlink:href="#block"/><use x="28.1818181818" y="28.1818181818" xlink:href="#block"/><use x="34.2424242424" y="28.1818181818" xlink:href="#block"/><use x="46.3636363636" y="28.1818181818" xlink:href="#block"/><use x="58.4848484848" y="28.1818181818" xlink:href="#block"/><use x="70.6060606061" y="28.1818181818" xlink:href="#block"/><use x="82.7272727273" y="28.1818181818" xlink:href="#block"/><use x="88.7878787879" y="28.1818181818" xlink:href="#block"/><use x="94.8484848485" y="28.1818181818" xlink:href="#block"/><use x="100.9090909091" y="28.1818181818" xlink:href="#block"/><use x="119.0909090909" y="28.1818181818" xlink:href="#block"/><use x="137.2727272727" y="28.1818181818" xlink:href="#block"/><use x="155.4545454545" y="28.1818181818" xlink:href="#block"/><use x="167.5757575758" y="28.1818181818" xlink:href="#block"/><use x="179.6969696970" y="28.1818181818" xlink:href="#block"/><use x="185.7575757576" y="28.1818181818" xlink:href="#block"/><use x="191.8181818182" y="28.1818181818" xlink:href="#block"/><use x="203.9393939394" y="28.1818181818" xlink:href="#block"/><use x="10.0000000000" y="34.2424242424" xlink:href="#block"/><use x="22.1212121212" y="34.2424242424" xlink:href="#block"/><use x="28.1818181818" y="34.2424242424" xlink:href="#block"/><use x="34.2424242424" y="34.2424242424" xlink:href="#block"/><use x="46.3636363636" y="34.2424242424" xlink:href="#block"/><use x="58.4848484848" y="34.2424242424" xlink:href="#block"/><use x="64.5454545455" y="34.2424242424" xlink:href="#block"/><use x="76.6666666667" y="34.2424242424" xlink:href="#block"/><use x="82.7272727273" y="34.2424242424" xlink:href="#block"/><use x="94.8484848485" y="34.2424242424" xlink:href="#block"/><use x="100.9090909091" y="34.2424242424" xlink:href="#block"/><use x="106.9696969697" y="34.2424242424" xlink:href="#block"/><use x="113.0303030303" y="34.2424242424" xlink:href="#block"/><use x="125.1515151515" y="34.2424242424" xlink:href="#block"/><use x="137.2727272727" y="34.2424242424" xlink:href="#block"/><use x="143.3333333333" y="34.2424242424" xlink:href="#block"/><use x="149.3939393939" y="34.2424242424" xlink:href="#block"/><use x="155.4545454545" y="34.2424242424" xlink:href="#block"/><use x="167.5757575758" y="34.2424242424" xlink:href="#block"/><use x="179.6969696970" y="34.2424242424" xlink:href="#block"/><use x="185.7575757576" y="34.2424242424" xlink:href="#block"/><use x="191.8181818182" y="34.2424242424" xlink:href="#block"/><use x="203.9393939394" y="34.2424242424" xlink:href="#block"/><use x="10.0000000000" y="40.3030303030" xlink:href="#block"/><use x="46.3636363636" y="40.3030303030" xlink:href="#block"/><use x="58.4848484848" y="40.3030303030" xlink:href="#block"/><use x="82.7272727273" y="40.3030303030" xlink:href="#block"/><use x="88.7878787879" y="40.3030303030" xlink:href="#block"/><use x="100.9090909091" y="40.3030303030" xlink:href="#block"/><use x="106.9696969697" y="40.3030303030" xlink:href="#block"/><use x="113.0303030303" y="40.3030303030" xlink:href="#block"/><use x="119.0909090909" y="40.3030303030" xlink:href="#block"/><use x="125.1515151515" y="40.3030303030" xlink:href="#block"/><use x="131.2121212121" y="40.3030303030" xlink:href="#block"/><use x="137.2727272727" y="40.3030303030" xlink:href="#block"/><use x="143.3333333333" y="40.3030303030" xlink:href="#block"/><use x="155.4545454545" y="40.3030303030" xlink:href="#block"/><use x="167.5757575758" y="40.3030303030" xlink:href="#block"/><use x="203.9393939394" y="40.3030303030" xlink:href="#block"/><use x="10.0000000000" y="46.3636363636" xlink:href="#block"/><use x="16.0606060606" y="46.3636363636" xlink:href="#block"/><use x="22.1212121212" y="46.3636363636" xlink:href="#block"/><use x="28.1818181818" y="46.3636363636" xlink:href="#block"/><use x="34.2424242424" y="46.3636363636" xlink:href="#block"/><use x="40.3030303030" y="46.3636363636" xlink:href="#block"/><use x="46.3636363636" y="46.3636363636" xlink:href="#block"/><use x="58.4848484848" y="46.3636363636" xlink:href="#block"/><use x="70.6060606061" y="46.3636363636" xlink:href="#block"/><use x="82.7272727273" y="46.3636363636" xlink:href="#block"/><use x="94.8484848485" y="46.3636363636" xlink:href="#block"/><use x="106.9696969697" y="46.3636363636" xlink:href="#block"/><use x="119.0909090909" y="46.3636363636" xlink:href="#block"/><use x="131.2121212121" y="46.3636363636" xlink:href="#block"/><use x="143.3333333333" y="46.3636363636" xlink:href="#block"/><use x="155.4545454545" y="46.3636363636" xlink:href="#block"/><use x="167.5757575758" y="46.3636363636" xlink:href="#block"/><use x="173.6363636364" y="46.3636363636" xlink:href="#block"/><use x="179.6969696970" y="46.3636363636" xlink:href="#block"/><use x="185.7575757576" y="46.3636363636" xlink:href="#block"/><use x="191.8181818182" y="46.3636363636" xlink:href="#block"/><use x="197.8787878788" y="46.3636363636" xlink:href="#block"/><use x="203.9393939394" y="46.3636363636" xlink:href="#block"/><use x="76.6666666667" y="52.4242424242" xlink:href="#block"/><use x="94.8484848485" y="52.4242424242" xlink:href="#block"/><use x="100.9090909091" y="52.4242424242" xlink:href="#block"/><use x="106.9696969697" y="52.4242424242" xlink:href="#block"/><use x="137.2727272727" y="52.4242424242" xlink:href="#block"/><use x="143.3333333333" y="52.4242424242" xlink:href="#block"/><use x="22.1212121212" y="58.4848484848" xlink:href="#block"/><use x="40.3030303030" y="58.4848484848" xlink:href="#block"/><use x="46.3636363636" y="58.4848484848" xlink:href="#block"/><use x="52.4242424242" y="58.4848484848" xlink:href="#block"/><use x="58.4848484848" y="58.4848484848" xlink:href="#block"/><use x="70.6060606061" y="58.4848484848" xlink:href="#block"/><use x="76.6666666667" y="58.4848484848" xlink:href="#block"/><use x="88.7878787879" y="58.4848484848" xlink:href="#block"/><use x="100.9090909091" y="58.4848484848" xlink:href="#block"/><use x="106.9696969697" y="58.4848484848" xlink:href="#block"/><use x="119.0909090909" y="58.4848484848" xlink:href="#block"/><use x="131.2121212121" y="58.4848484848" xlink:href="#block"/><use x="137.2727272727" y="58.4848484848" xlink:href="#block"/><use x="143.3333333333" y="58.4848484848" xlink:href="#block"/><use x="149.3939393939" y="58.4848484848" xlink:href="#block"/><use x="155.4545454545" y="58.4848484848" xlink:href="#block"/><use x="161.5151515152" y="58.4848484848" xlink:href="#block"/><use x="173.6363636364" y="58.4848484848" xlink:href="#block"/><use x="179.6969696970" y="58.4848484848" xlink:href="#block"/><use x="185.7575757576" y="58.4848484848" xlink:href="#block"/><use x="191.8181818182" y="58.4848484848" xlink:href="#block"/><use x="197.8787878788" y="58.4848484848" xlink:href="#block"/><use x="16.0606060606" y="64.5454545455" xlink:href="#block"/><use x="28.1818181818" y="64.5454545455" xlink:href="#block"/><use x="34.2424242424" y="64.5454545455" xlink:href="#block"/><use x="40.3030303030" y="64.5454545455" xlink:href="#block"/><use x="58.4848484848" y="64.5454545455" xlink:href="#block"/><use x="64.5454545455" y="64.5454545455" xlink:href="#block"/><use x="76.6666666667" y="64.5454545455" xlink:href="#block"/><use x="88.7878787879" y="64.5454545455" xlink:href="#block"/><use x="113.0303030303" y="64.5454545455" xlink:href="#block"/><use x="125.1515151515" y="64.5454545455" xlink:href="#block"/><use x="137.2727272727" y="64.5454545455" xlink:href="#block"/><use x="143.3333333333" y="64.5454545455" xlink:href="#block"/><use x="155.4545454545" y="64.5454545455" xlink:href="#block"/><use x="173.6363636364" y="64.5454545455" xlink:href="#block"/><use x="185.7575757576" y="64.5454545455" xlink:href="#block"/><use x="197.8787878788" y="64.5454545455" xlink:href="#block"/><use x="203.9393939394" y="64.5454545455" xlink:href="#block"/><use x="10.0000000000" y="70.6060606061" xlink:href="#block"/><use x="22.1212121212" y="70.6060606061" xlink:href="#block"/><use x="34.2424242424" y="70.6060606061" xlink:href="#block"/><use x="46.3636363636" y="70.6060606061" xlink:href="#block"/><use x="52.4242424242" y="70.6060606061" xlink:href="#block"/><use x="58.4848484848" y="70.6060606061" xlink:href="#block"/><use x="64.5454545455" y="70.6060606061" xlink:href="#block"/><use x="76.6666666667" y="70.6060606061" xlink:href="#block"/><use x="82.7272727273" y="70.6060606061" xlink:href="#block"/><use x="88.7878787879" y="70.6060606061" xlink:href="#block"/><use x="113.0303030303" y="70.6060606061" xlink:href="#block"/><use x="155.4545454545" y="70.6060606061" xlink:href="#block"/><use x="167.5757575758" y="70.6060606061" xlink:href="#block"/><use x="10.0000000000" y="76.6666666667" xlink:href="#block"/><use x="34.2424242424" y="76.6666666667" xlink:href="#block"/><use x="40.3030303030" y="76.6666666667" xlink:href="#block"/><use x="52.4242424242" y="76.6666666667" xlink:href="#block"/><use x="58.4848484848" y="76.6666666667" xlink:href="#block"/><use x="82.7272727273" y="76.6666666667" xlink:href="#block"/><use x="94.8484848485" y="76.6666666667" xlink:href="#block"/><use x="100.9090909091" y="76.6666666667" xlink:href="#block"/><use x="131.2121212121" y="76.6666666667" xlink:href="#block"/><use x="137.2727272727" y="76.6666666667" xlink:href="#block"/><use x="149.3939393939" y="76.6666666667" xlink:href="#block"/><use x="155.4545454545" y="76.6666666667" xlink:href="#block"/><use x="167.5757575758" y="76.6666666667" xlink:href="#block"/><use x="173.6363636364" y="76.6666666667" xlink:href="#block"/><use x="185.7575757576" y="76.6666666667" xlink:href="#block"/><use x="203.9393939394" y="76.6666666667" xlink:href="#block"/><use x="10.0000000000" y="82.7272727273" xlink:href="#block"/><use x="16.0606060606" y="82.7272727273" xlink:href="#block"/><use x="34.2424242424" y="82.7272727273" xlink:href="#block"/><use x="40.3030303030" y="82.7272727273" xlink:href="#block"/><use x="46.3636363636" y="82.7272727273" xlink:href="#block"/><use x="52.4242424242" y="82.7272727273" xlink:href="#block"/><use x="94.8484848485" y="82.7272727273" xlink:href="#block"/><use x="100.9090909091" y="82.7272727273" xlink:href="#block"/><use x="137.2727272727" y="82.7272727273" xlink:href="#block"/><use x="149.3939393939" y="82.7272727273" xlink:href="#block"/><use x="173.6363636364" y="82.7272727273" xlink:href="#block"/><use x="185.7575757576" y="82.7272727273" xlink:href="#block"/><use x="197.8787878788" y="82.7272727273" xlink:href="#block"/><use x="203.9393939394" y="82.7272727273" xlink:href="#block"/><use x="10.0000000000" y="88.7878787879" xlink:href="#block"/><use x="22.1212121212" y="88.7878787879" xlink:href="#block"/><use x="28.1818181818" y="88.7878787879" xlink:href="#block"/><use x="34.2424242424" y="88.7878787879" xlink:href="#block"/><use x="40.3030303030" y="88.7878787879" xlink:href="#block"/><use x="52.4242424242" y="88.7878787879" xlink:href="#block"/><use x="70.6060606061" y="88.7878787879" xlink:href="#block"/><use x="76.6666666667" y="88.7878787879" xlink:href="#block"/><use x="88.7878787879" y="88.7878787879" xlink:href="#block"/><use x="94.8484848485" y="88.7878787879" xlink:href="#block"/><use x="119.0909090909" y="88.7878787879" xlink:href="#block"/><use x="149.3939393939" y="88.7878787879" xlink:href="#block"/><use x="155.4545454545" y="88.7878787879" xlink:href="#block"/><use x="161.5151515152" y="88.7878787879" xlink:href="#block"/><use x="10.0000000000" y="94.8484848485" xlink:href="#block"/><use x="22.1212121212" y="94.8484848485" xlink:href="#block"/><use x="28.1818181818" y="94.8484848485" xlink:href="#block"/><use x="34.2424242424" y="94.8484848485" xlink:href="#block"/><use x="46.3636363636" y="94.8484848485" xlink:href="#block"/><use x="52.4242424242" y="94.8484848485" xlink:href="#block"/><use x="64.5454545455" y="94.8484848485" xlink:href="#block"/><use x="82.7272727273" y="94.8484848485" xlink:href="#block"/><use x="88.7878787879" y="94.8484848485" xlink:href="#block"/><use x="94.8484848485" y="94.8484848485" xlink:href="#block"/><use x="100.9090909091" y="94.8484848485" xlink:href="#block"/><use x="113.0303030303" y="94.8484848485" xlink:href="#block"/><use x="131.2121212121" y="94.8484848485" xlink:href="#block"/><use x="143.3333333333" y="94.8484848485" xlink:href="#block"/><use x="155.4545454545" y="94.8484848485" xlink:href="#block"/><use x="167.5757575758" y="94.8484848485" xlink:href="#block"/><use x="203.9393939394" y="94.8484848485" xlink:href="#block"/><use x="22.1212121212" y="100.9090909091" xlink:href="#block"/><use x="28.1818181818" y="100.9090909091" xlink:href="#block"/><use x="40.3030303030" y="100.9090909091" xlink:href="#block"/><use x="58.4848484848" y="100.9090909091" xlink:href="#block"/><use x="119.0909090909" y="100.9090909091" xlink:href="#block"/><use x="131.2121212121" y="100.9090909091" xlink:href="#block"/><use x="137.2727272727" y="100.9090909091" xlink:href="#block"/><use x="143.3333333333" y="100.9090909091" xlink:href="#block"/><use x="149.3939393939" y="100.9090909091" xlink:href="#block"/><use x="161.5151515152" y="100.9090909091" xlink:href="#block"/><use x="167.5757575758" y="100.9090909091" xlink:href="#block"/><use x="185.7575757576" y="100.9090909091" xlink:href="#block"/><use x="203.9393939394" y="100.9090909091" xlink:href="#block"/><use x="10.0000000000" y="106.9696969697" xlink:href="#block"/><use x="40.3030303030" y="106.9696969697" xlink:href="#block"/><use x="46.3636363636" y="106.9696969697" xlink:href="#block"/><use x="70.6060606061" y="106.9696969697" xlink:href="#block"/><use x="125.1515151515" y="106.9696969697" xlink:href="#block"/><use x="131.2121212121" y="106.9696969697" xlink:href="#block"/><use x="143.3333333333" y="106.9696969697" xlink:href="#block"/><use x="149.3939393939" y="106.9696969697" xlink:href="#block"/><use x="155.4545454545" y="106.9696969697" xlink:href="#block"/><use x="167.5757575758" y="106.9696969697" xlink:href="#block"/><use x="173.6363636364" y="106.9696969697" xlink:href="#block"/><use x="185.7575757576" y="106.9696969697" xlink:href="#block"/><use x="191.8181818182" y="106.9696969697" xlink:href="#block"/><use x="197.8787878788" y="106.9696969697" xlink:href="#block"/><use x="16.0606060606" y="113.0303030303" xlink:href="#block"/><use x="22.1212121212" y="113.0303030303" xlink:href="#block"/><use x="40.3030303030" y="113.0303030303" xlink:href="#block"/><use x="52.4242424242" y="113.0303030303" xlink:href="#block"/><use x="64.5454545455" y="113.0303030303" xlink:href="#block"/><use x="88.7878787879" y="113.0303030303" xlink:href="#block"/><use x="94.8484848485" y="113.0303030303" xlink:href="#block"/><use x="100.9090909091" y="113.0303030303" xlink:href="#block"/><use x="106.9696969697" y="113.0303030303" xlink:href="#block"/><use x="113.0303030303" y="113.0303030303" xlink:href="#block"/><use x="125.1515151515" y="113.0303030303" xlink:href="#block"/><use x="203.9393939394" y="113.0303030303" xlink:href="#block"/><use x="10.0000000000" y="119.0909090909" xlink:href="#block"/><use x="22.1212121212" y="119.0909090909" xlink:href="#block"/><use x="46.3636363636" y="119.0909090909" xlink:href="#block"/><use x="58.4848484848" y="119.0909090909" xlink:href="#block"/><use x="64.5454545455" y="119.0909090909" xlink:href="#block"/><use x="70.6060606061" y="119.0909090909" xlink:href="#block"/><use x="82.7272727273" y="119.0909090909" xlink:href="#block"/><use x="100.9090909091" y="119.0909090909" xlink:href="#block"/><use x="106.9696969697" y="119.0909090909" xlink:href="#block"/><use x="113.0303030303" y="119.0909090909" xlink:href="#block"/><use x="119.0909090909" y="119.0909090909" xlink:href="#block"/><use x="137.2727272727" y="119.0909090909" xlink:href="#block"/><use x="149.3939393939" y="119.0909090909" xlink:href="#block"/><use x="161.5151515152" y="119.0909090909" xlink:href="#block"/><use x="167.5757575758" y="119.0909090909" xlink:href="#block"/><use x="191.8181818182" y="119.0909090909" xlink:href="#block"/><use x="197.8787878788" y="119.0909090909" xlink:href="#block"/><use x="203.9393939394" y="119.0909090909" xlink:href="#block"/><use x="10.0000000000" y="125.1515151515" xlink:href="#block"/><use x="52.4242424242" y="125.1515151515" xlink:href="#block"/><use x="64.5454545455" y="125.1515151515" xlink:href="#block"/><use x="76.6666666667" y="125.1515151515" xlink:href="#block"/><use x="82.7272727273" y="125.1515151515" xlink:href="#block"/><use x="131.2121212121" y="125.1515151515" xlink:href="#block"/><use x="137.2727272727" y="125.1515151515" xlink:href="#block"/><use x="143.3333333333" y="125.1515151515" xlink:href="#block"/><use x="149.3939393939" y="125.1515151515" xlink:href="#block"/><use x="155.4545454545" y="125.1515151515" xlink:href="#block"/><use x="173.6363636364" y="125.1515151515" xlink:href="#block"/><use x="185.7575757576" y="125.1515151515" xlink:href="#block"/><use x="191.8181818182" y="125.1515151515" xlink:href="#block"/><use x="197.8787878788" y="125.1515151515" xlink:href="#block"/><use x="203.9393939394" y="125.1515151515" xlink:href="#block"/><use x="16.0606060606" y="131.2121212121" xlink:href="#block"/><use x="22.1212121212" y="131.2121212121" xlink:href="#block"/><use x="34.2424242424" y="131.2121212121" xlink:href="#block"/><use x="46.3636363636" y="131.2121212121" xlink:href="#block"/><use x="58.4848484848" y="131.2121212121" xlink:href="#block"/><use x="64.5454545455" y="131.2121212121" xlink:href="#block"/><use x="82.7272727273" y="131.2121212121" xlink:href="#block"/><use x="94.8484848485" y="131.2121212121" xlink:href="#block"/><use x="100.9090909091" y="131.2121212121" xlink:href="#block"/><use x="113.0303030303" y="131.2121212121" xlink:href="#block"/><use x="119.0909090909" y="131.2121212121" xlink:href="#block"/><use x="149.3939393939" y="131.2121212121" xlink:href="#block"/><use x="155.4545454545" y="131.2121212121" xlink:href="#block"/><use x="161.5151515152" y="131.2121212121" xlink:href="#block"/><use x="167.5757575758" y="131.2121212121" xlink:href="#block"/><use x="173.6363636364" y="131.2121212121" xlink:href="#block"/><use x="185.7575757576" y="131.2121212121" xlink:href="#block"/><use x="191.8181818182" y="131.2121212121" xlink:href="#block"/><use x="197.8787878788" y="131.2121212121" xlink:href="#block"/><use x="203.9393939394" y="131.2121212121" xlink:href="#block"/><use x="16.0606060606" y="137.2727272727" xlink:href="#block"/><use x="40.3030303030" y="137.2727272727" xlink:href="#block"/><use x="52.4242424242" y="137.2727272727" xlink:href="#block"/><use x="76.6666666667" y="137.2727272727" xlink:href="#block"/><use x="88.7878787879" y="137.2727272727" xlink:href="#block"/><use x="125.1515151515" y="137.2727272727" xlink:href="#block"/><use x="131.2121212121" y="137.2727272727" xlink:href="#block"/><use x="143.3333333333" y="137.2727272727" xlink:href="#block"/><use x="155.4545454545" y="137.2727272727" xlink:href="#block"/><use x="173.6363636364" y="137.2727272727" xlink:href="#block"/><use x="179.6969696970" y="137.2727272727" xlink:href="#block"/><use x="185.7575757576" y="137.2727272727" xlink:href="#block"/><use x="197.8787878788" y="137.2727272727" xlink:href="#block"/><use x="203.9393939394" y="137.2727272727" xlink:href="#block"/><use x="10.0000000000" y="143.3333333333" xlink:href="#block"/><use x="16.0606060606" y="143.3333333333" xlink:href="#block"/><use x="28.1818181818" y="143.3333333333" xlink:href="#block"/><use x="46.3636363636" y="143.3333333333" xlink:href="#block"/><use x="52.4242424242" y="143.3333333333" xlink:href="#block"/><use x="58.4848484848" y="143.3333333333" xlink:href="#block"/><use x="70.6060606061" y="143.3333333333" xlink:href="#block"/><use x="76.6666666667" y="143.3333333333" xlink:href="#block"/><use x="106.9696969697" y="143.3333333333" xlink:href="#block"/><use x="119.0909090909" y="143.3333333333" xlink:href="#block"/><use x="125.1515151515" y="143.3333333333" xlink:href="#block"/><use x="143.3333333333" y="143.3333333333" xlink:href="#block"/><use x="155.4545454545" y="143.3333333333" xlink:href="#block"/><use x="167.5757575758" y="143.3333333333" xlink:href="#block"/><use x="173.6363636364" y="143.3333333333" xlink:href="#block"/><use x="197.8787878788" y="143.3333333333" xlink:href="#block"/><use x="40.3030303030" y="149.3939393939" xlink:href="#block"/><use x="58.4848484848" y="149.3939393939" xlink:href="#block"/><use x="70.6060606061" y="149.3939393939" xlink:href="#block"/><use x="88.7878787879" y="149.3939393939" xlink:href="#block"/><use x="106.9696969697" y="149.3939393939" xlink:href="#block"/><use x="113.0303030303" y="149.3939393939" xlink:href="#block"/><use x="119.0909090909" y="149.3939393939" xlink:href="#block"/><use x="137.2727272727" y="149.3939393939" xlink:href="#block"/><use x="149.3939393939" y="149.3939393939" xlink:href="#block"/><use x="155.4545454545" y="149.3939393939" xlink:href="#block"/><use x="161.5151515152" y="149.3939393939" xlink:href="#block"/><use x="167.5757575758" y="149.3939393939" xlink:href="#block"/><use x="185.7575757576" y="149.3939393939" xlink:href="#block"/><use x="203.9393939394" y="149.3939393939" xlink:href="#block"/><use x="10.0000000000" y="155.4545454545" xlink:href="#block"/><use x="16.0606060606" y="155.4545454545" xlink:href="#block"/><use x="22.1212121212" y="155.4545454545" xlink:href="#block"/><use x="34.2424242424" y="155.4545454545" xlink:href="#block"/><use x="46.3636363636" y="155.4545454545" xlink:href="#block"/><use x="52.4242424242" y="155.4545454545" xlink:href="#block"/><use x="64.5454545455" y="155.4545454545" xlink:href="#block"/><use x="70.6060606061" y="155.4545454545" xlink:href="#block"/><use x="76.6666666667" y="155.4545454545" xlink:href="#block"/><use x="94.8484848485" y="155.4545454545" xlink:href="#block"/><use x="106.9696969697" y="155.4545454545" xlink:href="#block"/><use x="125.1515151515" y="155.4545454545" xlink:href="#block"/><use x="155.4545454545" y="155.4545454545" xlink:href="#block"/><use x="161.5151515152" y="155.4545454545" xlink:href="#block"/><use x="167.5757575758" y="155.4545454545" xlink:href="#block"/><use x="173.6363636364" y="155.4545454545" xlink:href="#block"/><use x="179.6969696970" y="155.4545454545" xlink:href="#block"/><use x="185.7575757576" y="155.4545454545" xlink:href="#block"/><use x="191.8181818182" y="155.4545454545" xlink:href="#block"/><use x="203.9393939394" y="155.4545454545" xlink:href="#block"/><use x="58.4848484848" y="161.5151515152" xlink:href="#block"/><use x="70.6060606061" y="161.5151515152" xlink:href="#block"/><use x="76.6666666667" y="161.5151515152" xlink:href="#block"/><use x="82.7272727273" y="161.5151515152" xlink:href="#block"/><use x="106.9696969697" y="161.5151515152" xlink:href="#block"/><use x="113.0303030303" y="161.5151515152" xlink:href="#block"/><use x="119.0909090909" y="161.5151515152" xlink:href="#block"/><use x="131.2121212121" y="161.5151515152" xlink:href="#block"/><use x="143.3333333333" y="161.5151515152" xlink:href="#block"/><use x="149.3939393939" y="161.5151515152" xlink:href="#block"/><use x="155.4545454545" y="161.5151515152" xlink:href="#block"/><use x="179.6969696970" y="161.5151515152" xlink:href="#block"/><use x="185.7575757576" y="161.5151515152" xlink:href="#block"/><use x="197.8787878788" y="161.5151515152" xlink:href="#block"/><use x="203.9393939394" y="161.5151515152" xlink:href="#block"/><use x="10.0000000000" y="167.5757575758" xlink:href="#block"/><use x="16.0606060606" y="167.5757575758" xlink:href="#block"/><use x="22.1212121212" y="167.5757575758" xlink:href="#block"/><use x="28.1818181818" y="167.5757575758" xlink:href="#block"/><use x="34.2424242424" y="167.5757575758" xlink:href="#block"/><use x="40.3030303030" y="167.5757575758" xlink:href="#block"/><use x="46.3636363636" y="167.5757575758" xlink:href="#block"/><use x="58.4848484848" y="167.5757575758" xlink:href="#block"/><use x="64.5454545455" y="167.5757575758" xlink:href="#block"/><use x="70.6060606061" y="167.5757575758" xlink:href="#block"/><use x="76.6666666667" y="167.5757575758" xlink:href="#block"/><use x="100.9090909091" y="167.5757575758" xlink:href="#block"/><use x="106.9696969697" y="167.5757575758" xlink:href="#block"/><use x="119.0909090909" y="167.5757575758" xlink:href="#block"/><use x="131.2121212121" y="167.5757575758" xlink:href="#block"/><use x="137.2727272727" y="167.5757575758" xlink:href="#block"/><use x="143.3333333333" y="167.5757575758" xlink:href="#block"/><use x="149.3939393939" y="167.5757575758" xlink:href="#block"/><use x="155.4545454545" y="167.5757575758" xlink:href="#block"/><use x="167.5757575758" y="167.5757575758" xlink:href="#block"/><use x="179.6969696970" y="167.5757575758" xlink:href="#block"/><use x="185.7575757576" y="167.5757575758" xlink:href="#block"/><use x="10.0000000000" y="173.6363636364" xlink:href="#block"/><use x="46.3636363636" y="173.6363636364" xlink:href="#block"/><use x="58.4848484848" y="173.6363636364" xlink:href="#block"/><use x="76.6666666667" y="173.6363636364" xlink:href="#block"/><use x="82.7272727273" y="173.6363636364" xlink:href="#block"/><use x="88.7878787879" y="173.6363636364" xlink:href="#block"/><use x="94.8484848485" y="173.6363636364" xlink:href="#block"/><use x="113.0303030303" y="173.6363636364" xlink:href="#block"/><use x="125.1515151515" y="173.6363636364" xlink:href="#block"/><use x="131.2121212121" y="173.6363636364" xlink:href="#block"/><use x="143.3333333333" y="173.6363636364" xlink:href="#block"/><use x="155.4545454545" y="173.6363636364" xlink:href="#block"/><use x="179.6969696970" y="173.6363636364" xlink:href="#block"/><use x="203.9393939394" y="173.6363636364" xlink:href="#block"/><use x="10.0000000000" y="179.6969696970" xlink:href="#block"/><use x="22.1212121212" y="179.6969696970" xlink:href="#block"/><use x="28.1818181818" y="179.6969696970" xlink:href="#block"/><use x="34.2424242424" y="179.6969696970" xlink:href="#block"/><use x="46.3636363636" y="179.6969696970" xlink:href="#block"/><use x="64.5454545455" y="179.6969696970" xlink:href="#block"/><use x="70.6060606061" y="179.6969696970" xlink:href="#block"/><use x="88.7878787879" y="179.6969696970" xlink:href="#block"/><use x="100.9090909091" y="179.6969696970" xlink:href="#block"/><use x="113.0303030303" y="179.6969696970" xlink:href="#block"/><use x="119.0909090909" y="179.6969696970" xlink:href="#block"/><use x="125.1515151515" y="179.6969696970" xlink:href="#block"/><use x="137.2727272727" y="179.6969696970" xlink:href="#block"/><use x="143.3333333333" y="179.6969696970" xlink:href="#block"/><use x="149.3939393939" y="179.6969696970" xlink:href="#block"/><use x="155.4545454545" y="179.6969696970" xlink:href="#block"/><use x="161.5151515152" y="179.6969696970" xlink:href="#block"/><use x="167.5757575758" y="179.6969696970" xlink:href="#block"/><use x="173.6363636364" y="179.6969696970" xlink:href="#block"/><use x="179.6969696970" y="179.6969696970" xlink:href="#block"/><use x="191.8181818182" y="179.6969696970" xlink:href="#block"/><use x="197.8787878788" y="179.6969696970" xlink:href="#block"/><use x="203.9393939394" y="179.6969696970" xlink:href="#block"/><use x="10.0000000000" y="185.7575757576" xlink:href="#block"/><use x="22.1212121212" y="185.7575757576" xlink:href="#block"/><use x="28.1818181818" y="185.7575757576" xlink:href="#block"/><use x="34.2424242424" y="185.7575757576" xlink:href="#block"/><use x="46.3636363636" y="185.7575757576" xlink:href="#block"/><use x="64.5454545455" y="185.7575757576" xlink:href="#block"/><use x="76.6666666667" y="185.7575757576" xlink:href="#block"/><use x="88.7878787879" y="185.7575757576" xlink:href="#block"/><use x="94.8484848485" y="185.7575757576" xlink:href="#block"/><use x="106.9696969697" y="185.7575757576" xlink:href="#block"/><use x="119.0909090909" y="185.7575757576" xlink:href="#block"/><use x="125.1515151515" y="185.7575757576" xlink:href="#block"/><use x="131.2121212121" y="185.7575757576" xlink:href="#block"/><use x="143.3333333333" y="185.7575757576" xlink:href="#block"/><use x="155.4545454545" y="185.7575757576" xlink:href="#block"/><use x="161.5151515152" y="185.7575757576" xlink:href="#block"/><use x="197.8787878788" y="185.7575757576" xlink:href="#block"/><use x="10.0000000000" y="191.8181818182" xlink:href="#block"/><use x="22.1212121212" y="191.8181818182" xlink:href="#block"/><use x="28.1818181818" y="191.8181818182" xlink:href="#block"/><use x="34.2424242424" y="191.8181818182" xlink:href="#block"/><use x="46.3636363636" y="191.8181818182" xlink:href="#block"/><use x="58.4848484848" y="191.8181818182" xlink:href="#block"/><use x="64.5454545455" y="191.8181818182" xlink:href="#block"/><use x="82.7272727273" y="191.8181818182" xlink:href="#block"/><use x="88.7878787879" y="191.8181818182" xlink:href="#block"/><use x="100.9090909091" y="191.8181818182" xlink:href="#block"/><use x="119.0909090909" y="191.8181818182" xlink:href="#block"/><use x="125.1515151515" y="191.8181818182" xlink:href="#block"/><use x="131.2121212121" y="191.8181818182" xlink:href="#block"/><use x="137.2727272727" y="191.8181818182" xlink:href="#block"/><use x="143.3333333333" y="191.8181818182" xlink:href="#block"/><use x="155.4545454545" y="191.8181818182" xlink:href="#block"/><use x="161.5151515152" y="191.8181818182" xlink:href="#block"/><use x="167.5757575758" y="191.8181818182" xlink:href="#block"/><use x="173.6363636364" y="191.8181818182" xlink:href="#block"/><use x="197.8787878788" y="191.8181818182" xlink:href="#block"/><use x="203.9393939394" y="191.8181818182" xlink:href="#block"/><use x="10.0000000000" y="197.8787878788" xlink:href="#block"/><use x="46.3636363636" y="197.8787878788" xlink:href="#block"/><use x="70.6060606061" y="197.8787878788" xlink:href="#block"/><use x="106.9696969697" y="197.8787878788" xlink:href="#block"/><use x="119.0909090909" y="197.8787878788" xlink:href="#block"/><use x="125.1515151515" y="197.8787878788" xlink:href="#block"/><use x="137.2727272727" y="197.8787878788" xlink:href="#block"/><use x="149.3939393939" y="197.8787878788" xlink:href="#block"/><use x="161.5151515152" y="197.8787878788" xlink:href="#block"/><use x="179.6969696970" y="197.8787878788" xlink:href="#block"/><use x="197.8787878788" y="197.8787878788" xlink:href="#block"/><use x="203.9393939394" y="197.8787878788" xlink:href="#block"/><use x="10.0000000000" y="203.9393939394" xlink:href="#block"/><use x="16.0606060606" y="203.9393939394" xlink:href="#block"/><use x="22.1212121212" y="203.9393939394" xlink:href="#block"/><use x="28.1818181818" y="203.9393939394" xlink:href="#block"/><use x="34.2424242424" y="203.9393939394" xlink:href="#block"/><use x="40.3030303030" y="203.9393939394" xlink:href="#block"/><use x="46.3636363636" y="203.9393939394" xlink:href="#block"/><use x="64.5454545455" y="203.9393939394" xlink:href="#block"/><use x="82.7272727273" y="203.9393939394" xlink:href="#block"/><use x="88.7878787879" y="203.9393939394" xlink:href="#block"/><use x="94.8484848485" y="203.9393939394" xlink:href="#block"/><use x="100.9090909091" y="203.9393939394" xlink:href="#block"/><use x="106.9696969697" y="203.9393939394" xlink:href="#block"/><use x="125.1515151515" y="203.9393939394" xlink:href="#block"/><use x="131.2121212121" y="203.9393939394" xlink:href="#block"/><use x="137.2727272727" y="203.9393939394" xlink:href="#block"/><use x="143.3333333333" y="203.9393939394" xlink:href="#block"/><use x="155.4545454545" y="203.9393939394" xlink:href="#block"/><use x="161.5151515152" y="203.9393939394" xlink:href="#block"/><use x="179.6969696970" y="203.9393939394" xlink:href="#block"/><use x="185.7575757576" y="203.9393939394" xlink:href="#block"/><use x="191.8181818182" y="203.9393939394" xlink:href="#block"/><use x="203.9393939394" y="203.9393939394" xlink:href="#block"/></svg>
