<?xml version="1.0" standalone="no"?>
<!DOCTYPE svg PUBLIC "-//W3C//DTD SVG 20010904//EN"
 "http://www.w3.org/TR/2001/REC-SVG-20010904/DTD/svg10.dtd">
<svg version="1.0" xmlns="http://www.w3.org/2000/svg"
 width="152.000000pt" height="152.000000pt" viewBox="0 0 152.000000 152.000000"
 preserveAspectRatio="xMidYMid meet">
<metadata>
Created by potrace 1.14, written by Peter Selinger 2001-2017
</metadata>
<g transform="translate(0.000000,152.000000) scale(0.100000,-0.100000)"
fill="#000000" stroke="none">
<path d="M575 1500 c-282 -74 -485 -278 -556 -560 -31 -121 -24 -301 16 -418
86 -253 286 -439 544 -503 122 -31 301 -24 419 16 253 86 439 286 503 544 31
122 24 301 -16 419 -85 251 -286 438 -539 502 -104 26 -272 27 -371 0z m-151
-597 c0 -25 -8 -51 -18 -62 -16 -17 -16 -20 5 -55 30 -51 24 -153 -11 -191
-32 -34 -88 -34 -126 -1 -24 20 -28 31 -29 76 0 34 5 55 13 57 8 3 12 -9 12
-41 0 -59 34 -102 73 -92 45 11 57 32 57 99 0 80 -16 105 -70 109 -53 4 -52
21 1 29 45 6 69 29 69 66 0 22 -3 23 -74 23 -70 0 -95 8 -79 24 4 4 46 5 93 4
l85 -3 -1 -42z m706 -19 l0 -54 43 0 c58 0 79 18 86 71 3 24 11 43 16 41 16
-4 10 -80 -8 -100 -15 -17 -15 -21 4 -59 16 -33 19 -56 17 -123 -2 -56 -7 -85
-15 -88 -10 -3 -13 20 -13 90 0 120 -11 138 -81 138 l-49 0 0 -115 c0 -96 -3
-115 -15 -115 -13 0 -15 27 -15 183 0 101 3 187 6 190 15 15 24 -8 24 -59z
m-260 -56 c60 -35 110 -67 110 -73 0 -5 -50 -38 -111 -73 l-110 -63 -111 64
c-61 34 -110 67 -111 72 0 9 198 132 216 134 4 1 57 -27 117 -61z"/>
<path d="M671 812 c-46 -26 -82 -52 -81 -57 1 -6 39 -32 84 -58 l83 -48 89 52
c49 28 90 52 92 54 3 2 -172 105 -179 105 -2 0 -42 -22 -88 -48z"/>
</g>
</svg>
